{
.appVersion = "1199";
copyright = "Copyright (c) 2011, Dan Sayers (i@iotic.com)";
customParameters = (
{
name = license;
value = "This Font Software is licensed under the SIL Open Font License, Version 1.1. This license is available with a FAQ at: http://scripts.sil.org/OFL";
},
{
name = licenseURL;
value = "http://scripts.sil.org/OFL";
},
{
name = vendorID;
value = DANS;
},
{
name = panose;
value = (
2,
0,
6,
3,
0,
0,
0,
0,
0,
4
);
},
{
name = fsType;
value = (
);
},
{
name = "Disable Last Change";
value = 1;
},
{
name = "Use Line Breaks";
value = 1;
},
{
name = "Use Typo Metrics";
value = 1;
},
{
name = Axes;
value = (
{
Name = Weight;
Tag = wght;
}
);
}
);
date = "2011-11-13 19:02:34 +0000";
designer = "Dan Sayers";
designerURL = iotic.com;
disablesNiceNames = 1;
familyName = "Averia Serif Libre";
fontMaster = (
{
ascender = 1622;
capHeight = 700;
custom = Italic;
customParameters = (
{
name = typoAscender;
value = 1890;
},
{
name = typoDescender;
value = -426;
},
{
name = typoLineGap;
value = 0;
},
{
name = winAscent;
value = 1890;
},
{
name = winDescent;
value = 465;
},
{
name = hheaAscender;
value = 1890;
},
{
name = hheaDescender;
value = -426;
},
{
name = strikeoutPosition;
value = 530;
},
{
name = strikeoutSize;
value = 102;
},
{
name = "Axis Location";
value = (
{
Axis = Weight;
Location = 300;
}
);
}
);
descender = -426;
id = "92A672BF-229C-4BEC-8D25-4DDBB2A38145";
italicAngle = 6.85;
userData = {
GSCornerRadius = 15;
};
weight = Light;
weightValue = 300;
widthValue = 5;
xHeight = 500;
},
{
ascender = 1622;
capHeight = 700;
custom = Italic;
customParameters = (
{
name = typoAscender;
value = 1622;
},
{
name = typoDescender;
value = -426;
},
{
name = typoLineGap;
value = 0;
},
{
name = winAscent;
value = 1833;
},
{
name = winDescent;
value = 466;
},
{
name = hheaAscender;
value = 1833;
},
{
name = hheaDescender;
value = -426;
},
{
name = strikeoutPosition;
value = 530;
},
{
name = strikeoutSize;
value = 102;
},
{
name = "Axis Location";
value = (
{

glyphs = (
{
glyphname = A;
layers = (
{
anchors = (
{
name = bottom;
position = "{694, -2}";
},
{
name = top;
position = "{899, 1390}";
}
);
layerId = "5CBF0BAD-1756-4F16-9711-93DC239D102B";
paths = (
{
closed = 1;
nodes = (
"563 644 OFFCURVE",
"794 1043 OFFCURVE",
"816 1043 CURVE SMOOTH",
"832 1043 OFFCURVE",
"908 672 OFFCURVE",
"908 615 CURVE SMOOTH",
"908 587 OFFCURVE",
"897 582 OFFCURVE",
"771 582 CURVE SMOOTH",
"579 582 OFFCURVE",
"563 587 OFFCURVE",
"563 607 CURVE SMOOTH"
);
},
{
closed = 1;
nodes = (
"6 0 OFFCURVE",
"45 -13 OFFCURVE",
"254 -14 CURVE SMOOTH",
"379 -15 OFFCURVE",
"419 -6 OFFCURVE",
"419 28 CURVE SMOOTH",
"419 98 OFFCURVE",
"373 109 OFFCURVE",
"373 189 CURVE SMOOTH",
"373 251 OFFCURVE",
"434 392 OFFCURVE",
"472 416 CURVE SMOOTH",
"499 433 OFFCURVE",
"629 438 OFFCURVE",
"740 438 CURVE SMOOTH",
"817 438 OFFCURVE",
"906 431 OFFCURVE",
"932 405 CURVE SMOOTH",
"957 380 OFFCURVE",
"972 303 OFFCURVE",
"972 220 CURVE SMOOTH",
"972 184 OFFCURVE",
"884 70 OFFCURVE",
"884 48 CURVE SMOOTH",
"884 12 OFFCURVE",
"957 -6 OFFCURVE",
"1041 -6 CURVE SMOOTH",
"1319 -5 OFFCURVE",
"1372 12 OFFCURVE",
"1372 63 CURVE SMOOTH",
"1372 94 OFFCURVE",
"1254 131 OFFCURVE",
"1237 209 CURVE SMOOTH",
"1212 323 OFFCURVE",
"1088 953 OFFCURVE",
"1015 1232 CURVE SMOOTH",
"986 1341 OFFCURVE",
"961 1370 OFFCURVE",
"890 1370 CURVE SMOOTH",
"812 1370 OFFCURVE",
"740 1268 OFFCURVE",
"608 977 CURVE SMOOTH",
"540 827 OFFCURVE",
"403 587 OFFCURVE",
"213 258 CURVE SMOOTH",
"159 165 OFFCURVE",
"6 85 OFFCURVE",
"6 48 CURVE SMOOTH"
);
}
);
width = 1474;
},
{
anchors = (
{
name = bottom;
position = "{540, -3}";
},
{
name = top;
position = "{912, 1391}";
}
);
layerId = "92A672BF-229C-4BEC-8D25-4DDBB2A38145";
paths = (
{
closed = 1;
nodes = (
"533 622 OFFCURVE",
"808 1154 OFFCURVE",
"823 1154 CURVE SMOOTH",
"839 1154 OFFCURVE",
"938 641 OFFCURVE",
"932 591 CURVE SMOOTH",
"931 582 OFFCURVE",
"862 584 OFFCURVE",
"771 584 CURVE SMOOTH",
"559 584 OFFCURVE",
"526 576 OFFCURVE",
"529 595 CURVE SMOOTH"
);
},
{
closed = 1;
nodes = (
"4 27 OFFCURVE",
"91 13 OFFCURVE",
"271 13 CURVE SMOOTH",
"336 13 OFFCURVE",
"370 25 OFFCURVE",
"374 48 CURVE SMOOTH",
"378 73 OFFCURVE",
"305 130 OFFCURVE",
"311 173 CURVE SMOOTH",
"315 200 OFFCURVE",
"336 251 OFFCURVE",
"378 324 CURVE SMOOTH",
"466 477 OFFCURVE",
"492 486 OFFCURVE",
"758 486 CURVE SMOOTH",
"881 486 OFFCURVE",
"932 477 OFFCURVE",
"956 436 CURVE SMOOTH",
"976 402 OFFCURVE",
"1020 224 OFFCURVE",
"1012 174 CURVE SMOOTH",
"1005 129 OFFCURVE",
"930 73 OFFCURVE",
"925 41 CURVE SMOOTH",
"921 17 OFFCURVE",
"978 5 OFFCURVE",
"1094 5 CURVE SMOOTH",
"1294 5 OFFCURVE",
"1367 8 OFFCURVE",
"1372 44 CURVE SMOOTH",
"1377 81 OFFCURVE",
"1270 117 OFFCURVE",
"1249 186 CURVE SMOOTH",
"1227 260 OFFCURVE",
"1097 867 OFFCURVE",
"1067 1028 CURVE SMOOTH",
"1037 1189 OFFCURVE",
"993 1391 OFFCURVE",
"903 1391 CURVE SMOOTH",
"776 1391 OFFCURVE",
"735 1218 OFFCURVE",
"637 1028 CURVE SMOOTH",
"606 968 OFFCURVE",
"200 243 OFFCURVE",
"189 223 CURVE SMOOTH",
"143 139 OFFCURVE",
"13 85 OFFCURVE",
"8 53 CURVE SMOOTH"
);
}
);
width = 1436;
},
{
layerId = "7C3FA927-BF0B-46CA-AD8A-59E4DBC582B9";
paths = (
{
closed = 1;
nodes = (
"526 578 OFFCURVE",
"526 586 QCURVE SMOOTH",
"526 613 OFFCURVE",
"721 947 QCURVE SMOOTH",
"728 959 OFFCURVE",
"746 995 OFFCURVE",
"775 1049 OFFCURVE",
"780 1049 OFFCURVE",
"793 965 OFFCURVE",
"869 611 OFFCURVE",
"869 601 QCURVE SMOOTH",
"869 596 LINE SMOOTH",
"869 578 OFFCURVE",
"826 578 QCURVE SMOOTH",
"549 578 LINE SMOOTH"
);
},
{
closed = 1;
nodes = (
"924 394 OFFCURVE",
"924 248 QCURVE SMOOTH",
"924 166 OFFCURVE",
"895 115 QCURVE",
"894 113 OFFCURVE",
"869 82 QCURVE",
"856 64 LINE",
"847 49 OFFCURVE",
"847 33 QCURVE SMOOTH",
"847 -9 OFFCURVE",
"987 -9 QCURVE SMOOTH",
"1101 -8 LINE SMOOTH",
"1278 -8 OFFCURVE",
"1324 14 OFFCURVE",
"1324 65 QCURVE SMOOTH",
"1324 99 OFFCURVE",
"1256 129 QCURVE SMOOTH",
"1217 146 OFFCURVE",
"1196 208 QCURVE SMOOTH",
"1190 226 OFFCURVE",
"1126 535 OFFCURVE",
"1096 673 QCURVE SMOOTH",
"1046 908 LINE SMOOTH",
"1036 951 OFFCURVE",
"1021 1024 QCURVE SMOOTH",
"997 1138 LINE",
"957 1286 OFFCURVE",
"892 1370 OFFCURVE",
"857 1370 QCURVE SMOOTH",
"772 1370 OFFCURVE",
"708 1264 QCURVE SMOOTH",
"691 1236 OFFCURVE",
"606 1023 OFFCURVE",
"591 992 OFFCURVE",
"187 267 OFFCURVE",
"128 169 OFFCURVE",
"-34 75 OFFCURVE",
"-34 27 QCURVE SMOOTH",
"-34 -9 OFFCURVE",
"38 -9 QCURVE SMOOTH",
"129 -8 LINE SMOOTH",
"297 -8 OFFCURVE",
"330 -1 QCURVE SMOOTH",
"377 9 OFFCURVE",
"377 46 QCURVE SMOOTH",
"377 50 OFFCURVE",
"333 146 OFFCURVE",
"333 232 OFFCURVE",
"412 392 OFFCURVE",
"478 441 OFFCURVE",
"857 441 OFFCURVE",
"877 427 QCURVE SMOOTH"
);
}
);
width = 1394;
},
{
layerId = "BCD21CE1-B1BC-4ACC-96CF-D8EB86DFE113";
paths = (
{
closed = 1;
nodes = (
"545 596 OFFCURVE",
"545 609 QCURVE SMOOTH",
"545 615 LINE SMOOTH",
"545 644 OFFCURVE",
"777 1005 QCURVE SMOOTH",
"813 1061 OFFCURVE",
"864 1156 OFFCURVE",
"874 1156 QCURVE SMOOTH",
"877 1156 LINE SMOOTH",
"879 1156 OFFCURVE",
"887 1138 QCURVE SMOOTH",
"940 1021 OFFCURVE",
"940 794 QCURVE SMOOTH",
"940 786 OFFCURVE",
"943 762 QCURVE SMOOTH",
"946 738 LINE",
"946 730 OFFCURVE",
"948 714 QCURVE SMOOTH",
"951 691 LINE",
"954 653 LINE",
"955 645 LINE",
"955 637 LINE SMOOTH",
"955 600 OFFCURVE",
"880 600 QCURVE SMOOTH",
"872 600 OFFCURVE",
"864 599 QCURVE",
"797 597 LINE",
"789 596 LINE",
"621 596 LINE SMOOTH"
);
},
{
closed = 1;
nodes = (
"491 504 OFFCURVE",
"915 504 OFFCURVE",
"935 487 QCURVE SMOOTH",
"972 455 OFFCURVE",
"972 236 QCURVE SMOOTH",
"972 157 OFFCURVE",
"949 117 OFFCURVE",
"924 99 QCURVE",
"905 87 LINE",
"886 73 LINE",
"858 50 OFFCURVE",
"858 0 OFFCURVE",
"1299 0 OFFCURVE",
"1299 39 QCURVE SMOOTH",
"1299 58 OFFCURVE",
"1190 132 OFFCURVE",
"1171 224 OFFCURVE",
"1125 700 QCURVE SMOOTH",
"1101 944 LINE SMOOTH",
"1098 983 OFFCURVE",
"1092 1156 OFFCURVE",
"1088 1181 QCURVE SMOOTH",
"1074 1274 OFFCURVE",
"1018 1351 QCURVE SMOOTH",
"997 1380 OFFCURVE",
"962 1380 QCURVE SMOOTH",
"904 1380 OFFCURVE",
"834 1284 QCURVE SMOOTH",
"702 1102 OFFCURVE",
"512 777 OFFCURVE",
"404 612 OFFCURVE",
"162 224 OFFCURVE",
"85 124 OFFCURVE",
"-53 64 OFFCURVE",
"-53 35 QCURVE SMOOTH",
"-53 -3 OFFCURVE",
"15 -3 QCURVE SMOOTH",
"137 -3 LINE SMOOTH",
"250 -3 OFFCURVE",
"294 7 QCURVE SMOOTH",
"327 15 OFFCURVE",
"327 49 QCURVE SMOOTH",
"327 51 OFFCURVE",
"284 121 OFFCURVE",
"284 180 OFFCURVE",
"410 423 OFFCURVE",
"440 453 QCURVE SMOOTH"
);
}
);
width = 1434;
}
);
note = uni0041;
unicode = 0041;
},
{
glyphname = Aacute;
layers = (
{
components = (
{
name = A;
transform = "{1, 0, 0.15838, 1, -146, 0}";
},
{
name = acutecomb;
transform = "{1, 0, 0.15838, 1, 603, 344}";
}
);
layerId = "92A672BF-229C-4BEC-8D25-4DDBB2A38145";
width = 1436;
},
{
components = (
{
name = A;
},
{
name = acutecomb;
transform = "{1, 0, 0, 1, 805, 356}";
}
);
layerId = "5CBF0BAD-1756-4F16-9711-93DC239D102B";
width = 1474;
},
{
layerId = "7C3FA927-BF0B-46CA-AD8A-59E4DBC582B9";
paths = (
{
closed = 1;
nodes = (
"528 613 OFFCURVE",
"528 621 QCURVE SMOOTH",
"528 656 OFFCURVE",
"722 989 QCURVE SMOOTH",
"729 1001 OFFCURVE",
"771 1085 OFFCURVE",
"779 1085 OFFCURVE",
"779 1075 QCURVE",
"865 640 LINE",
"865 635 LINE SMOOTH",
"865 613 OFFCURVE",
"841 613 QCURVE SMOOTH",
"537 613 LINE SMOOTH"
);
},
{
closed = 1;
nodes = (
"898 1510 OFFCURVE",
"1119 1665 QCURVE SMOOTH",
"1232 1744 OFFCURVE",
"1232 1781 QCURVE SMOOTH",
"1232 1795 OFFCURVE",
"1221 1802 QCURVE SMOOTH",
"1170 1836 OFFCURVE",
"1101 1836 QCURVE SMOOTH",
"1083 1836 LINE SMOOTH",
"1038 1836 OFFCURVE",
"974 1779 QCURVE SMOOTH",
"775 1602 OFFCURVE",
"775 1553 QCURVE SMOOTH",
"775 1548 LINE SMOOTH",
"775 1510 OFFCURVE",
"812 1510 QCURVE SMOOTH",
"822 1510 LINE SMOOTH"
);
},
{
closed = 1;
nodes = (
"323 223 OFFCURVE",
"397 395 OFFCURVE",
"444 441 QCURVE SMOOTH",
"479 475 OFFCURVE",
"861 475 OFFCURVE",
"883 451 QCURVE SMOOTH",
"923 407 OFFCURVE",
"923 212 QCURVE SMOOTH",
"923 181 OFFCURVE",
"860 67 OFFCURVE",
"860 61 QCURVE SMOOTH",
"860 13 OFFCURVE",
"1015 13 QCURVE SMOOTH",
"1273 13 LINE SMOOTH",
"1342 13 OFFCURVE",
"1342 68 QCURVE SMOOTH",
"1342 106 OFFCURVE",
"1266 156 QCURVE SMOOTH",
"1232 179 OFFCURVE",
"1210 239 QCURVE SMOOTH",
"1208 244 OFFCURVE",
"1106 716 OFFCURVE",
"1076 852 OFFCURVE",
"1070 881 QCURVE SMOOTH",
"1026 1083 LINE SMOOTH",
"991 1258 OFFCURVE",
"970 1342 QCURVE",
"946 1424 OFFCURVE",
"887 1424 QCURVE SMOOTH",
"854 1424 OFFCURVE",
"767 1349 OFFCURVE",
"713 1258 OFFCURVE",
"517 899 OFFCURVE",
"134 212 OFFCURVE",
"116 190 OFFCURVE",
"-42 96 OFFCURVE",
"-42 58 QCURVE SMOOTH",
"-42 13 OFFCURVE",
"44 13 QCURVE SMOOTH",
"283 13 LINE SMOOTH",
"371 13 OFFCURVE",
"371 55 QCURVE SMOOTH",
"371 68 OFFCURVE",
"323 177 OFFCURVE",
"323 180 QCURVE SMOOTH"
);
}
);
width = 1421;
},
{
layerId = "BCD21CE1-B1BC-4ACC-96CF-D8EB86DFE113";
paths = (
{
closed = 1;
nodes = (
"545 616 OFFCURVE",
"545 631 QCURVE SMOOTH",
"545 661 OFFCURVE",
"786 1036 QCURVE SMOOTH",
"880 1182 LINE",
"883 1182 LINE SMOOTH",
"915 1182 OFFCURVE",
"915 1052 QCURVE SMOOTH",
"915 1045 OFFCURVE",
"920 1000 QCURVE SMOOTH",
"923 973 LINE",
"925 961 OFFCURVE",
"933 893 QCURVE SMOOTH",
"939 842 LINE",
"939 816 OFFCURVE",
"948 744 QCURVE",
"951 706 LINE",
"954 675 LINE",
"954 659 LINE SMOOTH",
"954 616 OFFCURVE",
"788 616 QCURVE SMOOTH",
"635 616 LINE SMOOTH"
);
},
{
closed = 1;
nodes = (
"0 0 LINE"
);
},
{
closed = 1;
nodes = (
"981 1793 LINE SMOOTH",
"913 1725 OFFCURVE",
"762 1552 OFFCURVE",
"762 1548 QCURVE SMOOTH",
"762 1539 LINE SMOOTH",
"762 1519 OFFCURVE",
"785 1519 QCURVE SMOOTH",
"795 1519 LINE SMOOTH",
"846 1519 OFFCURVE",
"1156 1760 OFFCURVE",
"1156 1786 QCURVE",
"1157 1791 LINE",
"1157 1795 LINE SMOOTH",
"1157 1843 OFFCURVE",
"1080 1843 QCURVE SMOOTH",
"1070 1843 LINE SMOOTH",
"1012 1843 OFFCURVE",
"988 1800 QCURVE"
);
},
{
closed = 1;
nodes = (
"973 460 OFFCURVE",
"973 214 QCURVE SMOOTH",
"973 149 OFFCURVE",
"838 64 OFFCURVE",
"838 29 QCURVE SMOOTH",
"838 9 OFFCURVE",
"1038 9 QCURVE SMOOTH",
"1225 9 LINE SMOOTH",
"1282 9 OFFCURVE",
"1282 56 QCURVE SMOOTH",
"1282 72 OFFCURVE",
"1206 114 QCURVE SMOOTH",
"1174 132 OFFCURVE",
"1147 236 OFFCURVE",
"1088 1153 OFFCURVE",
"1061 1332 OFFCURVE",
"1022 1382 QCURVE SMOOTH",
"1005 1404 OFFCURVE",
"986 1404 QCURVE SMOOTH",
"925 1404 OFFCURVE",
"858 1315 QCURVE SMOOTH",
"848 1302 OFFCURVE",
"637 979 OFFCURVE",
"585 895 OFFCURVE",
"536 823 OFFCURVE",
"506 774 OFFCURVE",
"468 719 OFFCURVE",
"421 644 OFFCURVE",
"403 618 QCURVE SMOOTH",
"386 592 LINE SMOOTH",
"369 566 OFFCURVE",
"318 485 OFFCURVE",
"116 176 OFFCURVE",
"112 171 QCURVE SMOOTH",
"78 128 OFFCURVE",
"-62 74 OFFCURVE",
"-62 51 QCURVE SMOOTH",
"-62 34 LINE SMOOTH",
"-62 5 OFFCURVE",
"54 5 QCURVE SMOOTH",
"84 6 LINE SMOOTH",
"309 6 OFFCURVE",
"309 38 QCURVE SMOOTH",
"309 63 OFFCURVE",
"271 146 OFFCURVE",
"271 213 OFFCURVE",
"407 450 OFFCURVE",
"497 527 OFFCURVE",
"917 527 OFFCURVE",
"937 503 QCURVE SMOOTH"
);
}
);
width = 1430;
}
);
unicode = 00C1;
},
{
glyphname = Acircumflex;
layers = (
{
components = (
{
name = A;
transform = "{1, 0, 0.15838, 1, -141, 0}";
},
{
name = circumflexcomb;
transform = "{1, 0, 0.15838, 1, 596, 288}";
}
);
layerId = "92A672BF-229C-4BEC-8D25-4DDBB2A38145";
width = 1436;
},
{
components = (
{
name = A;
},
{
name = circumflexcomb;
transform = "{1, 0, 0, 1, 940, 325}";
}
);
layerId = "5CBF0BAD-1756-4F16-9711-93DC239D102B";
width = 1474;
},
{
layerId = "7C3FA927-BF0B-46CA-AD8A-59E4DBC582B9";
paths = (
{
closed = 1;
nodes = (
"527 608 OFFCURVE",
"527 623 OFFCURVE",
"732 1004 OFFCURVE",
"770 1081 OFFCURVE",
"776 1081 OFFCURVE",
"796 963 OFFCURVE",
"834 785 QCURVE SMOOTH",
"839 764 LINE",
"840 758 LINE",
"864 636 LINE",
"864 630 LINE SMOOTH",
"864 608 OFFCURVE",
"833 608 QCURVE SMOOTH",
"543 608 LINE SMOOTH"
);
},
{
closed = 1;
nodes = (
"1198 1519 OFFCURVE",
"1198 1559 QCURVE SMOOTH",
"1198 1572 OFFCURVE",
"1150 1634 QCURVE",
"1091 1719 LINE SMOOTH",
"1066 1754 OFFCURVE",
"1028 1813 OFFCURVE",
"1024 1817 QCURVE SMOOTH",
"986 1855 OFFCURVE",
"950 1855 QCURVE SMOOTH",
"934 1855 LINE SMOOTH",
"893 1855 OFFCURVE",
"574 1562 OFFCURVE",
"574 1553 QCURVE SMOOTH",
"574 1547 LINE SMOOTH",
"574 1519 OFFCURVE",
"626 1519 QCURVE SMOOTH",
"633 1519 LINE SMOOTH",
"675 1519 OFFCURVE",
"897 1667 OFFCURVE",
"921 1667 OFFCURVE",
"1094 1519 OFFCURVE",
"1141 1519 QCURVE SMOOTH",
"1156 1519 LINE SMOOTH"
);
},
{
closed = 1;
nodes = (
"322 216 OFFCURVE",
"397 392 OFFCURVE",
"478 470 OFFCURVE",
"859 470 OFFCURVE",
"882 446 QCURVE SMOOTH",
"922 403 OFFCURVE",
"922 208 QCURVE SMOOTH",
"922 177 OFFCURVE",
"859 63 OFFCURVE",
"859 56 QCURVE SMOOTH",
"859 8 OFFCURVE",
"1014 8 QCURVE SMOOTH",
"1072 8 LINE",
"1127 9 LINE",
"1183 9 LINE",
"1212 8 LINE",
"1272 8 LINE SMOOTH",
"1341 8 OFFCURVE",
"1341 63 QCURVE SMOOTH",
"1341 100 OFFCURVE",
"1265 151 QCURVE SMOOTH",
"1230 174 OFFCURVE",
"1185 301 OFFCURVE",
"996 1247 OFFCURVE",
"944 1419 OFFCURVE",
"887 1419 QCURVE SMOOTH",
"853 1419 OFFCURVE",
"766 1344 OFFCURVE",
"638 1126 OFFCURVE",
"165 247 OFFCURVE",
"116 186 OFFCURVE",
"-43 93 OFFCURVE",
"-43 54 QCURVE SMOOTH",
"-43 8 OFFCURVE",
"43 8 QCURVE SMOOTH",
"282 8 LINE SMOOTH",
"370 8 OFFCURVE",
"370 50 QCURVE SMOOTH",
"370 62 OFFCURVE",
"322 173 OFFCURVE",
"322 175 QCURVE SMOOTH"
);
}
);
width = 1421;
},
{
layerId = "BCD21CE1-B1BC-4ACC-96CF-D8EB86DFE113";
paths = (
{
closed = 1;
nodes = (
"542 611 OFFCURVE",
"542 626 QCURVE SMOOTH",
"542 655 OFFCURVE",
"788 1038 QCURVE SMOOTH",
"877 1176 LINE",
"881 1176 LINE SMOOTH",
"910 1176 OFFCURVE",
"910 1072 QCURVE",
"935 854 LINE",
"935 844 OFFCURVE",
"939 803 OFFCURVE",
"942 771 OFFCURVE",
"945 732 OFFCURVE",
"948 708 QCURVE",
"950 677 LINE",
"951 670 LINE",
"951 647 LINE SMOOTH",
"951 616 OFFCURVE",
"894 616 QCURVE SMOOTH",
"886 616 OFFCURVE",
"878 615 QCURVE",
"811 612 LINE",
"803 611 LINE",
"616 611 LINE SMOOTH"
);
},
{
closed = 1;
nodes = (
"1008 1838 OFFCURVE",
"718 1548 OFFCURVE",
"718 1545 QCURVE SMOOTH",
"718 1524 OFFCURVE",
"765 1524 OFFCURVE",
"1007 1691 OFFCURVE",
"1013 1691 QCURVE SMOOTH",
"1037 1691 OFFCURVE",
"1192 1522 OFFCURVE",
"1255 1522 OFFCURVE",
"1255 1554 QCURVE SMOOTH",
"1255 1560 OFFCURVE",
"1155 1723 OFFCURVE",
"1132 1765 QCURVE SMOOTH",
"1093 1838 OFFCURVE",
"1063 1838 QCURVE SMOOTH",
"1042 1838 LINE SMOOTH"
);
},
{
closed = 1;
nodes = (
"269 212 OFFCURVE",
"407 445 OFFCURVE",
"444 477 QCURVE SMOOTH",
"496 522 OFFCURVE",
"912 522 OFFCURVE",
"934 497 QCURVE SMOOTH",
"971 455 OFFCURVE",
"971 209 QCURVE SMOOTH",
"971 142 OFFCURVE",
"836 60 OFFCURVE",
"836 42 QCURVE SMOOTH",
"836 4 OFFCURVE",
"1279 4 OFFCURVE",
"1279 32 QCURVE SMOOTH",
"1279 51 LINE SMOOTH",
"1279 64 OFFCURVE",
"1170 129 OFFCURVE",
"1158 176 OFFCURVE",
"1114 715 QCURVE SMOOTH",
"1102 867 LINE SMOOTH",
"1095 958 OFFCURVE",
"1092 989 OFFCURVE",
"1089 1047 QCURVE SMOOTH",
"1085 1106 LINE SMOOTH",
"1071 1310 OFFCURVE",
"1030 1363 QCURVE SMOOTH",
"1002 1399 OFFCURVE",
"984 1399 QCURVE SMOOTH",
"918 1399 OFFCURVE",
"838 1285 QCURVE SMOOTH",
"829 1273 OFFCURVE",
"638 980 OFFCURVE",
"594 910 OFFCURVE",
"494 754 OFFCURVE",
"380 581 OFFCURVE",
"163 237 OFFCURVE",
"101 156 QCURVE SMOOTH",
"77 124 OFFCURVE",
"-65 68 OFFCURVE",
"-65 45 QCURVE SMOOTH",
"-65 0 OFFCURVE",
"51 0 QCURVE SMOOTH",
"113 1 LINE SMOOTH",
"307 1 OFFCURVE",
"307 33 QCURVE SMOOTH",
"307 60 OFFCURVE",
"269 138 OFFCURVE",
"269 151 QCURVE SMOOTH"
);
}
);
width = 1430;
}
);
unicode = 00C2;
},
{
glyphname = Adieresis;
layers = (
{
components = (
{
name = A;
transform = "{1, 0, 0.15838, 1, -142, 0}";
},
{
name = dieresiscomb;
transform = "{1, 0, 0.15838, 1, 606, 408}";
}
);
layerId = "92A672BF-229C-4BEC-8D25-4DDBB2A38145";
width = 1436;
},
{
components = (
{
name = A;
},
{
name = dieresiscomb;
transform = "{1, 0, 0, 1, 805, 374}";
}
);
layerId = "5CBF0BAD-1756-4F16-9711-93DC239D102B";
width = 1474;
},
{
layerId = "7C3FA927-BF0B-46CA-AD8A-59E4DBC582B9";
paths = (
{
closed = 1;
nodes = (
"520 610 OFFCURVE",
"520 626 OFFCURVE",
"729 1014 OFFCURVE",
"763 1083 OFFCURVE",
"769 1083 OFFCURVE",
"774 1054 OFFCURVE",
"857 639 OFFCURVE",
"857 638 QCURVE SMOOTH",
"857 632 LINE SMOOTH",
"857 610 OFFCURVE",
"792 610 QCURVE SMOOTH",
"564 610 LINE SMOOTH"
);
},
{
closed = 1;
nodes = (
"579 1591 OFFCURVE",
"652 1530 OFFCURVE",
"694 1530 QCURVE SMOOTH",
"698 1530 LINE",
"724 1533 LINE",
"774 1533 OFFCURVE",
"846 1634 OFFCURVE",
"846 1674 QCURVE SMOOTH",
"846 1692 LINE SMOOTH",
"846 1735 OFFCURVE",
"778 1803 OFFCURVE",
"740 1803 QCURVE SMOOTH",
"714 1803 LINE SMOOTH",
"661 1803 OFFCURVE",
"579 1707 OFFCURVE",
"579 1659 QCURVE SMOOTH",
"579 1638 LINE SMOOTH"
);
},
{
closed = 1;
nodes = (
"1241 1737 OFFCURVE",
"1175 1803 OFFCURVE",
"1135 1803 QCURVE SMOOTH",
"1109 1803 LINE SMOOTH",
"1056 1803 OFFCURVE",
"974 1708 OFFCURVE",
"974 1655 QCURVE",
"973 1650 LINE",
"976 1625 LINE",
"976 1595 OFFCURVE",
"1038 1533 OFFCURVE",
"1063 1533 QCURVE SMOOTH",
"1066 1533 OFFCURVE",
"1076 1531 QCURVE",
"1085 1531 LINE",
"1089 1530 LINE",
"1098 1530 LINE SMOOTH",
"1145 1530 OFFCURVE",
"1241 1612 OFFCURVE",
"1241 1670 QCURVE SMOOTH",
"1241 1696 LINE SMOOTH"
);
},
{
closed = 1;
nodes = (
"315 218 OFFCURVE",
"389 389 OFFCURVE",
"437 439 QCURVE SMOOTH",
"469 472 OFFCURVE",
"852 472 OFFCURVE",
"875 448 QCURVE SMOOTH",
"915 407 OFFCURVE",
"915 237 QCURVE SMOOTH",
"915 179 OFFCURVE",
"852 65 OFFCURVE",
"852 59 QCURVE SMOOTH",
"852 10 OFFCURVE",
"1007 10 QCURVE SMOOTH",
"1036 10 LINE",
"1120 11 LINE",
"1205 11 LINE",
"1235 10 LINE",
"1266 10 LINE SMOOTH",
"1335 10 OFFCURVE",
"1335 65 QCURVE SMOOTH",
"1335 102 OFFCURVE",
"1258 153 QCURVE SMOOTH",
"1225 175 OFFCURVE",
"1202 237 QCURVE",
"1200 241 OFFCURVE",
"1111 654 OFFCURVE",
"1052 923 OFFCURVE",
"977 1284 OFFCURVE",
"970 1312 QCURVE SMOOTH",
"943 1422 OFFCURVE",
"814 1422 OFFCURVE",
"735 1304 QCURVE SMOOTH",
"729 1295 OFFCURVE",
"647 1148 QCURVE SMOOTH",
"576 1018 LINE SMOOTH",
"505 890 OFFCURVE",
"489 861 OFFCURVE",
"363 635 OFFCURVE",
"326 565 OFFCURVE",
"131 216 OFFCURVE",
"111 190 OFFCURVE",
"-50 94 OFFCURVE",
"-50 56 QCURVE SMOOTH",
"-50 10 OFFCURVE",
"66 10 QCURVE SMOOTH",
"157 11 LINE SMOOTH",
"363 11 OFFCURVE",
"363 52 QCURVE SMOOTH",
"363 64 OFFCURVE",
"315 175 OFFCURVE",
"315 177 QCURVE SMOOTH"
);
}
);
width = 1421;
},
{
layerId = "BCD21CE1-B1BC-4ACC-96CF-D8EB86DFE113";
paths = (
{
closed = 1;
nodes = (
"937 616 OFFCURVE",
"872 616 QCURVE",
"839 614 LINE",
"763 612 LINE",
"755 611 LINE",
"643 611 LINE SMOOTH",
"528 611 OFFCURVE",
"528 627 QCURVE SMOOTH",
"528 655 OFFCURVE",
"765 1024 QCURVE SMOOTH",
"774 1038 OFFCURVE",
"858 1177 OFFCURVE",
"863 1177 QCURVE SMOOTH",
"866 1177 LINE SMOOTH",
"894 1177 OFFCURVE",
"894 1089 QCURVE",
"900 1030 LINE",
"900 1011 OFFCURVE",
"907 969 QCURVE",
"914 906 LINE",
"919 876 OFFCURVE",
"919 871 QCURVE",
"924 821 LINE",
"924 812 OFFCURVE",
"927 780 OFFCURVE",
"930 748 OFFCURVE",
"932 723 OFFCURVE",
"934 709 QCURVE",
"936 678 LINE",
"937 670 LINE",
"937 647 LINE SMOOTH"
);
},
{
closed = 1;
nodes = (
"808 1771 LINE",
"796 1769 LINE",
"778 1769 OFFCURVE",
"713 1718 OFFCURVE",
"713 1692 QCURVE",
"709 1667 LINE",
"709 1661 LINE",
"710 1648 LINE",
"710 1645 OFFCURVE",
"712 1639 QCURVE",
"712 1575 OFFCURVE",
"768 1575 QCURVE",
"787 1571 LINE",
"815 1571 LINE SMOOTH",
"842 1571 OFFCURVE",
"899 1628 OFFCURVE",
"899 1643 QCURVE",
"904 1668 LINE",
"904 1690 LINE SMOOTH",
"904 1719 OFFCURVE",
"852 1771 OFFCURVE",
"821 1771 QCURVE SMOOTH"
);
},
{
closed = 1;
nodes = (
"1185 1528 OFFCURVE",
"1246 1579 OFFCURVE",
"1246 1596 QCURVE",
"1250 1640 LINE",
"1250 1661 LINE",
"1248 1678 LINE",
"1248 1682 OFFCURVE",
"1246 1690 QCURVE",
"1246 1751 OFFCURVE",
"1202 1751 QCURVE SMOOTH",
"1187 1751 LINE SMOOTH",
"1135 1751 OFFCURVE",
"1006 1659 OFFCURVE",
"1006 1618 QCURVE SMOOTH",
"1006 1602 OFFCURVE",
"1023 1581 QCURVE SMOOTH",
"1046 1552 LINE",
"1046 1536 OFFCURVE",
"1105 1536 QCURVE SMOOTH",
"1114 1536 LINE",
"1122 1535 LINE",
"1131 1535 LINE",
"1136 1534 LINE",
"1149 1534 LINE",
"1158 1531 LINE",
"1161 1531 OFFCURVE",
"1170 1528 QCURVE",
"1182 1528 LINE SMOOTH"
);
},
{
closed = 1;
nodes = (
"984 490 OFFCURVE",
"984 261 QCURVE SMOOTH",
"984 197 OFFCURVE",
"860 116 OFFCURVE",
"860 99 QCURVE SMOOTH",
"860 65 OFFCURVE",
"994 65 OFFCURVE",
"1022 64 QCURVE",
"1109 64 LINE SMOOTH",
"1283 64 OFFCURVE",
"1283 93 QCURVE SMOOTH",
"1283 130 OFFCURVE",
"1180 183 OFFCURVE",
"1170 222 QCURVE SMOOTH",
"1151 293 OFFCURVE",
"1080 1146 OFFCURVE",
"1063 1244 QCURVE SMOOTH",
"1033 1417 OFFCURVE",
"980 1417 QCURVE SMOOTH",
"913 1417 OFFCURVE",
"761 1189 OFFCURVE",
"538 829 OFFCURVE",
"403 618 OFFCURVE",
"162 227 OFFCURVE",
"120 183 OFFCURVE",
"-11 125 OFFCURVE",
"-11 106 QCURVE SMOOTH",
"-11 90 LINE SMOOTH",
"-11 61 OFFCURVE",
"98 61 QCURVE SMOOTH",
"187 61 LINE SMOOTH",
"339 61 OFFCURVE",
"339 93 QCURVE SMOOTH",
"339 114 OFFCURVE",
"300 187 OFFCURVE",
"300 256 OFFCURVE",
"430 488 OFFCURVE",
"515 559 OFFCURVE",
"921 559 OFFCURVE",
"942 536 QCURVE SMOOTH"
);
}
);
width = 1430;
}
);
unicode = 00C4;
},
{
glyphname = Agrave;
layers = (
{
components = (
{
name = A;
transform = "{1, 0, 0.15838, 1, -148, 0}";
},
{
name = gravecomb;
transform = "{1, 0, 0.15838, 1, 605, 384}";
}
);
layerId = "92A672BF-229C-4BEC-8D25-4DDBB2A38145";
width = 1436;
},
{
components = (
{
name = A;
},
{
name = gravecomb;
transform = "{1, 0, 0, 1, 899, 383}";
}
);
layerId = "5CBF0BAD-1756-4F16-9711-93DC239D102B";
width = 1474;
},
{
layerId = "7C3FA927-BF0B-46CA-AD8A-59E4DBC582B9";
paths = (
{
closed = 1;
nodes = (
"527 612 OFFCURVE",
"527 628 OFFCURVE",
"718 983 QCURVE SMOOTH",
"773 1085 LINE",
"776 1085 OFFCURVE",
"796 968 OFFCURVE",
"864 649 OFFCURVE",
"864 640 QCURVE SMOOTH",
"864 634 LINE SMOOTH",
"864 612 OFFCURVE",
"812 612 QCURVE SMOOTH",
"557 612 LINE SMOOTH"
);
},
{
closed = 1;
nodes = (
"724 1836 OFFCURVE",
"704 1832 QCURVE",
"659 1832 OFFCURVE",
"597 1791 OFFCURVE",
"597 1774 QCURVE SMOOTH",
"597 1769 LINE SMOOTH",
"597 1722 OFFCURVE",
"897 1512 OFFCURVE",
"950 1512 QCURVE SMOOTH",
"960 1512 LINE SMOOTH",
"998 1512 OFFCURVE",
"998 1553 QCURVE SMOOTH",
"998 1558 LINE SMOOTH",
"998 1566 OFFCURVE",
"874 1743 QCURVE SMOOTH",
"810 1834 OFFCURVE",
"769 1834 QCURVE SMOOTH",
"765 1834 OFFCURVE",
"753 1836 QCURVE",
"731 1836 LINE SMOOTH"
);
},
{
closed = 1;
nodes = (
"322 220 OFFCURVE",
"398 397 OFFCURVE",
"477 474 OFFCURVE",
"859 474 OFFCURVE",
"882 450 QCURVE SMOOTH",
"922 409 OFFCURVE",
"922 238 QCURVE SMOOTH",
"922 182 OFFCURVE",
"859 66 OFFCURVE",
"859 61 QCURVE SMOOTH",
"859 12 OFFCURVE",
"1014 12 QCURVE SMOOTH",
"1043 12 LINE",
"1127 13 LINE",
"1212 13 LINE",
"1242 12 LINE",
"1272 12 LINE SMOOTH",
"1342 12 OFFCURVE",
"1342 67 QCURVE SMOOTH",
"1342 104 OFFCURVE",
"1265 155 QCURVE SMOOTH",
"1231 178 OFFCURVE",
"1189 296 OFFCURVE",
"991 1266 OFFCURVE",
"944 1424 OFFCURVE",
"821 1424 OFFCURVE",
"742 1306 QCURVE",
"739 1302 OFFCURVE",
"582 1020 QCURVE SMOOTH",
"510 889 LINE SMOOTH",
"481 837 OFFCURVE",
"467 811 QCURVE SMOOTH",
"438 759 LINE SMOOTH",
"433 750 OFFCURVE",
"157 243 OFFCURVE",
"127 204 QCURVE SMOOTH",
"116 190 OFFCURVE",
"-43 97 OFFCURVE",
"-43 58 QCURVE SMOOTH",
"-43 12 OFFCURVE",
"43 12 QCURVE SMOOTH",
"73 12 LINE",
"134 13 LINE",
"223 13 LINE",
"252 12 LINE SMOOTH",
"370 12 OFFCURVE",
"370 54 QCURVE SMOOTH",
"370 66 OFFCURVE",
"322 177 OFFCURVE",
"322 179 QCURVE SMOOTH"
);
}
);
width = 1421;
},
{
layerId = "BCD21CE1-B1BC-4ACC-96CF-D8EB86DFE113";
paths = (
{
closed = 1;
nodes = (
"545 616 OFFCURVE",
"545 631 QCURVE SMOOTH",
"545 661 OFFCURVE",
"786 1036 QCURVE SMOOTH",
"880 1182 LINE",
"883 1182 LINE SMOOTH",
"915 1182 OFFCURVE",
"915 1052 QCURVE SMOOTH",
"915 1045 OFFCURVE",
"920 1000 QCURVE SMOOTH",
"923 973 LINE",
"925 961 OFFCURVE",
"933 893 QCURVE SMOOTH",
"939 842 LINE",
"939 816 OFFCURVE",
"948 744 QCURVE",
"951 706 LINE",
"954 675 LINE",
"954 659 LINE SMOOTH",
"954 616 OFFCURVE",
"788 616 QCURVE SMOOTH",
"635 616 LINE SMOOTH"
);
},
{
closed = 1;
nodes = (
"708 1734 OFFCURVE",
"815 1663 QCURVE SMOOTH",
"876 1623 OFFCURVE",
"993 1520 OFFCURVE",
"1029 1520 QCURVE SMOOTH",
"1039 1520 LINE SMOOTH",
"1060 1520 OFFCURVE",
"1060 1542 QCURVE",
"1061 1547 LINE",
"1061 1552 LINE SMOOTH",
"1061 1584 OFFCURVE",
"833 1844 OFFCURVE",
"806 1844 QCURVE SMOOTH",
"786 1844 LINE SMOOTH",
"708 1844 OFFCURVE",
"708 1794 QCURVE SMOOTH",
"708 1776 LINE SMOOTH"
);
},
{
closed = 1;
nodes = (
"973 460 OFFCURVE",
"973 214 QCURVE SMOOTH",
"973 149 OFFCURVE",
"838 64 OFFCURVE",
"838 29 QCURVE SMOOTH",
"838 9 OFFCURVE",
"1038 9 QCURVE SMOOTH",
"1225 9 LINE SMOOTH",
"1282 9 OFFCURVE",
"1282 56 QCURVE SMOOTH",
"1282 72 OFFCURVE",
"1206 114 QCURVE SMOOTH",
"1174 132 OFFCURVE",
"1147 236 OFFCURVE",
"1088 1153 OFFCURVE",
"1061 1332 OFFCURVE",
"1022 1382 QCURVE SMOOTH",
"1005 1404 OFFCURVE",
"986 1404 QCURVE SMOOTH",
"925 1404 OFFCURVE",
"858 1315 QCURVE SMOOTH",
"848 1302 OFFCURVE",
"637 979 OFFCURVE",
"585 895 OFFCURVE",
"536 823 OFFCURVE",
"506 774 OFFCURVE",
"468 719 OFFCURVE",
"421 644 OFFCURVE",
"403 618 QCURVE SMOOTH",
"386 592 LINE SMOOTH",
"369 566 OFFCURVE",
"318 485 OFFCURVE",
"116 176 OFFCURVE",
"112 171 QCURVE SMOOTH",
"78 128 OFFCURVE",
"-62 74 OFFCURVE",
"-62 51 QCURVE SMOOTH",
"-62 34 LINE SMOOTH",
"-62 5 OFFCURVE",
"54 5 QCURVE SMOOTH",
"84 6 LINE SMOOTH",
"309 6 OFFCURVE",
"309 38 QCURVE SMOOTH",
"309 63 OFFCURVE",
"271 146 OFFCURVE",
"271 213 OFFCURVE",
"407 450 OFFCURVE",
"497 527 OFFCURVE",
"917 527 OFFCURVE",
"937 503 QCURVE SMOOTH"
);
}
);
width = 1430;
}
);
unicode = 00C0;
},
{
glyphname = Aring;
layers = (
{
components = (
{
name = A;
transform = "{1, 0, 0.15838, 1, -147, 0}";
},
{
name = ringcomb;
transform = "{1, 0, 0.15838, 1, 599, 340}";
}
);
layerId = "92A672BF-229C-4BEC-8D25-4DDBB2A38145";
width = 1436;
},
{
components = (
{
name = A;
},
{
name = ringcomb;
transform = "{1, 0, 0, 1, 810, 364}";
}
);
layerId = "5CBF0BAD-1756-4F16-9711-93DC239D102B";
width = 1474;
},
{
layerId = "7C3FA927-BF0B-46CA-AD8A-59E4DBC582B9";
paths = (
{
closed = 1;
nodes = (
"885 1555 OFFCURVE",
"879 1557 QCURVE",
"830 1557 OFFCURVE",
"830 1609 QCURVE",
"826 1633 LINE",
"826 1642 LINE",
"828 1664 LINE",
"828 1667 OFFCURVE",
"832 1679 QCURVE",
"832 1696 OFFCURVE",
"881 1758 OFFCURVE",
"898 1758 QCURVE",
"921 1762 LINE",
"924 1762 LINE",
"933 1761 LINE",
"936 1761 OFFCURVE",
"942 1759 QCURVE",
"990 1759 OFFCURVE",
"990 1710 QCURVE SMOOTH",
"990 1707 OFFCURVE",
"991 1704 QCURVE",
"994 1680 LINE",
"995 1677 LINE",
"995 1671 LINE SMOOTH",
"995 1627 OFFCURVE",
"938 1555 OFFCURVE",
"903 1555 QCURVE SMOOTH",
"888 1555 LINE SMOOTH"
);
},
{
closed = 1;
nodes = (
"534 603 OFFCURVE",
"534 622 OFFCURVE",
"709 947 OFFCURVE",
"774 1078 OFFCURVE",
"780 1078 OFFCURVE",
"787 1036 OFFCURVE",
"796 997 OFFCURVE",
"799 983 QCURVE SMOOTH",
"806 955 LINE",
"812 927 LINE",
"816 912 LINE",
"828 864 LINE SMOOTH",
"832 850 OFFCURVE",
"835 833 QCURVE",
"839 815 OFFCURVE",
"842 806 QCURVE",
"848 778 LINE",
"850 771 LINE",
"855 750 LINE SMOOTH",
"858 736 OFFCURVE",
"882 632 OFFCURVE",
"882 629 QCURVE SMOOTH",
"882 623 LINE",
"883 617 LINE",
"883 603 OFFCURVE",
"758 603 QCURVE SMOOTH",
"630 603 LINE SMOOTH"
);
},
{
closed = 1;
nodes = (
"705 1557 OFFCURVE",
"795 1455 OFFCURVE",
"864 1455 QCURVE SMOOTH",
"897 1455 LINE SMOOTH",
"983 1455 OFFCURVE",
"1116 1603 OFFCURVE",
"1116 1674 QCURVE SMOOTH",
"1116 1707 LINE SMOOTH",
"1116 1769 OFFCURVE",
"1014 1861 OFFCURVE",
"950 1861 QCURVE SMOOTH",
"931 1861 LINE SMOOTH",
"847 1861 OFFCURVE",
"762 1776 QCURVE SMOOTH",
"705 1719 OFFCURVE",
"705 1634 QCURVE SMOOTH",
"705 1615 LINE SMOOTH"
);
},
{
closed = 1;
nodes = (
"913 449 OFFCURVE",
"923 416 QCURVE SMOOTH",
"955 316 OFFCURVE",
"955 200 QCURVE SMOOTH",
"955 152 OFFCURVE",
"900 67 OFFCURVE",
"900 47 OFFCURVE",
"974 12 OFFCURVE",
"1031 12 QCURVE SMOOTH",
"1087 13 LINE",
"1140 13 LINE SMOOTH",
"1299 13 OFFCURVE",
"1311 15 QCURVE SMOOTH",
"1354 22 OFFCURVE",
"1354 58 QCURVE SMOOTH",
"1354 88 OFFCURVE",
"1278 145 QCURVE SMOOTH",
"1244 170 OFFCURVE",
"1218 256 OFFCURVE",
"983 1229 OFFCURVE",
"935 1408 OFFCURVE",
"896 1408 QCURVE SMOOTH",
"826 1408 OFFCURVE",
"671 1141 OFFCURVE",
"203 257 OFFCURVE",
"141 172 OFFCURVE",
"-3 94 OFFCURVE",
"-3 60 QCURVE SMOOTH",
"-3 12 OFFCURVE",
"106 12 QCURVE SMOOTH",
"194 13 LINE SMOOTH",
"383 13 OFFCURVE",
"383 44 QCURVE SMOOTH",
"383 70 OFFCURVE",
"329 156 OFFCURVE",
"329 228 OFFCURVE",
"420 411 OFFCURVE",
"492 478 OFFCURVE",
"874 478 OFFCURVE",
"899 459 QCURVE SMOOTH"
);
}
);
width = 1416;
},
{
layerId = "BCD21CE1-B1BC-4ACC-96CF-D8EB86DFE113";
paths = (
{
closed = 1;
nodes = (
"975 1572 OFFCURVE",
"920 1627 OFFCURVE",
"920 1671 QCURVE",
"919 1675 LINE",
"919 1686 LINE",
"920 1693 LINE",
"920 1700 LINE",
"922 1706 LINE",
"922 1734 OFFCURVE",
"988 1800 OFFCURVE",
"1025 1800 QCURVE SMOOTH",
"1039 1800 LINE SMOOTH",
"1072 1800 OFFCURVE",
"1130 1742 OFFCURVE",
"1130 1708 QCURVE SMOOTH",
"1130 1683 LINE SMOOTH",
"1130 1640 OFFCURVE",
"1062 1572 OFFCURVE",
"1028 1572 QCURVE SMOOTH",
"1010 1572 LINE SMOOTH"
);
},
{
closed = 1;
nodes = (
"568 621 OFFCURVE",
"568 637 QCURVE",
"809 1039 LINE SMOOTH",
"895 1182 OFFCURVE",
"903 1182 QCURVE SMOOTH",
"906 1182 LINE SMOOTH",
"940 1182 OFFCURVE",
"940 1055 QCURVE SMOOTH",
"940 1019 OFFCURVE",
"953 941 QCURVE",
"962 862 LINE",
"962 852 OFFCURVE",
"966 804 QCURVE",
"968 788 OFFCURVE",
"970 757 OFFCURVE",
"973 733 QCURVE",
"976 688 LINE",
"977 680 LINE",
"977 664 LINE SMOOTH",
"977 621 OFFCURVE",
"794 621 QCURVE SMOOTH",
"675 621 LINE SMOOTH"
);
},
{
closed = 1;
nodes = (
"840 1592 OFFCURVE",
"940 1504 OFFCURVE",
"1000 1504 QCURVE SMOOTH",
"1018 1504 LINE SMOOTH",
"1077 1504 OFFCURVE",
"1210 1607 OFFCURVE",
"1210 1694 QCURVE SMOOTH",
"1210 1712 LINE SMOOTH",
"1210 1766 OFFCURVE",
"1121 1866 OFFCURVE",
"1073 1866 QCURVE SMOOTH",
"1067 1866 OFFCURVE",
"1055 1868 QCURVE",
"1025 1868 LINE SMOOTH",
"950 1868 OFFCURVE",
"840 1744 OFFCURVE",
"840 1678 QCURVE SMOOTH",
"840 1660 LINE SMOOTH"
);
},
{
closed = 1;
nodes = (
"287 213 OFFCURVE",
"424 452 OFFCURVE",
"520 534 OFFCURVE",
"933 534 OFFCURVE",
"956 508 QCURVE SMOOTH",
"992 467 OFFCURVE",
"992 221 QCURVE SMOOTH",
"992 150 OFFCURVE",
"935 112 QCURVE SMOOTH",
"857 61 OFFCURVE",
"857 30 QCURVE SMOOTH",
"857 10 OFFCURVE",
"965 10 QCURVE SMOOTH",
"991 10 OFFCURVE",
"1021 9 QCURVE SMOOTH",
"1113 9 LINE SMOOTH",
"1296 9 OFFCURVE",
"1296 53 QCURVE SMOOTH",
"1296 71 OFFCURVE",
"1224 115 QCURVE SMOOTH",
"1191 135 OFFCURVE",
"1171 205 OFFCURVE",
"1105 1204 OFFCURVE",
"1101 1232 QCURVE SMOOTH",
"1086 1333 OFFCURVE",
"1044 1380 QCURVE SMOOTH",
"1025 1402 OFFCURVE",
"1008 1402 QCURVE SMOOTH",
"944 1402 OFFCURVE",
"863 1287 QCURVE SMOOTH",
"753 1130 OFFCURVE",
"614 908 OFFCURVE",
"541 797 OFFCURVE",
"524 771 QCURVE SMOOTH",
"490 719 LINE SMOOTH",
"353 513 OFFCURVE",
"169 224 OFFCURVE",
"93 129 OFFCURVE",
"-48 73 OFFCURVE",
"-48 48 QCURVE SMOOTH",
"-48 5 OFFCURVE",
"42 5 QCURVE SMOOTH",
"165 5 LINE SMOOTH",
"323 5 OFFCURVE",
"323 67 OFFCURVE",
"287 146 OFFCURVE",
"287 158 QCURVE SMOOTH"
);
}
);
width = 1443;
}
);
unicode = 00C5;
},
{
glyphname = Atilde;
layers = (
{
components = (
{
name = A;
transform = "{1, 0, 0.15838, 1, -137, 0}";
},
{
name = tildecomb;
transform = "{1, 0, 0.15838, 1, 606, 324}";
}
);
layerId = "92A672BF-229C-4BEC-8D25-4DDBB2A38145";
width = 1436;
},
{
components = (
{
name = A;
},
{
name = tildecomb;
transform = "{1, 0, 0, 1, 808, 322}";
}
);
layerId = "5CBF0BAD-1756-4F16-9711-93DC239D102B";
width = 1474;
},
{
layerId = "7C3FA927-BF0B-46CA-AD8A-59E4DBC582B9";
paths = (
{
closed = 1;
nodes = (
"533 609 OFFCURVE",
"533 624 OFFCURVE",
"735 999 OFFCURVE",
"776 1082 OFFCURVE",
"782 1082 OFFCURVE",
"787 1053 OFFCURVE",
"870 638 OFFCURVE",
"870 637 QCURVE SMOOTH",
"870 631 LINE SMOOTH",
"870 609 OFFCURVE",
"819 609 QCURVE SMOOTH",
"564 609 LINE SMOOTH"
);
},
{
closed = 1;
nodes = (
"733 1798 OFFCURVE",
"660 1743 QCURVE SMOOTH",
"541 1654 OFFCURVE",
"541 1583 QCURVE SMOOTH",
"541 1542 OFFCURVE",
"591 1542 QCURVE SMOOTH",
"610 1542 OFFCURVE",
"700 1632 OFFCURVE",
"804 1632 OFFCURVE",
"888 1578 QCURVE SMOOTH",
"970 1525 OFFCURVE",
"1030 1525 QCURVE SMOOTH",
"1032 1525 OFFCURVE",
"1032 1525 QCURVE",
"1041 1525 LINE SMOOTH",
"1118 1525 OFFCURVE",
"1290 1684 OFFCURVE",
"1290 1780 OFFCURVE",
"1248 1780 QCURVE SMOOTH",
"1228 1780 OFFCURVE",
"1125 1692 OFFCURVE",
"1031 1692 OFFCURVE",
"867 1798 OFFCURVE",
"810 1798 QCURVE SMOOTH",
"793 1798 LINE SMOOTH"
);
},
{
closed = 1;
nodes = (
"328 217 OFFCURVE",
"402 390 OFFCURVE",
"450 438 QCURVE SMOOTH",
"483 471 OFFCURVE",
"865 471 OFFCURVE",
"888 447 QCURVE SMOOTH",
"928 406 OFFCURVE",
"928 235 QCURVE SMOOTH",
"928 179 OFFCURVE",
"865 63 OFFCURVE",
"865 57 QCURVE SMOOTH",
"865 9 OFFCURVE",
"1020 9 QCURVE SMOOTH",
"1049 9 LINE",
"1133 10 LINE",
"1218 10 LINE",
"1248 9 LINE",
"1279 9 LINE SMOOTH",
"1348 9 OFFCURVE",
"1348 64 QCURVE SMOOTH",
"1348 101 OFFCURVE",
"1271 152 QCURVE SMOOTH",
"1238 174 OFFCURVE",
"1215 235 QCURVE",
"1213 241 OFFCURVE",
"1064 926 OFFCURVE",
"985 1304 OFFCURVE",
"983 1311 QCURVE",
"956 1421 OFFCURVE",
"827 1421 OFFCURVE",
"748 1303 QCURVE SMOOTH",
"742 1294 OFFCURVE",
"660 1147 QCURVE SMOOTH",
"589 1017 LINE SMOOTH",
"517 888 OFFCURVE",
"507 869 OFFCURVE",
"386 652 OFFCURVE",
"349 582 OFFCURVE",
"144 215 OFFCURVE",
"124 189 OFFCURVE",
"-37 93 OFFCURVE",
"-37 55 QCURVE SMOOTH",
"-37 9 OFFCURVE",
"49 9 QCURVE SMOOTH",
"80 9 LINE",
"140 10 LINE",
"229 10 LINE",
"259 9 LINE SMOOTH",
"376 9 OFFCURVE",
"376 51 QCURVE SMOOTH",
"376 63 OFFCURVE",
"328 174 OFFCURVE",
"328 176 QCURVE SMOOTH"
);
}
);
width = 1421;
},
{
layerId = "BCD21CE1-B1BC-4ACC-96CF-D8EB86DFE113";
paths = (
{
closed = 1;
nodes = (
"949 648 LINE SMOOTH",
"949 612 OFFCURVE",
"767 612 QCURVE SMOOTH",
"647 612 LINE SMOOTH",
"541 612 OFFCURVE",
"541 623 QCURVE SMOOTH",
"541 628 LINE SMOOTH",
"541 631 OFFCURVE",
"869 1178 OFFCURVE",
"875 1178 QCURVE SMOOTH",
"879 1178 LINE SMOOTH",
"908 1178 OFFCURVE",
"908 1073 QCURVE SMOOTH",
"908 1069 OFFCURVE",
"920 961 QCURVE SMOOTH",
"923 934 LINE",
"926 916 LINE",
"933 855 LINE",
"933 807 OFFCURVE",
"949 679 QCURVE"
);
},
{
closed = 1;
nodes = (
"823 1769 OFFCURVE",
"766 1725 QCURVE SMOOTH",
"675 1655 OFFCURVE",
"675 1602 QCURVE SMOOTH",
"675 1588 LINE SMOOTH",
"675 1570 OFFCURVE",
"699 1570 QCURVE SMOOTH",
"700 1570 OFFCURVE",
"798 1652 OFFCURVE",
"894 1652 OFFCURVE",
"1040 1564 OFFCURVE",
"1089 1564 QCURVE SMOOTH",
"1119 1564 LINE SMOOTH",
"1180 1564 OFFCURVE",
"1316 1689 OFFCURVE",
"1316 1741 QCURVE SMOOTH",
"1316 1766 OFFCURVE",
"1292 1766 QCURVE SMOOTH",
"1286 1766 OFFCURVE",
"1194 1682 OFFCURVE",
"1095 1682 OFFCURVE",
"950 1769 OFFCURVE",
"905 1769 QCURVE SMOOTH",
"882 1769 LINE SMOOTH"
);
},
{
closed = 1;
nodes = (
"267 213 OFFCURVE",
"406 448 OFFCURVE",
"442 479 QCURVE SMOOTH",
"493 523 OFFCURVE",
"911 523 OFFCURVE",
"932 499 QCURVE SMOOTH",
"969 456 OFFCURVE",
"969 211 QCURVE SMOOTH",
"969 145 OFFCURVE",
"834 61 OFFCURVE",
"834 44 QCURVE SMOOTH",
"834 5 OFFCURVE",
"1277 5 OFFCURVE",
"1277 34 QCURVE SMOOTH",
"1277 52 LINE SMOOTH",
"1277 68 OFFCURVE",
"1202 111 QCURVE SMOOTH",
"1168 130 OFFCURVE",
"1159 167 QCURVE SMOOTH",
"1156 179 OFFCURVE",
"1107 773 OFFCURVE",
"1107 778 QCURVE",
"1105 808 LINE",
"1095 930 LINE SMOOTH",
"1091 985 OFFCURVE",
"1071 1227 OFFCURVE",
"1071 1228 QCURVE",
"1056 1330 OFFCURVE",
"1018 1379 QCURVE SMOOTH",
"1001 1401 OFFCURVE",
"982 1401 QCURVE SMOOTH",
"916 1401 OFFCURVE",
"836 1287 QCURVE SMOOTH",
"827 1275 OFFCURVE",
"649 1002 OFFCURVE",
"587 902 OFFCURVE",
"569 875 QCURVE SMOOTH",
"552 849 LINE SMOOTH",
"518 796 OFFCURVE",
"110 171 OFFCURVE",
"107 168 QCURVE",
"74 125 OFFCURVE",
"-67 69 OFFCURVE",
"-67 47 QCURVE SMOOTH",
"-67 2 OFFCURVE",
"19 2 QCURVE SMOOTH",
"80 2 LINE SMOOTH",
"305 2 OFFCURVE",
"305 34 QCURVE SMOOTH",
"305 61 OFFCURVE",
"267 139 OFFCURVE",
"267 153 QCURVE SMOOTH"
);
}
);
width = 1430;
}
);
unicode = 00C3;
},
{
glyphname = AE;
layers = (
{
layerId = "92A672BF-229C-4BEC-8D25-4DDBB2A38145";
paths = (
{
closed = 1;
nodes = (
"1562 1 OFFCURVE",
"1687 25 OFFCURVE",
"1715 206 CURVE SMOOTH",
"1722 248 OFFCURVE",
"1711 262 OFFCURVE",
"1687 262 CURVE SMOOTH",
"1668 262 OFFCURVE",
"1537 123 OFFCURVE",
"1281 123 CURVE SMOOTH",
"1082 123 OFFCURVE",
"1070 248 OFFCURVE",
"1103 468 CURVE SMOOTH",
"1119 574 OFFCURVE",
"1177 634 OFFCURVE",
"1290 634 CURVE SMOOTH",
"1356 634 OFFCURVE",
"1451 553 OFFCURVE",
"1485 553 CURVE SMOOTH",
"1521 553 OFFCURVE",
"1550 601 OFFCURVE",
"1567 708 CURVE SMOOTH",
"1584 815 OFFCURVE",
"1571 866 OFFCURVE",
"1532 866 CURVE SMOOTH",
"1490 866 OFFCURVE",
"1382 785 OFFCURVE",
"1309 785 CURVE SMOOTH",
"1215 785 OFFCURVE",
"1157 838 OFFCURVE",
"1174 942 CURVE SMOOTH",
"1215 1201 OFFCURVE",
"1266 1270 OFFCURVE",
"1407 1270 CURVE SMOOTH",
"1682 1270 OFFCURVE",
"1735 1143 OFFCURVE",
"1770 1143 CURVE SMOOTH",
"1792 1143 OFFCURVE",
"1803 1164 OFFCURVE",
"1810 1206 CURVE SMOOTH",
"1829 1330 OFFCURVE",
"1762 1381 OFFCURVE",
"1595 1381 CURVE SMOOTH",
"1449 1381 OFFCURVE",
"1303 1380 OFFCURVE",
"1157 1380 CURVE SMOOTH",
"1036 1380 OFFCURVE",
"952 1374 OFFCURVE",
"907 1363 CURVE SMOOTH",
"861 1351 OFFCURVE",
"834 1332 OFFCURVE",
"826 1281 CURVE SMOOTH",
"822 1261 OFFCURVE",
"821 1238 OFFCURVE",
"812 1206 CURVE SMOOTH",
"798 1155 OFFCURVE",
"720 1052 OFFCURVE",
"116 221 CURVE SMOOTH",
"77 177 OFFCURVE",
"-56 93 OFFCURVE",
"-62 52 CURVE SMOOTH",
"-67 23 OFFCURVE",
"-12 8 OFFCURVE",
"101 8 CURVE SMOOTH",
"215 8 OFFCURVE",
"274 22 OFFCURVE",
"278 49 CURVE SMOOTH",
"283 78 OFFCURVE",
"249 123 OFFCURVE",
"256 166 CURVE SMOOTH",
"266 229 OFFCURVE",
"374 398 OFFCURVE",
"453 462 CURVE SMOOTH",
"509 508 OFFCURVE",
"606 531 OFFCURVE",
"742 531 CURVE SMOOTH",
"846 531 OFFCURVE",
"887 458 OFFCURVE",
"864 311 CURVE SMOOTH",
"842 171 OFFCURVE",
"775 145 OFFCURVE",
"766 92 CURVE SMOOTH",
"753 8 OFFCURVE",
"871 -1 OFFCURVE",
"1206 0 CURVE SMOOTH"
);
},
{
closed = 1;
nodes = (
"610 613 OFFCURVE",
"552 622 OFFCURVE",
"556 644 CURVE SMOOTH",
"561 679 OFFCURVE",
"942 1215 OFFCURVE",
"983 1215 CURVE SMOOTH",
"1015 1215 OFFCURVE",
"919 680 OFFCURVE",
"892 637 CURVE SMOOTH",
"882 622 OFFCURVE",
"763 616 OFFCURVE",
"724 615 CURVE SMOOTH"
);
}
);
width = 1942;
},
{
layerId = "5CBF0BAD-1756-4F16-9711-93DC239D102B";
paths = (
{
closed = 1;
nodes = (
"1696 0 OFFCURVE",
"1756 152 OFFCURVE",
"1756 214 CURVE SMOOTH",
"1756 277 OFFCURVE",
"1739 302 OFFCURVE",
"1715 302 CURVE SMOOTH",
"1681 302 OFFCURVE",
"1476 154 OFFCURVE",
"1312 154 CURVE SMOOTH",
"1193 154 OFFCURVE",
"1159 212 OFFCURVE",
"1159 379 CURVE SMOOTH",
"1159 513 OFFCURVE",
"1202 619 OFFCURVE",
"1346 619 CURVE SMOOTH",
"1440 619 OFFCURVE",
"1465 553 OFFCURVE",
"1515 553 CURVE SMOOTH",
"1587 553 OFFCURVE",
"1632 657 OFFCURVE",
"1630 730 CURVE SMOOTH",
"1630 803 OFFCURVE",
"1616 847 OFFCURVE",
"1557 847 CURVE SMOOTH",
"1536 847 OFFCURVE",
"1432 801 OFFCURVE",
"1361 801 CURVE SMOOTH",
"1301 801 OFFCURVE",
"1260 839 OFFCURVE",
"1260 907 CURVE SMOOTH",
"1260 947 OFFCURVE",
"1284 1234 OFFCURVE",
"1477 1234 CURVE SMOOTH",
"1688 1234 OFFCURVE",
"1729 1099 OFFCURVE",
"1808 1099 CURVE SMOOTH",
"1836 1099 OFFCURVE",
"1888 1183 OFFCURVE",
"1890 1231 CURVE SMOOTH",
"1896 1385 OFFCURVE",
"1816 1395 OFFCURVE",
"1658 1395 CURVE SMOOTH",
"1570 1395 OFFCURVE",
"1301 1395 OFFCURVE",
"1213 1395 CURVE SMOOTH",
"1111 1395 OFFCURVE",
"1013 1384 OFFCURVE",
"972 1374 CURVE SMOOTH",
"936 1365 OFFCURVE",
"855 1309 OFFCURVE",
"854 1274 CURVE SMOOTH",
"853 1240 OFFCURVE",
"848 1181 OFFCURVE",
"832 1152 CURVE SMOOTH",
"776 1050 OFFCURVE",
"261 283 OFFCURVE",
"160 203 CURVE SMOOTH",
"88 147 OFFCURVE",
"-31 75 OFFCURVE",
"-31 46 CURVE SMOOTH",
"-31 12 OFFCURVE",
"37 -3 OFFCURVE",
"223 -3 CURVE SMOOTH",
"325 -3 OFFCURVE",
"379 30 OFFCURVE",
"379 54 CURVE SMOOTH",
"379 101 OFFCURVE",
"362 113 OFFCURVE",
"367 189 CURVE SMOOTH",
"368 221 OFFCURVE",
"403 264 OFFCURVE",
"436 317 CURVE SMOOTH",
"485 395 OFFCURVE",
"557 511 OFFCURVE",
"742 511 CURVE SMOOTH",
"884 511 OFFCURVE",
"900 484 OFFCURVE",
"900 344 CURVE SMOOTH",
"900 231 OFFCURVE",
"781 107 OFFCURVE",
"781 73 CURVE SMOOTH",
"781 15 OFFCURVE",
"806 0 OFFCURVE",
"1536 0 CURVE SMOOTH"
);
},
{
closed = 1;
nodes = (
"726 649 OFFCURVE",
"669 657 OFFCURVE",
"670 677 CURVE SMOOTH",
"671 700 OFFCURVE",
"992 1138 OFFCURVE",
"1022 1142 CURVE SMOOTH",
"1039 1144 OFFCURVE",
"1004 954 OFFCURVE",
"961 736 CURVE SMOOTH",
"948 671 OFFCURVE",
"919 649 OFFCURVE",
"793 649 CURVE SMOOTH"
);
}
);
width = 1890;
},
{
layerId = "7C3FA927-BF0B-46CA-AD8A-59E4DBC582B9";
paths = (
{
closed = 1;
nodes = (
"653 647 OFFCURVE",
"653 654 QCURVE SMOOTH",
"653 666 OFFCURVE",
"1015 1149 OFFCURVE",
"1018 1149 QCURVE SMOOTH",
"1021 1149 LINE",
"1023 1147 LINE",
"1023 1140 LINE SMOOTH",
"1023 1048 OFFCURVE",
"948 698 QCURVE SMOOTH",
"937 647 OFFCURVE",
"898 647 QCURVE SMOOTH",
"672 647 LINE SMOOTH"
);
},
{
closed = 1;
nodes = (
"1372 1237 OFFCURVE",
"1613 1237 OFFCURVE",
"1751 1106 OFFCURVE",
"1826 1106 OFFCURVE",
"1878 1196 OFFCURVE",
"1878 1281 QCURVE SMOOTH",
"1878 1316 OFFCURVE",
"1819 1392 OFFCURVE",
"1748 1392 QCURVE SMOOTH",
"1641 1392 LINE",
"1478 1391 LINE SMOOTH",
"1128 1391 OFFCURVE",
"1040 1384 QCURVE SMOOTH",
"868 1370 OFFCURVE",
"846 1254 QCURVE",
"842 1221 LINE",
"840 1187 LINE",
"822 1147 LINE SMOOTH",
"782 1062 OFFCURVE",
"664 900 QCURVE SMOOTH",
"237 312 OFFCURVE",
"206 270 QCURVE SMOOTH",
"175 229 LINE",
"139 188 OFFCURVE",
"-38 90 OFFCURVE",
"-38 50 QCURVE SMOOTH",
"-38 1 OFFCURVE",
"99 1 QCURVE SMOOTH",
"255 1 LINE",
"306 2 LINE",
"368 10 OFFCURVE",
"368 62 QCURVE",
"361 93 LINE",
"357 126 LINE",
"356 160 LINE",
"356 207 OFFCURVE",
"392 268 QCURVE SMOOTH",
"471 401 OFFCURVE",
"616 511 OFFCURVE",
"765 511 QCURVE SMOOTH",
"830 511 OFFCURVE",
"853 497 QCURVE SMOOTH",
"890 475 OFFCURVE",
"890 280 OFFCURVE",
"845 209 QCURVE SMOOTH",
"771 92 OFFCURVE",
"771 63 QCURVE SMOOTH",
"771 21 OFFCURVE",
"871 7 QCURVE SMOOTH",
"920 0 OFFCURVE",
"1175 0 QCURVE SMOOTH",
"1338 0 LINE",
"1391 -1 LINE",
"1494 -1 LINE SMOOTH",
"1626 -1 OFFCURVE",
"1696 72 OFFCURVE",
"1745 209 OFFCURVE",
"1745 234 QCURVE SMOOTH",
"1745 308 OFFCURVE",
"1709 308 QCURVE SMOOTH",
"1691 308 OFFCURVE",
"1621 268 QCURVE SMOOTH",
"1419 154 OFFCURVE",
"1302 154 QCURVE SMOOTH",
"1216 154 OFFCURVE",
"1195 181 QCURVE SMOOTH",
"1152 239 OFFCURVE",
"1152 333 QCURVE SMOOTH",
"1152 489 OFFCURVE",
"1196 563 QCURVE SMOOTH",
"1229 619 OFFCURVE",
"1347 619 QCURVE SMOOTH",
"1391 619 OFFCURVE",
"1420 600 QCURVE",
"1452 574 LINE",
"1486 556 LINE",
"1535 556 OFFCURVE",
"1559 582 QCURVE SMOOTH",
"1617 645 OFFCURVE",
"1617 846 OFFCURVE",
"1574 846 QCURVE SMOOTH",
"1512 846 OFFCURVE",
"1395 798 OFFCURVE",
"1309 798 OFFCURVE",
"1254 860 OFFCURVE",
"1254 926 OFFCURVE",
"1306 1146 OFFCURVE",
"1328 1177 QCURVE SMOOTH"
);
}
);
width = 1872;
},
{
layerId = "BCD21CE1-B1BC-4ACC-96CF-D8EB86DFE113";
paths = (
{
closed = 1;
nodes = (
"1090 1164 OFFCURVE",
"1045 974 OFFCURVE",
"995 687 OFFCURVE",
"968 651 OFFCURVE",
"812 651 QCURVE",
"804 650 LINE",
"770 650 LINE SMOOTH",
"650 650 OFFCURVE",
"650 663 QCURVE SMOOTH",
"650 682 OFFCURVE",
"1072 1231 OFFCURVE",
"1090 1231 OFFCURVE",
"1090 1224 QCURVE SMOOTH",
"1090 1210 LINE SMOOTH"
);
},
{
closed = 1;
nodes = (
"1371 1313 OFFCURVE",
"1601 1313 OFFCURVE",
"1727 1261 QCURVE SMOOTH",
"1779 1239 OFFCURVE",
"1848 1166 OFFCURVE",
"1850 1166 QCURVE SMOOTH",
"1883 1166 OFFCURVE",
"1883 1229 QCURVE SMOOTH",
"1883 1274 LINE SMOOTH",
"1883 1349 OFFCURVE",
"1790 1404 OFFCURVE",
"1523 1404 QCURVE SMOOTH",
"1353 1403 LINE SMOOTH",
"1326 1403 OFFCURVE",
"1248 1406 QCURVE SMOOTH",
"1196 1408 LINE",
"1141 1408 LINE SMOOTH",
"1004 1408 OFFCURVE",
"975 1362 QCURVE SMOOTH",
"972 1357 OFFCURVE",
"956 1290 OFFCURVE",
"921 1167 OFFCURVE",
"864 1093 QCURVE SMOOTH",
"268 316 OFFCURVE",
"141 165 OFFCURVE",
"-20 63 OFFCURVE",
"-20 31 QCURVE SMOOTH",
"-20 4 OFFCURVE",
"289 4 OFFCURVE",
"313 9 QCURVE SMOOTH",
"356 18 OFFCURVE",
"356 48 QCURVE",
"338 74 LINE",
"314 102 LINE",
"299 132 LINE",
"299 183 OFFCURVE",
"342 249 QCURVE SMOOTH",
"450 414 OFFCURVE",
"508 469 QCURVE SMOOTH",
"602 557 OFFCURVE",
"752 557 QCURVE SMOOTH",
"840 557 OFFCURVE",
"924 516 OFFCURVE",
"924 486 QCURVE SMOOTH",
"924 375 OFFCURVE",
"880 239 OFFCURVE",
"779 82 OFFCURVE",
"779 76 QCURVE SMOOTH",
"779 39 OFFCURVE",
"925 2 OFFCURVE",
"1258 2 QCURVE SMOOTH",
"1371 2 LINE",
"1427 1 LINE SMOOTH",
"1615 1 OFFCURVE",
"1718 88 OFFCURVE",
"1772 227 OFFCURVE",
"1772 252 QCURVE SMOOTH",
"1772 259 OFFCURVE",
"1765 259 QCURVE SMOOTH",
"1764 259 OFFCURVE",
"1764 259 QCURVE SMOOTH",
"1747 259 OFFCURVE",
"1687 214 QCURVE SMOOTH",
"1602 150 OFFCURVE",
"1427 93 OFFCURVE",
"1247 93 QCURVE SMOOTH",
"1148 93 OFFCURVE",
"1081 162 OFFCURVE",
"1081 362 OFFCURVE",
"1146 579 OFFCURVE",
"1170 605 QCURVE SMOOTH",
"1224 664 OFFCURVE",
"1347 664 QCURVE SMOOTH",
"1415 664 OFFCURVE",
"1527 556 OFFCURVE",
"1551 556 QCURVE",
"1581 578 LINE",
"1637 642 OFFCURVE",
"1637 850 OFFCURVE",
"1568 850 QCURVE SMOOTH",
"1558 850 OFFCURVE",
"1498 823 QCURVE SMOOTH",
"1460 806 LINE",
"1407 787 OFFCURVE",
"1309 787 OFFCURVE",
"1216 853 OFFCURVE",
"1216 1000 OFFCURVE",
"1288 1214 OFFCURVE",
"1318 1250 QCURVE SMOOTH"
);
}
);
width = 1895;
}
);
note = uni00C6;
unicode = 00C6;
},
{
glyphname = B;
layers = (
{
layerId = "92A672BF-229C-4BEC-8D25-4DDBB2A38145";
paths = (
{
closed = 1;
nodes = (
"837 -11 OFFCURVE",
"1085 54 OFFCURVE",
"1131 345 CURVE SMOOTH",
"1178 641 OFFCURVE",
"890 718 OFFCURVE",
"892 734 CURVE SMOOTH",
"895 748 OFFCURVE",
"1125 844 OFFCURVE",
"1158 1051 CURVE",
"1199 1310 OFFCURVE",
"967 1390 OFFCURVE",
"659 1388 CURVE SMOOTH",
"270 1385 OFFCURVE",
"205 1385 OFFCURVE",
"198 1346 CURVE SMOOTH",
"191 1301 OFFCURVE",
"308 1292 OFFCURVE",
"314 1233 CURVE SMOOTH",
"321 1170 OFFCURVE",
"303 1020 OFFCURVE",
"256 725 CURVE SMOOTH",
"207 415 OFFCURVE",
"173 245 OFFCURVE",
"150 172 CURVE SMOOTH",
"128 102 OFFCURVE",
"6 64 OFFCURVE",
"1 32 CURVE SMOOTH",
"-2 9 OFFCURVE",
"211 2 OFFCURVE",
"325 0 CURVE SMOOTH"
);
},
{
closed = 1;
nodes = (
"377 86 OFFCURVE",
"359 105 OFFCURVE",
"381 248 CURVE SMOOTH",
"420 490 LINE SMOOTH",
"444 644 OFFCURVE",
"462 676 OFFCURVE",
"549 676 CURVE SMOOTH",
"839 676 OFFCURVE",
"967 593 OFFCURVE",
"932 364 CURVE SMOOTH",
"901 167 OFFCURVE",
"764 86 OFFCURVE",
"496 86 CURVE SMOOTH"
);
},
{
closed = 1;
nodes = (
"501 767 OFFCURVE",
"468 787 OFFCURVE",
"482 877 CURVE SMOOTH",
"522 1124 LINE SMOOTH",
"546 1270 OFFCURVE",
"575 1297 OFFCURVE",
"661 1297 CURVE",
"890 1297 OFFCURVE",
"997 1221 OFFCURVE",
"970 1051 CURVE SMOOTH",
"940 864 OFFCURVE",
"792 767 OFFCURVE",
"542 767 CURVE SMOOTH"
);
}
);
width = 1314;
},
{
layerId = "5CBF0BAD-1756-4F16-9711-93DC239D102B";
paths = (
{
closed = 1;
nodes = (
"1014 -9 OFFCURVE",
"1197 99 OFFCURVE",
"1247 414 CURVE SMOOTH",
"1286 660 OFFCURVE",
"1051 718 OFFCURVE",
"1054 740 CURVE SMOOTH",
"1058 770 OFFCURVE",
"1259 815 OFFCURVE",
"1297 1053 CURVE SMOOTH",
"1347 1368 OFFCURVE",
"1013 1395 OFFCURVE",
"612 1381 CURVE SMOOTH",
"290 1370 OFFCURVE",
"292 1360 OFFCURVE",
"285 1319 CURVE SMOOTH",
"268 1221 OFFCURVE",
"372 1254 OFFCURVE",
"381 1140 CURVE SMOOTH",
"384 1103 OFFCURVE",
"364 917 OFFCURVE",
"324 661 CURVE SMOOTH",
"277 362 OFFCURVE",
"235 231 OFFCURVE",
"193 179 CURVE SMOOTH",
"157 134 OFFCURVE",
"90 94 OFFCURVE",
"83 51 CURVE SMOOTH",
"75 0 OFFCURVE",
"131 -9 OFFCURVE",
"505 -9 CURVE SMOOTH"
);
},
{
closed = 1;
nodes = (
"533 133 OFFCURVE",
"492 143 OFFCURVE",
"500 195 CURVE SMOOTH",
"558 559 LINE SMOOTH",
"567 615 OFFCURVE",
"612 650 OFFCURVE",
"723 650 CURVE SMOOTH",
"920 650 OFFCURVE",
"998 540 OFFCURVE",
"976 405 CURVE SMOOTH",
"949 240 OFFCURVE",
"859 133 OFFCURVE",
"621 133 CURVE SMOOTH"
);
},
{
closed = 1;
nodes = (
"666 776 OFFCURVE",
"593 775 OFFCURVE",
"599 813 CURVE SMOOTH",
"651 1161 LINE SMOOTH",
"659 1217 OFFCURVE",
"678 1244 OFFCURVE",
"784 1244 CURVE SMOOTH",
"956 1244 OFFCURVE",
"1029 1158 OFFCURVE",
"1009 1037 CURVE SMOOTH",
"983 879 OFFCURVE",
"884 776 OFFCURVE",
"755 776 CURVE SMOOTH"
);
}
);
width = 1338;
},
{
layerId = "7C3FA927-BF0B-46CA-AD8A-59E4DBC582B9";
paths = (
{
closed = 1;
nodes = (
"553 765 OFFCURVE",
"553 796 QCURVE",
"552 801 LINE",
"552 808 LINE SMOOTH",
"552 838 OFFCURVE",
"620 1177 OFFCURVE",
"625 1186 QCURVE SMOOTH",
"647 1223 OFFCURVE",
"736 1223 QCURVE SMOOTH",
"759 1223 LINE SMOOTH",
"874 1223 OFFCURVE",
"986 1131 OFFCURVE",
"986 1057 QCURVE SMOOTH",
"986 1033 LINE SMOOTH",
"986 933 OFFCURVE",
"838 770 OFFCURVE",
"743 770 QCURVE",
"703 767 LINE",
"679 766 LINE",
"671 765 LINE",
"607 765 LINE SMOOTH"
);
},
{
closed = 1;
nodes = (
"796 631 OFFCURVE",
"941 530 OFFCURVE",
"941 429 QCURVE SMOOTH",
"941 402 LINE SMOOTH",
"941 283 OFFCURVE",
"836 187 QCURVE SMOOTH",
"763 120 OFFCURVE",
"617 120 QCURVE SMOOTH",
"580 120 LINE SMOOTH",
"443 120 OFFCURVE",
"443 162 QCURVE",
"442 169 LINE",
"442 177 LINE SMOOTH",
"442 187 OFFCURVE",
"511 578 OFFCURVE",
"516 592 QCURVE SMOOTH",
"530 631 OFFCURVE",
"609 631 QCURVE SMOOTH",
"685 631 LINE SMOOTH"
);
},
{
closed = 1;
nodes = (
"362 1100 OFFCURVE",
"322 878 OFFCURVE",
"238 356 OFFCURVE",
"192 168 OFFCURVE",
"136 126 QCURVE SMOOTH",
"44 56 OFFCURVE",
"44 40 QCURVE SMOOTH",
"44 22 LINE SMOOTH",
"44 -10 OFFCURVE",
"332 -10 QCURVE SMOOTH",
"434 -12 LINE",
"488 -12 LINE",
"514 -13 LINE",
"615 -13 LINE SMOOTH",
"870 -13 OFFCURVE",
"1190 219 OFFCURVE",
"1190 583 OFFCURVE",
"1054 672 QCURVE SMOOTH",
"990 714 OFFCURVE",
"990 726 OFFCURVE",
"1079 783 OFFCURVE",
"1090 792 QCURVE SMOOTH",
"1228 902 OFFCURVE",
"1228 1065 QCURVE SMOOTH",
"1228 1091 LINE SMOOTH",
"1228 1205 OFFCURVE",
"1024 1356 OFFCURVE",
"821 1356 QCURVE SMOOTH",
"689 1356 LINE",
"613 1355 LINE SMOOTH",
"339 1355 OFFCURVE",
"312 1348 QCURVE SMOOTH",
"255 1333 OFFCURVE",
"255 1294 QCURVE SMOOTH",
"255 1271 OFFCURVE",
"323 1220 QCURVE SMOOTH",
"362 1191 OFFCURVE",
"362 1122 QCURVE SMOOTH"
);
}
);
width = 1240;
},
{
layerId = "BCD21CE1-B1BC-4ACC-96CF-D8EB86DFE113";
paths = (
{
closed = 1;
nodes = (
"505 764 OFFCURVE",
"505 782 QCURVE SMOOTH",
"505 806 LINE SMOOTH",
"505 815 OFFCURVE",
"513 848 OFFCURVE",
"516 867 QCURVE",
"522 894 LINE",
"525 911 LINE",
"529 929 LINE",
"535 965 LINE",
"539 983 LINE",
"547 1024 LINE SMOOTH",
"550 1038 OFFCURVE",
"582 1220 OFFCURVE",
"622 1304 OFFCURVE",
"734 1304 QCURVE SMOOTH",
"753 1304 LINE SMOOTH",
"876 1304 OFFCURVE",
"1025 1190 OFFCURVE",
"1025 1090 QCURVE SMOOTH",
"1025 1062 LINE SMOOTH",
"1025 927 OFFCURVE",
"906 833 QCURVE SMOOTH",
"818 764 OFFCURVE",
"630 764 QCURVE SMOOTH",
"551 764 LINE SMOOTH"
);
},
{
closed = 1;
nodes = (
"794 684 OFFCURVE",
"967 545 OFFCURVE",
"967 431 QCURVE SMOOTH",
"967 410 LINE SMOOTH",
"967 344 OFFCURVE",
"909 215 OFFCURVE",
"865 176 QCURVE SMOOTH",
"757 82 OFFCURVE",
"617 82 QCURVE SMOOTH",
"607 82 OFFCURVE",
"585 80 QCURVE",
"500 80 LINE SMOOTH",
"374 80 OFFCURVE",
"374 127 QCURVE SMOOTH",
"374 146 LINE SMOOTH",
"374 159 OFFCURVE",
"419 384 OFFCURVE",
"450 591 OFFCURVE",
"491 684 OFFCURVE",
"580 684 QCURVE SMOOTH",
"632 684 LINE SMOOTH"
);
},
{
closed = 1;
nodes = (
"391 1146 OFFCURVE",
"314 782 QCURVE SMOOTH",
"306 743 OFFCURVE",
"202 212 OFFCURVE",
"189 174 QCURVE SMOOTH",
"167 108 OFFCURVE",
"16 46 OFFCURVE",
"16 23 QCURVE SMOOTH",
"16 -6 OFFCURVE",
"313 -6 QCURVE SMOOTH",
"443 -6 LINE",
"469 -7 LINE",
"522 -7 LINE SMOOTH",
"689 -7 OFFCURVE",
"895 38 OFFCURVE",
"972 88 QCURVE SMOOTH",
"1158 207 OFFCURVE",
"1158 414 QCURVE SMOOTH",
"1158 516 OFFCURVE",
"1070 645 OFFCURVE",
"977 700 QCURVE SMOOTH",
"959 711 LINE SMOOTH",
"941 722 OFFCURVE",
"941 729 QCURVE",
"942 731 OFFCURVE",
"1024 786 QCURVE SMOOTH",
"1210 910 OFFCURVE",
"1210 1078 QCURVE SMOOTH",
"1210 1173 OFFCURVE",
"1174 1233 QCURVE SMOOTH",
"1080 1390 OFFCURVE",
"764 1390 QCURVE SMOOTH",
"608 1390 LINE SMOOTH",
"390 1390 OFFCURVE",
"279 1376 OFFCURVE",
"279 1345 QCURVE SMOOTH",
"279 1337 OFFCURVE",
"351 1302 QCURVE SMOOTH",
"391 1283 OFFCURVE",
"391 1248 QCURVE SMOOTH"
);
}
);
width = 1262;
}
);
unicode = 0042;
},
{
glyphname = C;
layers = (
{
layerId = "92A672BF-229C-4BEC-8D25-4DDBB2A38145";
paths = (
{
closed = 1;
nodes = (
"781 -15 OFFCURVE",
"985 29 OFFCURVE",
"1069 77 CURVE SMOOTH",
"1099 94 OFFCURVE",
"1184 219 OFFCURVE",
"1192 269 CURVE SMOOTH",
"1196 294 OFFCURVE",
"1202 313 OFFCURVE",
"1162 314 CURVE SMOOTH",
"1108 315 OFFCURVE",
"936 100 OFFCURVE",
"715 100 CURVE SMOOTH",
"381 100 OFFCURVE",
"280 357 OFFCURVE",
"339 731 CURVE SMOOTH",
"389 1048 OFFCURVE",
"581 1296 OFFCURVE",
"872 1296 CURVE SMOOTH",
"1152 1296 OFFCURVE",
"1186 1040 OFFCURVE",
"1236 1040 CURVE SMOOTH",
"1275 1040 OFFCURVE",
"1300 1078 OFFCURVE",
"1312 1153 CURVE SMOOTH",
"1328 1258 OFFCURVE",
"1329 1336 OFFCURVE",
"1294 1342 CURVE SMOOTH",
"1207 1357 OFFCURVE",
"954 1404 OFFCURVE",
"872 1404 CURVE SMOOTH",
"476 1404 OFFCURVE",
"169 1095 OFFCURVE",
"103 678 CURVE SMOOTH",
"40 279 OFFCURVE",
"237 -12 OFFCURVE",
"618 -15 CURVE SMOOTH"
);
}
);
width = 1361;
},
{
layerId = "5CBF0BAD-1756-4F16-9711-93DC239D102B";
paths = (
{
closed = 1;
nodes = (
"838 -23 OFFCURVE",
"948 -2 OFFCURVE",
"1045 40 CURVE SMOOTH",
"1138 80 OFFCURVE",
"1239 181 OFFCURVE",
"1252 264 CURVE SMOOTH",
"1257 295 OFFCURVE",
"1242 310 OFFCURVE",
"1210 310 CURVE SMOOTH",
"1175 310 OFFCURVE",
"927 143 OFFCURVE",
"791 143 CURVE SMOOTH",
"511 143 OFFCURVE",
"392 389 OFFCURVE",
"439 684 CURVE SMOOTH",
"487 984 OFFCURVE",
"635 1247 OFFCURVE",
"891 1247 CURVE SMOOTH",
"1073 1247 OFFCURVE",
"1242 1030 OFFCURVE",
"1296 1030 CURVE SMOOTH",
"1335 1030 OFFCURVE",
"1360 1064 OFFCURVE",
"1371 1131 CURVE SMOOTH",
"1390 1246 OFFCURVE",
"1378 1317 OFFCURVE",
"1337 1343 CURVE SMOOTH",
"1275 1382 OFFCURVE",
"1140 1403 OFFCURVE",
"929 1403 CURVE SMOOTH",
"541 1403 OFFCURVE",
"198 1102 OFFCURVE",
"137 717 CURVE SMOOTH",
"64 254 OFFCURVE",
"271 -23 OFFCURVE",
"715 -23 CURVE SMOOTH"
);
}
);
width = 1363;
},
{
layerId = "7C3FA927-BF0B-46CA-AD8A-59E4DBC582B9";
paths = (
{
closed = 1;
nodes = (
"744 1372 OFFCURVE",
"609 1314 QCURVE SMOOTH",
"305 1183 OFFCURVE",
"176 867 QCURVE SMOOTH",
"114 715 OFFCURVE",
"114 552 QCURVE SMOOTH",
"114 520 LINE SMOOTH",
"114 405 OFFCURVE",
"205 195 OFFCURVE",
"282 123 QCURVE SMOOTH",
"439 -22 OFFCURVE",
"913 -22 OFFCURVE",
"1036 52 QCURVE SMOOTH",
"1084 81 OFFCURVE",
"1175 209 OFFCURVE",
"1175 292 OFFCURVE",
"1142 292 QCURVE SMOOTH",
"1115 292 OFFCURVE",
"1049 244 QCURVE SMOOTH",
"897 134 OFFCURVE",
"561 134 OFFCURVE",
"371 362 OFFCURVE",
"371 545 QCURVE SMOOTH",
"371 682 OFFCURVE",
"450 935 OFFCURVE",
"521 1029 QCURVE SMOOTH",
"673 1228 OFFCURVE",
"879 1228 QCURVE SMOOTH",
"982 1228 OFFCURVE",
"1060 1176 QCURVE SMOOTH",
"1093 1154 OFFCURVE",
"1226 998 OFFCURVE",
"1239 998 QCURVE SMOOTH",
"1278 998 OFFCURVE",
"1333 1102 OFFCURVE",
"1333 1187 QCURVE SMOOTH",
"1333 1217 LINE SMOOTH",
"1333 1289 OFFCURVE",
"1300 1311 QCURVE SMOOTH",
"1246 1346 OFFCURVE",
"1103 1346 OFFCURVE",
"944 1372 OFFCURVE",
"887 1372 QCURVE SMOOTH"
);
}
);
width = 1281;
},
{
layerId = "BCD21CE1-B1BC-4ACC-96CF-D8EB86DFE113";
paths = (
{
closed = 1;
nodes = (
"771 1402 OFFCURVE",
"474 1270 OFFCURVE",
"368 1153 QCURVE SMOOTH",
"132 891 OFFCURVE",
"132 535 QCURVE SMOOTH",
"132 298 OFFCURVE",
"435 -18 OFFCURVE",
"670 -18 QCURVE SMOOTH",
"704 -18 LINE SMOOTH",
"761 -18 OFFCURVE",
"1025 36 OFFCURVE",
"1099 74 OFFCURVE",
"1197 240 OFFCURVE",
"1197 315 OFFCURVE",
"1162 315 QCURVE SMOOTH",
"1151 315 OFFCURVE",
"1071 248 QCURVE SMOOTH",
"886 93 OFFCURVE",
"728 93 QCURVE SMOOTH",
"543 93 OFFCURVE",
"332 339 OFFCURVE",
"332 570 QCURVE SMOOTH",
"332 691 OFFCURVE",
"418 966 OFFCURVE",
"575 1174 OFFCURVE",
"659 1227 QCURVE SMOOTH",
"787 1308 OFFCURVE",
"907 1308 QCURVE SMOOTH",
"1135 1308 OFFCURVE",
"1224 1112 QCURVE SMOOTH",
"1263 1026 OFFCURVE",
"1294 1026 QCURVE",
"1310 1036 LINE",
"1351 1081 OFFCURVE",
"1351 1231 QCURVE SMOOTH",
"1351 1316 OFFCURVE",
"1320 1332 QCURVE SMOOTH",
"1309 1338 OFFCURVE",
"1200 1356 OFFCURVE",
"996 1402 OFFCURVE",
"932 1402 QCURVE SMOOTH"
);
}
);
width = 1323;
}
);
unicode = 0043;
},
{
glyphname = Ccedilla;
layers = (
{
layerId = "92A672BF-229C-4BEC-8D25-4DDBB2A38145";
paths = (
{
closed = 1;
nodes = (
"683 -446 OFFCURVE",
"818 -367 OFFCURVE",
"833 -278 CURVE SMOOTH",
"847 -197 OFFCURVE",
"813 -170 OFFCURVE",
"775 -129 CURVE SMOOTH",
"758 -109 OFFCURVE",
"740 -85 OFFCURVE",
"727 -50 CURVE",
"911 -48 OFFCURVE",
"1206 59 OFFCURVE",
"1233 226 CURVE SMOOTH",
"1238 262 OFFCURVE",
"1230 272 OFFCURVE",
"1209 272 CURVE SMOOTH",
"1177 272 OFFCURVE",
"954 88 OFFCURVE",
"654 88 CURVE SMOOTH",
"374 88 OFFCURVE",
"324 322 OFFCURVE",
"371 622 CURVE SMOOTH",
"428 977 OFFCURVE",
"598 1187 OFFCURVE",
"832 1187 CURVE SMOOTH",
"1094 1187 OFFCURVE",
"1183 965 OFFCURVE",
"1275 965 CURVE SMOOTH",
"1312 965 OFFCURVE",
"1336 1003 OFFCURVE",
"1348 1079 CURVE SMOOTH",
"1360 1155 OFFCURVE",
"1342 1201 OFFCURVE",
"1299 1222 CURVE SMOOTH",
"1291 1226 OFFCURVE",
"1254 1231 OFFCURVE",
"1186 1238 CURVE SMOOTH",
"1132 1244 OFFCURVE",
"985 1306 OFFCURVE",
"826 1306 CURVE SMOOTH",
"475 1306 OFFCURVE",
"235 995 OFFCURVE",
"177 623 CURVE SMOOTH",
"119 258 OFFCURVE",
"273 -46 OFFCURVE",
"633 -46 CURVE",
"612 -73 OFFCURVE",
"601 -91 OFFCURVE",
"598 -114 CURVE SMOOTH",
"594 -137 OFFCURVE",
"673 -194 OFFCURVE",
"665 -248 CURVE SMOOTH",
"653 -322 OFFCURVE",
"592 -345 OFFCURVE",
"521 -345 CURVE SMOOTH",
"494 -345 OFFCURVE",
"477 -368 OFFCURVE",
"469 -414 CURVE SMOOTH",
"466 -436 OFFCURVE",
"479 -446 OFFCURVE",
"540 -446 CURVE SMOOTH"
);
}
);
width = 1456;
},
{
layerId = "5CBF0BAD-1756-4F16-9711-93DC239D102B";
paths = (
{
closed = 1;
nodes = (
"660 -456 OFFCURVE",
"764 -382 OFFCURVE",
"785 -241 CURVE SMOOTH",
"795 -174 OFFCURVE",
"765 -129 OFFCURVE",
"693 -104 CURVE SMOOTH",
"661 -93 OFFCURVE",
"647 -81 OFFCURVE",
"651 -34 CURVE",
"1043 -34 OFFCURVE",
"1265 93 OFFCURVE",
"1298 283 CURVE SMOOTH",
"1302 306 OFFCURVE",
"1292 318 OFFCURVE",
"1269 318 CURVE SMOOTH",
"1143 318 OFFCURVE",
"967 139 OFFCURVE",
"810 139 CURVE SMOOTH",
"542 139 OFFCURVE",
"356 380 OFFCURVE",
"407 700 CURVE SMOOTH",
"458 1020 OFFCURVE",
"692 1231 OFFCURVE",
"882 1231 CURVE SMOOTH",
"1072 1231 OFFCURVE",
"1253 1024 OFFCURVE",
"1367 1024 CURVE SMOOTH",
"1400 1024 OFFCURVE",
"1422 1070 OFFCURVE",
"1431 1127 CURVE SMOOTH",
"1443 1201 OFFCURVE",
"1432 1293 OFFCURVE",
"1391 1320 CURVE SMOOTH",
"1374 1331 OFFCURVE",
"1331 1346 OFFCURVE",
"1265 1361 CURVE SMOOTH",
"1171 1382 OFFCURVE",
"1034 1399 OFFCURVE",
"869 1399 CURVE SMOOTH",
"491 1399 OFFCURVE",
"154 1083 OFFCURVE",
"92 690 CURVE SMOOTH",
"28 282 OFFCURVE",
"171 2 OFFCURVE",
"562 -31 CURVE",
"537 -46 OFFCURVE",
"520 -82 OFFCURVE",
"512 -137 CURVE SMOOTH",
"504 -189 OFFCURVE",
"612 -190 OFFCURVE",
"602 -256 CURVE SMOOTH",
"592 -319 OFFCURVE",
"537 -337 OFFCURVE",
"426 -340 CURVE SMOOTH",
"393 -341 OFFCURVE",
"374 -359 OFFCURVE",
"368 -396 CURVE SMOOTH",
"361 -437 OFFCURVE",
"387 -456 OFFCURVE",
"478 -456 CURVE SMOOTH"
);
}
);
width = 1456;
},
{
layerId = "7C3FA927-BF0B-46CA-AD8A-59E4DBC582B9";
paths = (
{
closed = 1;
nodes = (
"51 275 OFFCURVE",
"227 117 QCURVE SMOOTH",
"402 -40 OFFCURVE",
"675 -40 QCURVE SMOOTH",
"711 -40 LINE SMOOTH",
"931 -40 OFFCURVE",
"1083 40 QCURVE SMOOTH",
"1120 60 OFFCURVE",
"1222 271 OFFCURVE",
"1222 327 OFFCURVE",
"1195 327 OFFCURVE",
"1056 201 OFFCURVE",
"1010 182 QCURVE SMOOTH",
"836 111 OFFCURVE",
"637 111 OFFCURVE",
"508 150 OFFCURVE",
"450 210 QCURVE SMOOTH",
"326 336 OFFCURVE",
"326 565 QCURVE SMOOTH",
"326 691 OFFCURVE",
"409 947 OFFCURVE",
"557 1138 OFFCURVE",
"754 1247 OFFCURVE",
"846 1247 QCURVE SMOOTH",
"1148 1247 OFFCURVE",
"1256 1091 QCURVE SMOOTH",
"1304 1021 OFFCURVE",
"1315 1021 QCURVE SMOOTH",
"1381 1021 OFFCURVE",
"1381 1102 QCURVE SMOOTH",
"1381 1135 LINE SMOOTH",
"1381 1245 OFFCURVE",
"1336 1298 OFFCURVE",
"1260 1339 OFFCURVE",
"1203 1349 OFFCURVE",
"1011 1399 OFFCURVE",
"735 1399 OFFCURVE",
"420 1274 OFFCURVE",
"180 1034 OFFCURVE",
"51 716 OFFCURVE",
"51 569 QCURVE SMOOTH",
"51 534 LINE SMOOTH"
);
},
{
closed = 1;
nodes = (
"556 -411 OFFCURVE",
"701 -293 OFFCURVE",
"701 -213 QCURVE",
"702 -206 LINE",
"702 -148 OFFCURVE",
"665 -122 QCURVE SMOOTH",
"603 -79 OFFCURVE",
"603 -73 QCURVE SMOOTH",
"603 -39 OFFCURVE",
"568 -39 QCURVE SMOOTH",
"544 -39 LINE SMOOTH",
"525 -39 OFFCURVE",
"467 -117 OFFCURVE",
"467 -169 OFFCURVE",
"531 -201 OFFCURVE",
"531 -263 OFFCURVE",
"470 -318 OFFCURVE",
"424 -318 QCURVE SMOOTH",
"367 -318 OFFCURVE",
"367 -375 QCURVE SMOOTH",
"367 -380 LINE SMOOTH",
"367 -411 OFFCURVE",
"435 -411 QCURVE SMOOTH",
"463 -411 LINE SMOOTH"
);
}
);
width = 1369;
},
{
layerId = "BCD21CE1-B1BC-4ACC-96CF-D8EB86DFE113";
paths = (
{
closed = 1;
nodes = (
"92 433 OFFCURVE",
"136 320 QCURVE SMOOTH",
"222 103 OFFCURVE",
"448 8 QCURVE SMOOTH",
"553 -37 OFFCURVE",
"663 -37 QCURVE SMOOTH",
"666 -37 OFFCURVE",
"668 -37 QCURVE SMOOTH",
"737 -37 LINE SMOOTH",
"950 -37 OFFCURVE",
"1113 47 QCURVE SMOOTH",
"1147 65 OFFCURVE",
"1254 255 OFFCURVE",
"1254 323 OFFCURVE",
"1220 309 QCURVE SMOOTH",
"1213 306 OFFCURVE",
"1174 268 QCURVE SMOOTH",
"1152 247 LINE",
"1103 208 LINE",
"1018 135 OFFCURVE",
"967 113 QCURVE SMOOTH",
"864 69 OFFCURVE",
"754 69 QCURVE SMOOTH",
"546 69 OFFCURVE",
"424 195 QCURVE SMOOTH",
"283 340 OFFCURVE",
"283 575 QCURVE SMOOTH",
"283 892 OFFCURVE",
"625 1311 OFFCURVE",
"900 1311 QCURVE SMOOTH",
"1035 1311 OFFCURVE",
"1241 1187 OFFCURVE",
"1275 1141 QCURVE SMOOTH",
"1345 1046 OFFCURVE",
"1350 1046 QCURVE SMOOTH",
"1401 1046 OFFCURVE",
"1401 1138 QCURVE SMOOTH",
"1401 1160 OFFCURVE",
"1341 1316 OFFCURVE",
"1319 1330 OFFCURVE",
"1047 1413 OFFCURVE",
"940 1413 QCURVE SMOOTH",
"906 1413 LINE SMOOTH",
"751 1413 OFFCURVE",
"603 1355 QCURVE SMOOTH",
"292 1233 OFFCURVE",
"159 912 QCURVE SMOOTH",
"92 750 OFFCURVE",
"92 597 QCURVE SMOOTH",
"92 561 LINE SMOOTH"
);
},
{
closed = 1;
nodes = (
"786 -170 OFFCURVE",
"703 -87 OFFCURVE",
"703 -77 QCURVE SMOOTH",
"703 -48 OFFCURVE",
"687 -48 QCURVE SMOOTH",
"671 -48 LINE",
"661 -50 LINE",
"647 -50 OFFCURVE",
"592 -129 OFFCURVE",
"592 -150 QCURVE",
"626 -190 LINE SMOOTH",
"650 -218 OFFCURVE",
"650 -237 QCURVE SMOOTH",
"650 -300 OFFCURVE",
"588 -334 QCURVE SMOOTH",
"504 -381 OFFCURVE",
"504 -398 QCURVE SMOOTH",
"504 -407 LINE SMOOTH",
"504 -419 OFFCURVE",
"537 -419 QCURVE SMOOTH",
"554 -419 LINE SMOOTH",
"649 -419 OFFCURVE",
"786 -297 OFFCURVE",
"786 -229 QCURVE SMOOTH",
"786 -211 LINE SMOOTH"
);
}
);
width = 1381;
}
);
note = uni00C7;
unicode = 00C7;
},
{
glyphname = D;
layers = (
{
layerId = "92A672BF-229C-4BEC-8D25-4DDBB2A38145";
paths = (
{
closed = 1;
nodes = (
"989 -5 OFFCURVE",
"1321 274 OFFCURVE",
"1389 703 CURVE SMOOTH",
"1456 1122 OFFCURVE",
"1245 1395 OFFCURVE",
"833 1395 CURVE SMOOTH",
"282 1382 OFFCURVE",
"219 1379 OFFCURVE",
"212 1335 CURVE SMOOTH",
"207 1303 OFFCURVE",
"290 1295 OFFCURVE",
"317 1269 CURVE SMOOTH",
"362 1227 OFFCURVE",
"308 914 OFFCURVE",
"267 656 CURVE SMOOTH",
"220 359 OFFCURVE",
"189 195 OFFCURVE",
"175 162 CURVE SMOOTH",
"146 97 OFFCURVE",
"22 83 OFFCURVE",
"14 31 CURVE SMOOTH",
"9 -2 OFFCURVE",
"100 9 OFFCURVE",
"554 -5 CURVE SMOOTH"
);
},
{
closed = 1;
nodes = (
"368 95 OFFCURVE",
"370 122 OFFCURVE",
"394 273 CURVE SMOOTH",
"507 968 LINE SMOOTH",
"549 1231 OFFCURVE",
"519 1302 OFFCURVE",
"693 1302 CURVE SMOOTH",
"1087 1302 OFFCURVE",
"1218 1102 OFFCURVE",
"1146 642 CURVE SMOOTH",
"1091 299 OFFCURVE",
"873 96 OFFCURVE",
"523 95 CURVE SMOOTH"
);
}
);
width = 1513;
},
{
layerId = "5CBF0BAD-1756-4F16-9711-93DC239D102B";
paths = (
{
closed = 1;
nodes = (
"988 0 OFFCURVE",
"1357 117 OFFCURVE",
"1449 704 CURVE SMOOTH",
"1508 1079 OFFCURVE",
"1379 1392 OFFCURVE",
"786 1392 CURVE SMOOTH",
"557 1392 OFFCURVE",
"275 1403 OFFCURVE",
"262 1322 CURVE SMOOTH",
"251 1255 OFFCURVE",
"353 1249 OFFCURVE",
"369 1189 CURVE SMOOTH",
"382 1139 OFFCURVE",
"374 1094 OFFCURVE",
"307 700 CURVE SMOOTH",
"273 501 OFFCURVE",
"232 258 OFFCURVE",
"217 221 CURVE SMOOTH",
"190 153 OFFCURVE",
"51 103 OFFCURVE",
"44 56 CURVE SMOOTH",
"37 6 OFFCURVE",
"81 -3 OFFCURVE",
"428 -2 CURVE SMOOTH"
);
},
{
closed = 1;
nodes = (
"494 135 OFFCURVE",
"484 161 OFFCURVE",
"502 273 CURVE SMOOTH",
"637 1093 LINE SMOOTH",
"655 1204 OFFCURVE",
"691 1250 OFFCURVE",
"807 1249 CURVE SMOOTH",
"1118 1246 OFFCURVE",
"1204 994 OFFCURVE",
"1150 650 CURVE SMOOTH",
"1099 327 OFFCURVE",
"901 135 OFFCURVE",
"608 135 CURVE SMOOTH"
);
}
);
width = 1499;
},
{
layerId = "7C3FA927-BF0B-46CA-AD8A-59E4DBC582B9";
paths = (
{
closed = 1;
nodes = (
"477 125 OFFCURVE",
"424 144 OFFCURVE",
"424 181 QCURVE",
"445 314 LINE",
"476 490 LINE",
"482 516 OFFCURVE",
"529 806 QCURVE SMOOTH",
"577 1096 OFFCURVE",
"610 1206 OFFCURVE",
"648 1218 QCURVE SMOOTH",
"667 1224 OFFCURVE",
"723 1224 QCURVE SMOOTH",
"739 1224 LINE SMOOTH",
"940 1224 OFFCURVE",
"1133 1020 OFFCURVE",
"1133 836 QCURVE",
"1134 821 LINE",
"1134 682 OFFCURVE",
"1089 542 QCURVE SMOOTH",
"1006 282 OFFCURVE",
"802 176 QCURVE SMOOTH",
"705 125 OFFCURVE",
"600 125 QCURVE SMOOTH",
"598 125 OFFCURVE",
"596 125 QCURVE SMOOTH",
"548 125 LINE SMOOTH"
);
},
{
closed = 1;
nodes = (
"232 1266 OFFCURVE",
"306 1218 QCURVE SMOOTH",
"345 1193 OFFCURVE",
"345 1116 OFFCURVE",
"294 836 OFFCURVE",
"204 300 OFFCURVE",
"162 153 OFFCURVE",
"110 120 QCURVE SMOOTH",
"21 64 OFFCURVE",
"21 39 QCURVE SMOOTH",
"21 -2 OFFCURVE",
"66 -7 QCURVE SMOOTH",
"74 -8 OFFCURVE",
"311 -8 QCURVE SMOOTH",
"361 -8 LINE",
"410 -9 LINE",
"461 -9 LINE",
"487 -10 LINE",
"511 -10 LINE SMOOTH",
"704 -10 OFFCURVE",
"829 30 QCURVE SMOOTH",
"1157 134 OFFCURVE",
"1310 455 QCURVE SMOOTH",
"1390 622 OFFCURVE",
"1390 793 QCURVE SMOOTH",
"1390 843 LINE SMOOTH",
"1390 956 OFFCURVE",
"1347 1058 QCURVE SMOOTH",
"1223 1358 OFFCURVE",
"777 1358 QCURVE SMOOTH",
"701 1358 LINE",
"552 1355 LINE SMOOTH",
"303 1355 OFFCURVE",
"283 1349 QCURVE SMOOTH",
"232 1333 OFFCURVE",
"232 1295 QCURVE SMOOTH"
);
}
);
width = 1398;
},
{
layerId = "BCD21CE1-B1BC-4ACC-96CF-D8EB86DFE113";
paths = (
{
closed = 1;
nodes = (
"903 1305 OFFCURVE",
"992 1269 QCURVE SMOOTH",
"1139 1210 OFFCURVE",
"1204 1050 QCURVE SMOOTH",
"1238 966 OFFCURVE",
"1239 880 QCURVE SMOOTH",
"1239 862 OFFCURVE",
"1241 828 QCURVE",
"1241 810 LINE SMOOTH",
"1241 683 OFFCURVE",
"1147 401 OFFCURVE",
"1055 297 QCURVE SMOOTH",
"867 85 OFFCURVE",
"590 85 QCURVE SMOOTH",
"520 85 LINE SMOOTH",
"445 85 OFFCURVE",
"392 105 OFFCURVE",
"392 187 OFFCURVE",
"607 1233 OFFCURVE",
"608 1235 QCURVE",
"632 1305 OFFCURVE",
"769 1305 QCURVE SMOOTH",
"804 1305 LINE SMOOTH"
);
},
{
closed = 1;
nodes = (
"279 1312 OFFCURVE",
"343 1285 QCURVE SMOOTH",
"383 1268 OFFCURVE",
"383 1228 QCURVE SMOOTH",
"383 1029 OFFCURVE",
"350 846 QCURVE SMOOTH",
"271 405 OFFCURVE",
"205 157 OFFCURVE",
"158 106 OFFCURVE",
"49 55 OFFCURVE",
"49 25 QCURVE SMOOTH",
"49 2 OFFCURVE",
"103 2 QCURVE SMOOTH",
"168 2 LINE",
"192 0 LINE",
"218 -1 LINE",
"322 -3 LINE",
"424 -3 LINE",
"450 -4 LINE",
"477 -4 LINE SMOOTH",
"709 -4 OFFCURVE",
"1025 80 OFFCURVE",
"1294 308 OFFCURVE",
"1440 643 OFFCURVE",
"1440 812 QCURVE SMOOTH",
"1440 838 LINE SMOOTH",
"1440 955 OFFCURVE",
"1395 1066 QCURVE SMOOTH",
"1264 1394 OFFCURVE",
"279 1394 OFFCURVE",
"279 1324 QCURVE SMOOTH"
);
}
);
width = 1475;
}
);
unicode = 0044;
},
{
glyphname = Eth;
layers = (
{
layerId = "92A672BF-229C-4BEC-8D25-4DDBB2A38145";
paths = (
{
closed = 1;
nodes = (
"992 -4 OFFCURVE",
"1323 250 OFFCURVE",
"1396 713 CURVE SMOOTH",
"1466 1150 OFFCURVE",
"1223 1386 OFFCURVE",
"765 1386 CURVE SMOOTH",
"612 1384 OFFCURVE",
"567 1383 OFFCURVE",
"335 1376 CURVE SMOOTH",
"261 1376 OFFCURVE",
"223 1365 OFFCURVE",
"219 1342 CURVE SMOOTH",
"214 1308 OFFCURVE",
"330 1238 OFFCURVE",
"333 1221 CURVE SMOOTH",
"340 1186 OFFCURVE",
"335 1114 OFFCURVE",
"317 1003 CURVE SMOOTH",
"296 849 OFFCURVE",
"290 796 OFFCURVE",
"268 780 CURVE SMOOTH",
"262 776 OFFCURVE",
"233 770 OFFCURVE",
"176 762 CURVE SMOOTH",
"137 757 OFFCURVE",
"116 739 OFFCURVE",
"111 709 CURVE SMOOTH",
"106 678 OFFCURVE",
"125 660 OFFCURVE",
"167 655 CURVE SMOOTH",
"209 649 OFFCURVE",
"236 642 OFFCURVE",
"246 633 CURVE SMOOTH",
"255 624 OFFCURVE",
"250 561 OFFCURVE",
"231 444 CURVE SMOOTH",
"199 264 OFFCURVE",
"183 194 OFFCURVE",
"167 163 CURVE SMOOTH",
"134 100 OFFCURVE",
"19 92 OFFCURVE",
"10 35 CURVE SMOOTH",
"3 -11 OFFCURVE",
"210 1 OFFCURVE",
"552 -4 CURVE SMOOTH"
);
},
{
closed = 1;
nodes = (
"400 84 OFFCURVE",
"378 110 OFFCURVE",
"399 245 CURVE SMOOTH",
"420 378 OFFCURVE",
"440 472 OFFCURVE",
"470 535 CURVE SMOOTH",
"485 566 OFFCURVE",
"503 591 OFFCURVE",
"525 608 CURVE SMOOTH",
"554 632 OFFCURVE",
"591 643 OFFCURVE",
"640 645 CURVE SMOOTH",
"726 648 OFFCURVE",
"772 667 OFFCURVE",
"776 692 CURVE SMOOTH",
"781 724 OFFCURVE",
"769 740 OFFCURVE",
"747 748 CURVE SMOOTH",
"681 773 OFFCURVE",
"524 739 OFFCURVE",
"506 806 CURVE SMOOTH",
"501 826 OFFCURVE",
"511 919 OFFCURVE",
"526 1017 CURVE SMOOTH",
"542 1123 OFFCURVE",
"565 1234 OFFCURVE",
"580 1260 CURVE SMOOTH",
"594 1283 OFFCURVE",
"627 1295 OFFCURVE",
"681 1295 CURVE SMOOTH",
"1051 1295 OFFCURVE",
"1205 1099 OFFCURVE",
"1143 712 CURVE SMOOTH",
"1075 281 OFFCURVE",
"875 84 OFFCURVE",
"511 84 CURVE SMOOTH"
);
}
);
width = 1526;
},
{
layerId = "5CBF0BAD-1756-4F16-9711-93DC239D102B";
paths = (
{
closed = 1;
nodes = (
"1018 -15 OFFCURVE",
"1378 243 OFFCURVE",
"1445 670 CURVE SMOOTH",
"1508 1069 OFFCURVE",
"1256 1395 OFFCURVE",
"863 1395 CURVE SMOOTH",
"646 1395 OFFCURVE",
"494 1378 OFFCURVE",
"310 1370 CURVE SMOOTH",
"265 1368 OFFCURVE",
"239 1352 OFFCURVE",
"234 1330 CURVE SMOOTH",
"224 1288 OFFCURVE",
"346 1230 OFFCURVE",
"352 1217 CURVE SMOOTH",
"369 1180 OFFCURVE",
"369 1072 OFFCURVE",
"357 987 CURVE SMOOTH",
"350 938 OFFCURVE",
"352 939 OFFCURVE",
"346 890 CURVE SMOOTH",
"341 851 OFFCURVE",
"312 826 OFFCURVE",
"264 816 CURVE SMOOTH",
"215 806 OFFCURVE",
"186 776 OFFCURVE",
"179 727 CURVE SMOOTH",
"174 694 OFFCURVE",
"196 671 OFFCURVE",
"246 657 CURVE SMOOTH",
"286 646 OFFCURVE",
"303 618 OFFCURVE",
"288 523 CURVE SMOOTH",
"280 470 OFFCURVE",
"272 425 OFFCURVE",
"264 385 CURVE SMOOTH",
"248 303 OFFCURVE",
"235 249 OFFCURVE",
"222 225 CURVE SMOOTH",
"183 153 OFFCURVE",
"56 103 OFFCURVE",
"49 61 CURVE SMOOTH",
"33 -38 OFFCURVE",
"210 -6 OFFCURVE",
"577 -10 CURVE SMOOTH"
);
},
{
closed = 1;
nodes = (
"473 118 OFFCURVE",
"443 145 OFFCURVE",
"452 199 CURVE SMOOTH",
"465 280 OFFCURVE",
"478 362 OFFCURVE",
"490 443 CURVE SMOOTH",
"499 503 OFFCURVE",
"527 596 OFFCURVE",
"555 619 CURVE SMOOTH",
"596 652 OFFCURVE",
"670 637 OFFCURVE",
"729 644 CURVE SMOOTH",
"769 649 OFFCURVE",
"800 663 OFFCURVE",
"807 709 CURVE SMOOTH",
"815 760 OFFCURVE",
"792 786 OFFCURVE",
"737 786 CURVE SMOOTH",
"642 786 OFFCURVE",
"594 780 OFFCURVE",
"574 804 CURVE SMOOTH",
"554 829 OFFCURVE",
"566 887 OFFCURVE",
"579 969 CURVE SMOOTH",
"588 1025 OFFCURVE",
"595 1129 OFFCURVE",
"604 1185 CURVE SMOOTH",
"611 1231 OFFCURVE",
"642 1254 OFFCURVE",
"695 1254 CURVE SMOOTH",
"1051 1254 OFFCURVE",
"1200 1031 OFFCURVE",
"1158 764 CURVE SMOOTH",
"1094 355 OFFCURVE",
"926 118 OFFCURVE",
"542 118 CURVE SMOOTH"
);
}
);
width = 1492;
},
{
layerId = "7C3FA927-BF0B-46CA-AD8A-59E4DBC582B9";
paths = (
{
closed = 1;
nodes = (
"764 1262 LINE SMOOTH",
"1033 1262 OFFCURVE",
"1114 1032 QCURVE SMOOTH",
"1143 951 OFFCURVE",
"1143 860 QCURVE SMOOTH",
"1143 857 OFFCURVE",
"1143 854 QCURVE SMOOTH",
"1143 836 LINE SMOOTH",
"1143 700 OFFCURVE",
"1103 573 QCURVE SMOOTH",
"1018 300 OFFCURVE",
"806 187 QCURVE SMOOTH",
"704 133 OFFCURVE",
"596 133 QCURVE SMOOTH",
"537 133 LINE SMOOTH",
"434 133 OFFCURVE",
"434 179 QCURVE SMOOTH",
"434 201 OFFCURVE",
"495 568 OFFCURVE",
"503 587 QCURVE SMOOTH",
"520 629 OFFCURVE",
"762 629 OFFCURVE",
"811 669 OFFCURVE",
"811 740 QCURVE SMOOTH",
"811 775 OFFCURVE",
"580 775 OFFCURVE",
"545 801 OFFCURVE",
"545 846 QCURVE SMOOTH",
"545 1025 OFFCURVE",
"606 1183 QCURVE SMOOTH",
"637 1262 OFFCURVE",
"707 1262 QCURVE SMOOTH"
);
},
{
closed = 1;
nodes = (
"678 1397 LINE",
"438 1392 LINE SMOOTH",
"304 1392 OFFCURVE",
"282 1386 QCURVE SMOOTH",
"234 1373 OFFCURVE",
"234 1290 OFFCURVE",
"301 1259 QCURVE SMOOTH",
"340 1241 OFFCURVE",
"340 1159 OFFCURVE",
"285 840 OFFCURVE",
"253 782 OFFCURVE",
"147 767 OFFCURVE",
"136 756 QCURVE SMOOTH",
"106 726 OFFCURVE",
"106 669 QCURVE SMOOTH",
"106 641 OFFCURVE",
"216 622 OFFCURVE",
"217 621 QCURVE",
"233 610 OFFCURVE",
"233 567 QCURVE SMOOTH",
"233 355 OFFCURVE",
"163 184 QCURVE SMOOTH",
"153 159 OFFCURVE",
"18 78 OFFCURVE",
"18 48 QCURVE SMOOTH",
"18 -1 OFFCURVE",
"93 -1 QCURVE SMOOTH",
"196 1 LINE",
"308 1 LINE",
"388 0 LINE",
"414 -1 LINE",
"549 -1 LINE SMOOTH",
"737 -1 OFFCURVE",
"887 56 QCURVE SMOOTH",
"1216 181 OFFCURVE",
"1350 509 QCURVE SMOOTH",
"1415 668 OFFCURVE",
"1415 817 QCURVE SMOOTH",
"1415 872 LINE SMOOTH",
"1415 991 OFFCURVE",
"1363 1102 QCURVE SMOOTH",
"1275 1290 OFFCURVE",
"1053 1361 QCURVE SMOOTH",
"940 1397 OFFCURVE",
"815 1397 QCURVE SMOOTH"
);
}
);
width = 1429;
},
{
layerId = "BCD21CE1-B1BC-4ACC-96CF-D8EB86DFE113";
paths = (
{
closed = 1;
nodes = (
"506 665 OFFCURVE",
"780 665 OFFCURVE",
"796 669 QCURVE SMOOTH",
"837 680 OFFCURVE",
"837 716 QCURVE SMOOTH",
"837 762 OFFCURVE",
"663 762 QCURVE SMOOTH",
"567 762 OFFCURVE",
"523 778 OFFCURVE",
"523 831 OFFCURVE",
"598 1218 OFFCURVE",
"619 1259 QCURVE SMOOTH",
"652 1325 OFFCURVE",
"784 1325 QCURVE SMOOTH",
"805 1325 LINE SMOOTH",
"890 1325 OFFCURVE",
"1066 1260 OFFCURVE",
"1125 1199 QCURVE SMOOTH",
"1253 1067 OFFCURVE",
"1253 841 QCURVE SMOOTH",
"1253 798 LINE SMOOTH",
"1253 667 OFFCURVE",
"1141 382 OFFCURVE",
"944 179 OFFCURVE",
"694 83 OFFCURVE",
"565 83 QCURVE SMOOTH",
"543 83 LINE SMOOTH",
"447 83 OFFCURVE",
"391 108 OFFCURVE",
"391 173 OFFCURVE",
"471 593 OFFCURVE",
"482 616 QCURVE SMOOTH"
);
},
{
closed = 1;
nodes = (
"62 5 OFFCURVE",
"129 5 QCURVE SMOOTH",
"408 -2 LINE",
"521 -2 LINE SMOOTH",
"725 -2 OFFCURVE",
"881 48 QCURVE SMOOTH",
"1226 158 OFFCURVE",
"1373 486 QCURVE SMOOTH",
"1444 644 OFFCURVE",
"1444 824 QCURVE SMOOTH",
"1444 1243 OFFCURVE",
"1069 1368 QCURVE SMOOTH",
"941 1410 OFFCURVE",
"798 1410 QCURVE SMOOTH",
"768 1410 LINE SMOOTH",
"445 1410 OFFCURVE",
"313 1359 QCURVE SMOOTH",
"293 1351 OFFCURVE",
"293 1333 QCURVE SMOOTH",
"293 1321 OFFCURVE",
"363 1282 QCURVE SMOOTH",
"392 1266 OFFCURVE",
"392 1209 QCURVE SMOOTH",
"392 926 OFFCURVE",
"350 848 QCURVE SMOOTH",
"322 797 OFFCURVE",
"267 781 QCURVE SMOOTH",
"181 757 OFFCURVE",
"181 683 OFFCURVE",
"291 666 OFFCURVE",
"291 635 QCURVE SMOOTH",
"291 631 OFFCURVE",
"265 528 OFFCURVE",
"261 482 QCURVE SMOOTH",
"251 355 LINE SMOOTH",
"242 238 OFFCURVE",
"197 131 OFFCURVE",
"62 67 OFFCURVE",
"62 44 QCURVE SMOOTH",
"62 27 LINE SMOOTH"
);
}
);
width = 1471;
}
);
note = uni00D0;
unicode = 00D0;
},
{
glyphname = E;
layers = (
{
anchors = (
{
name = top;
position = "{751, 1394}";
}
);
layerId = "92A672BF-229C-4BEC-8D25-4DDBB2A38145";
paths = (
{
closed = 1;
nodes = (
"827 -2 OFFCURVE",
"955 1 OFFCURVE",
"989 21 CURVE SMOOTH",
"1043 53 OFFCURVE",
"1075 99 OFFCURVE",
"1094 218 CURVE SMOOTH",
"1098 240 OFFCURVE",
"1092 280 OFFCURVE",
"1079 280 CURVE SMOOTH",
"1051 280 OFFCURVE",
"916 169 OFFCURVE",
"865 150 CURVE SMOOTH",
"807 129 OFFCURVE",
"700 116 OFFCURVE",
"608 119 CURVE SMOOTH",
"413 124 OFFCURVE",
"390 186 OFFCURVE",
"424 399 CURVE SMOOTH",
"451 568 OFFCURVE",
"474 659 OFFCURVE",
"625 659 CURVE SMOOTH",
"710 659 OFFCURVE",
"797 561 OFFCURVE",
"828 561 CURVE SMOOTH",
"865 561 OFFCURVE",
"923 609 OFFCURVE",
"938 703 CURVE SMOOTH",
"950 780 OFFCURVE",
"948 869 OFFCURVE",
"896 869 CURVE SMOOTH",
"881 869 OFFCURVE",
"739 781 OFFCURVE",
"708 782 CURVE SMOOTH",
"574 786 OFFCURVE",
"507 824 OFFCURVE",
"526 940 CURVE SMOOTH",
"558 1144 OFFCURVE",
"631 1273 OFFCURVE",
"747 1273 CURVE SMOOTH",
"857 1273 OFFCURVE",
"990 1273 OFFCURVE",
"1041 1235 CURVE SMOOTH",
"1066 1217 OFFCURVE",
"1100 1143 OFFCURVE",
"1123 1142 CURVE SMOOTH",
"1172 1140 OFFCURVE",
"1190 1158 OFFCURVE",
"1195 1191 CURVE SMOOTH",
"1225 1375 OFFCURVE",
"1182 1395 OFFCURVE",
"751 1394 CURVE SMOOTH",
"450 1394 OFFCURVE",
"240 1405 OFFCURVE",
"232 1353 CURVE SMOOTH",
"219 1273 OFFCURVE",
"328 1286 OFFCURVE",
"332 1236 CURVE SMOOTH",
"338 1163 OFFCURVE",
"312 1030 OFFCURVE",
"257 710 CURVE SMOOTH",
"212 446 OFFCURVE",
"171 218 OFFCURVE",
"148 171 CURVE SMOOTH",
"125 124 OFFCURVE",
"24 74 OFFCURVE",
"18 40 CURVE SMOOTH",
"10 -12 OFFCURVE",
"206 -2 OFFCURVE",
"479 -2 CURVE SMOOTH"
);
}
);
width = 1272;
},
{
anchors = (
{
name = top;
position = "{805, 1389}";
}
);
layerId = "5CBF0BAD-1756-4F16-9711-93DC239D102B";
paths = (
{
closed = 1;
nodes = (
"952 -9 OFFCURVE",
"1044 0 OFFCURVE",
"1094 37 CURVE SMOOTH",
"1152 80 OFFCURVE",
"1181 158 OFFCURVE",
"1191 219 CURVE SMOOTH",
"1200 273 OFFCURVE",
"1189 300 OFFCURVE",
"1161 300 CURVE SMOOTH",
"1120 300 OFFCURVE",
"1057 273 OFFCURVE",
"987 244 CURVE SMOOTH",
"896 206 OFFCURVE",
"776 161 OFFCURVE",
"697 161 CURVE SMOOTH",
"549 161 OFFCURVE",
"522 243 OFFCURVE",
"548 414 CURVE SMOOTH",
"570 561 OFFCURVE",
"595 626 OFFCURVE",
"753 626 CURVE SMOOTH",
"818 626 OFFCURVE",
"845 540 OFFCURVE",
"927 540 CURVE SMOOTH",
"987 540 OFFCURVE",
"1018 603 OFFCURVE",
"1038 741 CURVE SMOOTH",
"1049 816 OFFCURVE",
"1040 878 OFFCURVE",
"980 878 CURVE SMOOTH",
"960 878 OFFCURVE",
"817 794 OFFCURVE",
"740 794 CURVE SMOOTH",
"646 794 OFFCURVE",
"611 834 OFFCURVE",
"634 975 CURVE SMOOTH",
"659 1126 OFFCURVE",
"720 1232 OFFCURVE",
"841 1232 CURVE SMOOTH",
"914 1232 OFFCURVE",
"1007 1210 OFFCURVE",
"1087 1171 CURVE SMOOTH",
"1130 1150 OFFCURVE",
"1173 1105 OFFCURVE",
"1204 1105 CURVE SMOOTH",
"1252 1105 OFFCURVE",
"1284 1124 OFFCURVE",
"1298 1213 CURVE SMOOTH",
"1327 1395 OFFCURVE",
"1257 1397 OFFCURVE",
"815 1397 CURVE SMOOTH",
"300 1397 OFFCURVE",
"267 1377 OFFCURVE",
"260 1330 CURVE SMOOTH",
"252 1275 OFFCURVE",
"350 1242 OFFCURVE",
"357 1151 CURVE SMOOTH",
"360 1114 OFFCURVE",
"340 955 OFFCURVE",
"296 675 CURVE SMOOTH",
"252 395 OFFCURVE",
"210 212 OFFCURVE",
"190 198 CURVE SMOOTH",
"115 145 OFFCURVE",
"63 113 OFFCURVE",
"54 59 CURVE SMOOTH",
"47 15 OFFCURVE",
"84 -9 OFFCURVE",
"364 -9 CURVE SMOOTH"
);
}
);
width = 1278;
},
{
layerId = "7C3FA927-BF0B-46CA-AD8A-59E4DBC582B9";
paths = (
{
closed = 1;
nodes = (
"582 838 OFFCURVE",
"582 871 QCURVE SMOOTH",
"582 1018 OFFCURVE",
"658 1141 QCURVE SMOOTH",
"696 1203 OFFCURVE",
"835 1203 QCURVE SMOOTH",
"923 1203 OFFCURVE",
"982 1180 QCURVE",
"991 1177 OFFCURVE",
"1153 1073 OFFCURVE",
"1159 1073 QCURVE SMOOTH",
"1195 1073 OFFCURVE",
"1224 1134 QCURVE SMOOTH",
"1241 1170 OFFCURVE",
"1241 1292 OFFCURVE",
"1189 1337 QCURVE SMOOTH",
"1163 1360 OFFCURVE",
"1096 1360 QCURVE SMOOTH",
"755 1358 LINE SMOOTH",
"356 1358 OFFCURVE",
"347 1357 QCURVE SMOOTH",
"274 1349 OFFCURVE",
"274 1313 QCURVE SMOOTH",
"274 1289 OFFCURVE",
"361 1138 OFFCURVE",
"361 1084 OFFCURVE",
"222 281 OFFCURVE",
"213 244 QCURVE SMOOTH",
"193 166 OFFCURVE",
"137 131 QCURVE SMOOTH",
"40 71 OFFCURVE",
"40 10 OFFCURVE",
"79 1 QCURVE SMOOTH",
"88 -1 OFFCURVE",
"483 -1 QCURVE SMOOTH",
"699 -2 LINE",
"741 -3 LINE",
"904 -3 LINE SMOOTH",
"1013 -3 OFFCURVE",
"1112 139 OFFCURVE",
"1112 274 QCURVE SMOOTH",
"1112 324 OFFCURVE",
"1080 324 QCURVE SMOOTH",
"1056 324 OFFCURVE",
"900 200 OFFCURVE",
"742 150 OFFCURVE",
"580 150 QCURVE SMOOTH",
"511 150 OFFCURVE",
"474 201 OFFCURVE",
"474 267 QCURVE SMOOTH",
"474 476 OFFCURVE",
"523 565 QCURVE SMOOTH",
"555 623 OFFCURVE",
"678 623 QCURVE SMOOTH",
"715 623 OFFCURVE",
"839 533 OFFCURVE",
"886 533 QCURVE SMOOTH",
"906 533 OFFCURVE",
"927 576 QCURVE SMOOTH",
"978 680 OFFCURVE",
"978 764 QCURVE SMOOTH",
"978 792 OFFCURVE",
"940 849 OFFCURVE",
"888 849 OFFCURVE",
"736 788 OFFCURVE",
"639 788 OFFCURVE",
"599 823 QCURVE SMOOTH"
);
}
);
width = 1212;
},
{
layerId = "BCD21CE1-B1BC-4ACC-96CF-D8EB86DFE113";
paths = (
{
closed = 1;
nodes = (
"1261 1331 OFFCURVE",
"1214 1394 OFFCURVE",
"1140 1394 QCURVE SMOOTH",
"1097 1393 LINE",
"1008 1392 LINE",
"650 1389 LINE SMOOTH",
"309 1389 OFFCURVE",
"309 1329 OFFCURVE",
"407 1265 OFFCURVE",
"407 1233 QCURVE SMOOTH",
"407 1147 OFFCURVE",
"315 710 OFFCURVE",
"285 555 QCURVE SMOOTH",
"250 382 LINE SMOOTH",
"229 278 OFFCURVE",
"222 252 QCURVE SMOOTH",
"210 209 LINE SMOOTH",
"186 129 OFFCURVE",
"156 104 QCURVE SMOOTH",
"147 96 OFFCURVE",
"41 56 OFFCURVE",
"41 38 QCURVE SMOOTH",
"41 13 OFFCURVE",
"80 4 QCURVE SMOOTH",
"94 1 OFFCURVE",
"513 1 QCURVE SMOOTH",
"871 0 LINE",
"914 -1 LINE SMOOTH",
"1015 -1 OFFCURVE",
"1088 75 OFFCURVE",
"1147 222 OFFCURVE",
"1147 280 OFFCURVE",
"1128 280 OFFCURVE",
"991 163 OFFCURVE",
"933 140 QCURVE SMOOTH",
"821 95 OFFCURVE",
"514 95 OFFCURVE",
"476 110 QCURVE SMOOTH",
"422 131 OFFCURVE",
"422 306 OFFCURVE",
"468 548 OFFCURVE",
"485 583 QCURVE SMOOTH",
"528 668 OFFCURVE",
"668 668 QCURVE SMOOTH",
"752 668 OFFCURVE",
"795 643 QCURVE",
"801 640 OFFCURVE",
"857 567 QCURVE SMOOTH",
"874 545 OFFCURVE",
"932 545 OFFCURVE",
"989 648 OFFCURVE",
"989 862 OFFCURVE",
"937 862 QCURVE SMOOTH",
"917 862 OFFCURVE",
"821 806 QCURVE SMOOTH",
"769 776 OFFCURVE",
"612 776 OFFCURVE",
"567 827 QCURVE SMOOTH",
"545 852 OFFCURVE",
"545 917 QCURVE SMOOTH",
"545 938 OFFCURVE",
"624 1186 OFFCURVE",
"649 1222 QCURVE SMOOTH",
"701 1295 OFFCURVE",
"807 1295 QCURVE SMOOTH",
"994 1295 OFFCURVE",
"1151 1234 OFFCURVE",
"1214 1133 OFFCURVE",
"1221 1133 QCURVE SMOOTH",
"1261 1133 OFFCURVE",
"1261 1229 QCURVE SMOOTH",
"1261 1269 LINE SMOOTH"
);
}
);
width = 1264;
}
);
note = uni0045;
unicode = 0045;
},
{
glyphname = Eacute;
layers = (
{
components = (
{
name = E;
transform = "{1, 0, 0.15838, 1, -145, 0}";
},
{
name = acutecomb;
transform = "{1, 0, 0.15838, 1, 552, 347}";
}
);
layerId = "92A672BF-229C-4BEC-8D25-4DDBB2A38145";
width = 1272;
},
{
components = (
{
name = E;
},
{
name = acutecomb;
transform = "{1, 0, 0, 1, 711, 355}";
}
);
layerId = "5CBF0BAD-1756-4F16-9711-93DC239D102B";
width = 1278;
},
{
layerId = "7C3FA927-BF0B-46CA-AD8A-59E4DBC582B9";
paths = (
{
closed = 1;
nodes = (
"1021 1826 OFFCURVE",
"1009 1828 QCURVE",
"980 1828 LINE SMOOTH",
"939 1828 OFFCURVE",
"876 1772 QCURVE SMOOTH",
"676 1594 OFFCURVE",
"676 1541 QCURVE SMOOTH",
"676 1502 OFFCURVE",
"778 1502 OFFCURVE",
"993 1639 QCURVE SMOOTH",
"1133 1728 OFFCURVE",
"1133 1772 QCURVE SMOOTH",
"1133 1786 OFFCURVE",
"1118 1796 QCURVE SMOOTH",
"1073 1826 OFFCURVE",
"1027 1826 QCURVE SMOOTH"
);
},
{
closed = 1;
nodes = (
"643 811 OFFCURVE",
"575 868 OFFCURVE",
"575 928 OFFCURVE",
"635 1146 OFFCURVE",
"660 1183 QCURVE SMOOTH",
"698 1239 OFFCURVE",
"928 1239 OFFCURVE",
"1115 1117 OFFCURVE",
"1185 1117 OFFCURVE",
"1212 1178 QCURVE SMOOTH",
"1226 1210 OFFCURVE",
"1226 1331 OFFCURVE",
"1160 1397 OFFCURVE",
"1114 1397 QCURVE SMOOTH",
"1075 1397 LINE",
"325 1395 LINE SMOOTH",
"251 1395 OFFCURVE",
"251 1349 QCURVE SMOOTH",
"251 1316 OFFCURVE",
"339 1198 OFFCURVE",
"339 1138 OFFCURVE",
"213 341 OFFCURVE",
"165 162 OFFCURVE",
"138 141 QCURVE",
"104 125 LINE",
"66 111 LINE",
"21 91 OFFCURVE",
"21 62 QCURVE SMOOTH",
"21 28 LINE SMOOTH",
"21 5 OFFCURVE",
"401 5 QCURVE SMOOTH",
"700 4 LINE",
"741 3 LINE",
"822 3 LINE SMOOTH",
"989 3 OFFCURVE",
"1034 48 QCURVE SMOOTH",
"1097 111 OFFCURVE",
"1097 254 QCURVE SMOOTH",
"1097 325 OFFCURVE",
"1058 325 QCURVE SMOOTH",
"1035 325 OFFCURVE",
"900 226 OFFCURVE",
"844 205 QCURVE SMOOTH",
"726 160 OFFCURVE",
"584 160 QCURVE SMOOTH",
"521 160 OFFCURVE",
"468 210 OFFCURVE",
"468 302 QCURVE SMOOTH",
"468 520 OFFCURVE",
"519 594 QCURVE SMOOTH",
"553 643 OFFCURVE",
"711 643 OFFCURVE",
"842 558 OFFCURVE",
"866 558 QCURVE SMOOTH",
"903 558 OFFCURVE",
"969 696 OFFCURVE",
"969 770 QCURVE SMOOTH",
"969 801 OFFCURVE",
"921 859 OFFCURVE",
"882 859 QCURVE",
"696 811 OFFCURVE",
"696 811 QCURVE SMOOTH"
);
}
);
width = 1214;
},
{
layerId = "BCD21CE1-B1BC-4ACC-96CF-D8EB86DFE113";
paths = (
{
closed = 1;
nodes = (
"762 1519 OFFCURVE",
"785 1519 QCURVE SMOOTH",
"795 1519 LINE SMOOTH",
"846 1519 OFFCURVE",
"1156 1760 OFFCURVE",
"1156 1786 QCURVE",
"1157 1791 LINE",
"1157 1795 LINE SMOOTH",
"1157 1843 OFFCURVE",
"1080 1843 QCURVE SMOOTH",
"1070 1843 LINE SMOOTH",
"1019 1843 OFFCURVE",
"762 1550 OFFCURVE",
"762 1548 QCURVE SMOOTH",
"762 1539 LINE SMOOTH"
);
},
{
closed = 1;
nodes = (
"1247 1351 OFFCURVE",
"1203 1411 OFFCURVE",
"1127 1411 QCURVE SMOOTH",
"680 1406 LINE SMOOTH",
"300 1406 OFFCURVE",
"300 1343 OFFCURVE",
"412 1280 OFFCURVE",
"412 1243 QCURVE SMOOTH",
"412 1224 OFFCURVE",
"201 215 OFFCURVE",
"159 108 OFFCURVE",
"112 89 QCURVE SMOOTH",
"28 55 OFFCURVE",
"28 42 QCURVE SMOOTH",
"28 16 OFFCURVE",
"68 7 QCURVE SMOOTH",
"81 4 OFFCURVE",
"500 4 QCURVE SMOOTH",
"859 3 LINE",
"902 2 LINE SMOOTH",
"1002 2 OFFCURVE",
"1042 49 QCURVE SMOOTH",
"1125 146 OFFCURVE",
"1125 268 QCURVE SMOOTH",
"1125 292 OFFCURVE",
"1096 292 OFFCURVE",
"1053 249 QCURVE SMOOTH",
"960 156 OFFCURVE",
"763 91 OFFCURVE",
"445 91 OFFCURVE",
"410 127 QCURVE SMOOTH",
"389 149 OFFCURVE",
"389 282 OFFCURVE",
"447 565 OFFCURVE",
"466 599 QCURVE SMOOTH",
"510 679 OFFCURVE",
"670 679 QCURVE SMOOTH",
"756 679 OFFCURVE",
"806 628 QCURVE SMOOTH",
"880 552 OFFCURVE",
"894 552 QCURVE",
"919 568 LINE",
"972 621 OFFCURVE",
"972 869 OFFCURVE",
"922 869 QCURVE SMOOTH",
"897 869 OFFCURVE",
"749 783 OFFCURVE",
"595 783 OFFCURVE",
"526 865 OFFCURVE",
"526 951 OFFCURVE",
"597 1204 OFFCURVE",
"620 1240 QCURVE SMOOTH",
"671 1320 OFFCURVE",
"778 1320 QCURVE SMOOTH",
"977 1320 OFFCURVE",
"1125 1254 OFFCURVE",
"1190 1145 OFFCURVE",
"1203 1145 QCURVE SMOOTH",
"1247 1145 OFFCURVE",
"1247 1285 QCURVE SMOOTH"
);
}
);
width = 1250;
}
);
unicode = 00C9;
},
{
glyphname = Ecircumflex;
layers = (
{
components = (
{
name = E;
transform = "{1, 0, 0.15838, 1, -141, 0}";
},
{
name = circumflexcomb;
transform = "{1, 0, 0.15838, 1, 545, 291}";
}
);
layerId = "92A672BF-229C-4BEC-8D25-4DDBB2A38145";
width = 1272;
},
{
components = (
{
name = E;
},
{
name = circumflexcomb;
transform = "{1, 0, 0, 1, 846, 324}";
}
);
layerId = "5CBF0BAD-1756-4F16-9711-93DC239D102B";
width = 1278;
},
{
layerId = "7C3FA927-BF0B-46CA-AD8A-59E4DBC582B9";
paths = (
{
closed = 1;
nodes = (
"1115 1510 OFFCURVE",
"1115 1543 QCURVE SMOOTH",
"1115 1550 LINE SMOOTH",
"1115 1559 OFFCURVE",
"1016 1698 OFFCURVE",
"954 1794 OFFCURVE",
"941 1808 QCURVE SMOOTH",
"906 1846 OFFCURVE",
"867 1846 QCURVE SMOOTH",
"859 1846 LINE SMOOTH",
"825 1846 OFFCURVE",
"491 1563 OFFCURVE",
"491 1544 QCURVE SMOOTH",
"491 1538 LINE SMOOTH",
"491 1510 OFFCURVE",
"543 1510 QCURVE SMOOTH",
"550 1510 LINE SMOOTH",
"592 1510 OFFCURVE",
"814 1658 OFFCURVE",
"846 1658 OFFCURVE",
"1006 1510 OFFCURVE",
"1059 1510 QCURVE SMOOTH",
"1073 1510 LINE SMOOTH"
);
},
{
closed = 1;
nodes = (
"644 807 OFFCURVE",
"575 865 OFFCURVE",
"575 926 OFFCURVE",
"635 1141 OFFCURVE",
"660 1179 QCURVE SMOOTH",
"698 1236 OFFCURVE",
"931 1236 OFFCURVE",
"1112 1114 OFFCURVE",
"1186 1114 OFFCURVE",
"1212 1174 QCURVE SMOOTH",
"1226 1207 OFFCURVE",
"1226 1328 OFFCURVE",
"1161 1393 OFFCURVE",
"1114 1393 QCURVE SMOOTH",
"990 1393 LINE",
"325 1392 LINE SMOOTH",
"251 1392 OFFCURVE",
"251 1346 QCURVE SMOOTH",
"251 1313 OFFCURVE",
"339 1195 OFFCURVE",
"339 1114 OFFCURVE",
"195 270 OFFCURVE",
"165 159 OFFCURVE",
"138 138 QCURVE",
"66 107 LINE SMOOTH",
"21 87 OFFCURVE",
"21 59 QCURVE SMOOTH",
"21 24 LINE SMOOTH",
"21 2 OFFCURVE",
"443 2 QCURVE SMOOTH",
"571 1 LINE",
"615 0 LINE",
"862 0 LINE SMOOTH",
"989 0 OFFCURVE",
"1034 44 QCURVE SMOOTH",
"1097 106 OFFCURVE",
"1097 250 QCURVE SMOOTH",
"1097 322 OFFCURVE",
"1058 322 QCURVE SMOOTH",
"1035 322 OFFCURVE",
"895 220 OFFCURVE",
"844 201 QCURVE SMOOTH",
"721 156 OFFCURVE",
"584 156 QCURVE SMOOTH",
"521 156 OFFCURVE",
"468 207 OFFCURVE",
"468 299 QCURVE SMOOTH",
"468 516 OFFCURVE",
"519 590 QCURVE SMOOTH",
"553 639 OFFCURVE",
"713 639 OFFCURVE",
"844 554 OFFCURVE",
"866 554 QCURVE SMOOTH",
"903 554 OFFCURVE",
"969 690 OFFCURVE",
"969 766 QCURVE SMOOTH",
"969 797 OFFCURVE",
"920 856 OFFCURVE",
"882 856 QCURVE SMOOTH",
"874 856 OFFCURVE",
"710 807 OFFCURVE",
"696 807 QCURVE SMOOTH"
);
}
);
width = 1214;
},
{
layerId = "BCD21CE1-B1BC-4ACC-96CF-D8EB86DFE113";
paths = (
{
closed = 1;
nodes = (
"917 1841 LINE",
"910 1842 LINE",
"885 1842 OFFCURVE",
"579 1564 OFFCURVE",
"579 1527 OFFCURVE",
"618 1527 OFFCURVE",
"750 1612 OFFCURVE",
"755 1616 QCURVE",
"820 1660 LINE",
"830 1666 OFFCURVE",
"867 1694 OFFCURVE",
"874 1694 QCURVE SMOOTH",
"899 1694 OFFCURVE",
"1054 1525 OFFCURVE",
"1116 1525 OFFCURVE",
"1116 1551 QCURVE SMOOTH",
"1116 1557 LINE SMOOTH",
"1116 1569 OFFCURVE",
"997 1762 QCURVE SMOOTH",
"948 1841 OFFCURVE",
"924 1841 QCURVE SMOOTH"
);
},
{
closed = 1;
nodes = (
"671 1317 OFFCURVE",
"778 1317 QCURVE SMOOTH",
"980 1317 OFFCURVE",
"1127 1249 OFFCURVE",
"1193 1142 OFFCURVE",
"1203 1142 QCURVE SMOOTH",
"1247 1142 OFFCURVE",
"1247 1282 QCURVE SMOOTH",
"1247 1350 OFFCURVE",
"1203 1409 OFFCURVE",
"1128 1409 QCURVE SMOOTH",
"1084 1408 LINE",
"950 1407 LINE",
"904 1406 LINE",
"680 1403 LINE SMOOTH",
"300 1403 OFFCURVE",
"300 1341 OFFCURVE",
"412 1278 OFFCURVE",
"412 1212 OFFCURVE",
"200 210 OFFCURVE",
"160 106 OFFCURVE",
"112 86 QCURVE SMOOTH",
"29 51 OFFCURVE",
"29 40 QCURVE SMOOTH",
"29 1 OFFCURVE",
"107 1 QCURVE SMOOTH",
"547 1 LINE",
"593 0 LINE",
"727 1 LINE",
"772 0 LINE",
"903 0 LINE SMOOTH",
"1003 0 OFFCURVE",
"1043 47 QCURVE SMOOTH",
"1126 144 OFFCURVE",
"1126 265 QCURVE SMOOTH",
"1126 289 OFFCURVE",
"1109 289 QCURVE SMOOTH",
"1104 289 OFFCURVE",
"962 164 OFFCURVE",
"793 89 OFFCURVE",
"480 89 OFFCURVE",
"389 129 OFFCURVE",
"389 282 OFFCURVE",
"451 572 OFFCURVE",
"466 597 QCURVE SMOOTH",
"511 676 OFFCURVE",
"670 676 QCURVE SMOOTH",
"738 676 OFFCURVE",
"806 632 OFFCURVE",
"827 599 QCURVE",
"843 570 LINE",
"859 550 OFFCURVE",
"916 550 OFFCURVE",
"973 655 OFFCURVE",
"973 867 OFFCURVE",
"923 867 QCURVE SMOOTH",
"899 867 OFFCURVE",
"748 781 OFFCURVE",
"593 781 OFFCURVE",
"527 862 OFFCURVE",
"527 953 OFFCURVE",
"598 1205 OFFCURVE",
"620 1238 QCURVE SMOOTH"
);
}
);
width = 1250;
}
);
unicode = 00CA;
},
{
glyphname = Edieresis;
layers = (
{
components = (
{
name = E;
transform = "{1, 0, 0.15838, 1, -141, 0}";
},
{
name = dieresiscomb;
transform = "{1, 0, 0.15838, 1, 555, 411}";
}
);
layerId = "92A672BF-229C-4BEC-8D25-4DDBB2A38145";
width = 1272;
},
{
components = (
{
name = E;
},
{
name = dieresiscomb;
transform = "{1, 0, 0, 1, 711, 373}";
}
);
layerId = "5CBF0BAD-1756-4F16-9711-93DC239D102B";
width = 1278;
},
{
layerId = "7C3FA927-BF0B-46CA-AD8A-59E4DBC582B9";
paths = (
{
closed = 1;
nodes = (
"496 1651 LINE",
"496 1638 LINE SMOOTH",
"496 1582 OFFCURVE",
"575 1526 OFFCURVE",
"611 1526 QCURVE SMOOTH",
"620 1526 LINE SMOOTH",
"667 1526 OFFCURVE",
"763 1608 OFFCURVE",
"763 1666 QCURVE SMOOTH",
"763 1692 LINE SMOOTH",
"763 1731 OFFCURVE",
"695 1799 OFFCURVE",
"657 1799 QCURVE SMOOTH",
"631 1799 LINE SMOOTH",
"585 1799 OFFCURVE",
"500 1714 OFFCURVE",
"500 1681 QCURVE",
"497 1655 OFFCURVE",
"497 1655 QCURVE"
);
},
{
closed = 1;
nodes = (
"1155 1709 LINE",
"1155 1735 OFFCURVE",
"1091 1799 OFFCURVE",
"1052 1799 QCURVE SMOOTH",
"1026 1799 LINE SMOOTH",
"974 1799 OFFCURVE",
"891 1702 OFFCURVE",
"891 1660 QCURVE SMOOTH",
"891 1633 LINE SMOOTH",
"891 1594 OFFCURVE",
"957 1528 OFFCURVE",
"984 1528 QCURVE SMOOTH",
"989 1528 OFFCURVE",
"997 1526 QCURVE",
"1023 1526 LINE SMOOTH",
"1062 1526 OFFCURVE",
"1155 1606 OFFCURVE",
"1155 1644 QCURVE",
"1158 1696 LINE"
);
},
{
closed = 1;
nodes = (
"707 1240 OFFCURVE",
"938 1240 OFFCURVE",
"1124 1119 OFFCURVE",
"1196 1119 OFFCURVE",
"1222 1179 QCURVE SMOOTH",
"1236 1211 OFFCURVE",
"1236 1330 OFFCURVE",
"1170 1398 OFFCURVE",
"1124 1398 QCURVE SMOOTH",
"1085 1398 LINE",
"335 1396 LINE SMOOTH",
"261 1396 OFFCURVE",
"261 1350 QCURVE SMOOTH",
"261 1318 OFFCURVE",
"349 1200 OFFCURVE",
"349 1145 OFFCURVE",
"220 335 OFFCURVE",
"175 163 OFFCURVE",
"148 142 QCURVE",
"114 126 LINE",
"76 112 LINE",
"31 92 OFFCURVE",
"31 63 QCURVE SMOOTH",
"31 29 LINE SMOOTH",
"31 7 OFFCURVE",
"411 7 QCURVE SMOOTH",
"710 5 LINE",
"751 4 LINE",
"832 4 LINE SMOOTH",
"999 4 OFFCURVE",
"1044 49 QCURVE SMOOTH",
"1107 112 OFFCURVE",
"1107 255 QCURVE SMOOTH",
"1107 326 OFFCURVE",
"1068 326 QCURVE SMOOTH",
"1045 326 OFFCURVE",
"910 227 OFFCURVE",
"854 206 QCURVE SMOOTH",
"736 161 OFFCURVE",
"594 161 QCURVE SMOOTH",
"531 161 OFFCURVE",
"478 211 OFFCURVE",
"478 303 QCURVE SMOOTH",
"478 521 OFFCURVE",
"529 595 QCURVE SMOOTH",
"563 644 OFFCURVE",
"721 644 OFFCURVE",
"852 559 OFFCURVE",
"876 559 QCURVE SMOOTH",
"913 559 OFFCURVE",
"979 697 OFFCURVE",
"979 771 QCURVE SMOOTH",
"979 802 OFFCURVE",
"931 860 OFFCURVE",
"879 860 OFFCURVE",
"721 812 OFFCURVE",
"653 812 OFFCURVE",
"585 869 OFFCURVE",
"585 929 OFFCURVE",
"644 1145 OFFCURVE",
"670 1184 QCURVE SMOOTH"
);
}
);
width = 1214;
},
{
layerId = "BCD21CE1-B1BC-4ACC-96CF-D8EB86DFE113";
paths = (
{
closed = 1;
nodes = (
"581 1656 LINE",
"583 1644 LINE",
"583 1641 OFFCURVE",
"585 1635 QCURVE",
"585 1576 OFFCURVE",
"643 1576 QCURVE",
"668 1572 LINE",
"674 1572 LINE",
"689 1574 LINE",
"692 1574 OFFCURVE",
"698 1576 QCURVE",
"717 1576 OFFCURVE",
"776 1635 OFFCURVE",
"776 1672 QCURVE SMOOTH",
"776 1685 LINE",
"773 1704 LINE",
"773 1729 OFFCURVE",
"718 1773 OFFCURVE",
"689 1773 QCURVE SMOOTH",
"680 1773 LINE SMOOTH",
"644 1773 OFFCURVE",
"581 1710 OFFCURVE",
"581 1675 QCURVE SMOOTH"
);
},
{
closed = 1;
nodes = (
"1141 1690 LINE",
"1138 1705 LINE",
"1138 1729 OFFCURVE",
"1086 1771 OFFCURVE",
"1065 1771 OFFCURVE",
"1056 1774 QCURVE",
"1047 1774 LINE",
"1031 1772 LINE",
"1005 1772 OFFCURVE",
"945 1712 OFFCURVE",
"945 1676 QCURVE SMOOTH",
"945 1654 LINE SMOOTH",
"945 1620 OFFCURVE",
"1003 1573 OFFCURVE",
"1026 1573 QCURVE SMOOTH",
"1048 1573 LINE SMOOTH",
"1070 1573 OFFCURVE",
"1141 1630 OFFCURVE",
"1141 1671 QCURVE SMOOTH"
);
},
{
closed = 1;
nodes = (
"1243 1349 OFFCURVE",
"1199 1409 OFFCURVE",
"1123 1409 QCURVE SMOOTH",
"676 1404 LINE SMOOTH",
"296 1404 OFFCURVE",
"296 1341 OFFCURVE",
"408 1278 OFFCURVE",
"408 1240 QCURVE SMOOTH",
"408 1222 OFFCURVE",
"197 213 OFFCURVE",
"155 106 OFFCURVE",
"108 87 QCURVE SMOOTH",
"24 53 OFFCURVE",
"24 40 QCURVE SMOOTH",
"24 14 OFFCURVE",
"64 5 QCURVE SMOOTH",
"77 2 OFFCURVE",
"496 2 QCURVE SMOOTH",
"855 1 LINE",
"898 0 LINE SMOOTH",
"998 0 OFFCURVE",
"1038 47 QCURVE SMOOTH",
"1121 144 OFFCURVE",
"1121 266 QCURVE SMOOTH",
"1121 290 OFFCURVE",
"1092 290 OFFCURVE",
"1049 247 QCURVE SMOOTH",
"956 154 OFFCURVE",
"759 89 OFFCURVE",
"441 89 OFFCURVE",
"406 125 QCURVE SMOOTH",
"385 147 OFFCURVE",
"385 279 OFFCURVE",
"444 566 OFFCURVE",
"461 597 QCURVE SMOOTH",
"505 677 OFFCURVE",
"666 677 QCURVE SMOOTH",
"752 677 OFFCURVE",
"802 626 QCURVE SMOOTH",
"876 550 OFFCURVE",
"890 550 QCURVE",
"915 566 LINE",
"968 619 OFFCURVE",
"968 867 OFFCURVE",
"918 867 QCURVE SMOOTH",
"895 867 OFFCURVE",
"744 781 OFFCURVE",
"591 781 OFFCURVE",
"522 863 OFFCURVE",
"522 949 OFFCURVE",
"593 1202 OFFCURVE",
"616 1238 QCURVE SMOOTH",
"667 1318 OFFCURVE",
"774 1318 QCURVE SMOOTH",
"973 1318 OFFCURVE",
"1121 1252 OFFCURVE",
"1186 1143 OFFCURVE",
"1199 1143 QCURVE SMOOTH",
"1243 1143 OFFCURVE",
"1243 1283 QCURVE SMOOTH"
);
}
);
width = 1250;
}
);
unicode = 00CB;
},
{
glyphname = Egrave;
layers = (
{
components = (
{
name = E;
transform = "{1, 0, 0.15838, 1, -148, 0}";
},
{
name = gravecomb;
transform = "{1, 0, 0.15838, 1, 554, 387}";
}
);
layerId = "92A672BF-229C-4BEC-8D25-4DDBB2A38145";
width = 1272;
},
{
components = (
{
name = E;
},
{
name = gravecomb;
transform = "{1, 0, 0, 1, 805, 382}";
}
);
layerId = "5CBF0BAD-1756-4F16-9711-93DC239D102B";
width = 1278;
},
{
layerId = "7C3FA927-BF0B-46CA-AD8A-59E4DBC582B9";
paths = (
{
closed = 1;
nodes = (
"663 1829 LINE",
"652 1827 LINE",
"596 1827 OFFCURVE",
"529 1785 OFFCURVE",
"529 1767 QCURVE SMOOTH",
"529 1757 LINE SMOOTH",
"529 1715 OFFCURVE",
"828 1505 OFFCURVE",
"877 1505 QCURVE SMOOTH",
"892 1505 LINE SMOOTH",
"930 1505 OFFCURVE",
"930 1546 QCURVE SMOOTH",
"930 1550 LINE SMOOTH",
"930 1578 OFFCURVE",
"775 1777 QCURVE SMOOTH",
"735 1829 OFFCURVE",
"680 1829 QCURVE SMOOTH"
);
},
{
closed = 1;
nodes = (
"874 859 OFFCURVE",
"714 811 OFFCURVE",
"643 811 OFFCURVE",
"575 868 OFFCURVE",
"575 930 OFFCURVE",
"635 1145 OFFCURVE",
"660 1182 QCURVE SMOOTH",
"699 1239 OFFCURVE",
"931 1239 OFFCURVE",
"1112 1117 OFFCURVE",
"1186 1117 OFFCURVE",
"1212 1178 QCURVE SMOOTH",
"1226 1211 OFFCURVE",
"1226 1331 OFFCURVE",
"1161 1396 OFFCURVE",
"1114 1396 QCURVE SMOOTH",
"990 1396 LINE",
"325 1395 LINE SMOOTH",
"251 1395 OFFCURVE",
"251 1349 QCURVE SMOOTH",
"251 1316 OFFCURVE",
"339 1198 OFFCURVE",
"339 1135 OFFCURVE",
"210 331 OFFCURVE",
"166 162 OFFCURVE",
"138 141 QCURVE",
"66 110 LINE SMOOTH",
"21 90 OFFCURVE",
"21 62 QCURVE SMOOTH",
"21 28 LINE SMOOTH",
"21 5 OFFCURVE",
"443 5 QCURVE SMOOTH",
"615 4 LINE",
"658 3 LINE",
"862 3 LINE SMOOTH",
"989 3 OFFCURVE",
"1034 47 QCURVE SMOOTH",
"1097 109 OFFCURVE",
"1097 253 QCURVE SMOOTH",
"1097 325 OFFCURVE",
"1058 325 QCURVE SMOOTH",
"1035 325 OFFCURVE",
"895 223 OFFCURVE",
"844 204 QCURVE SMOOTH",
"724 160 OFFCURVE",
"584 160 QCURVE SMOOTH",
"520 160 OFFCURVE",
"468 210 OFFCURVE",
"468 302 QCURVE SMOOTH",
"468 519 OFFCURVE",
"519 593 QCURVE SMOOTH",
"553 643 OFFCURVE",
"711 643 OFFCURVE",
"844 557 OFFCURVE",
"866 557 QCURVE SMOOTH",
"903 557 OFFCURVE",
"969 693 OFFCURVE",
"969 769 QCURVE SMOOTH",
"969 800 OFFCURVE",
"920 859 OFFCURVE",
"882 859 QCURVE SMOOTH"
);
}
);
width = 1214;
},
{
layerId = "BCD21CE1-B1BC-4ACC-96CF-D8EB86DFE113";
paths = (
{
closed = 1;
nodes = (
"579 1758 OFFCURVE",
"850 1520 OFFCURVE",
"906 1520 QCURVE SMOOTH",
"910 1520 LINE SMOOTH",
"932 1520 OFFCURVE",
"932 1543 QCURVE SMOOTH",
"932 1557 LINE SMOOTH",
"932 1558 OFFCURVE",
"795 1741 QCURVE SMOOTH",
"717 1845 OFFCURVE",
"673 1845 QCURVE SMOOTH",
"663 1845 LINE SMOOTH",
"579 1845 OFFCURVE",
"579 1790 QCURVE SMOOTH",
"579 1781 LINE SMOOTH"
);
},
{
closed = 1;
nodes = (
"671 1320 OFFCURVE",
"778 1320 QCURVE SMOOTH",
"977 1320 OFFCURVE",
"1126 1253 OFFCURVE",
"1193 1145 OFFCURVE",
"1203 1145 QCURVE SMOOTH",
"1247 1145 OFFCURVE",
"1247 1285 QCURVE SMOOTH",
"1247 1353 OFFCURVE",
"1204 1411 OFFCURVE",
"1128 1411 QCURVE SMOOTH",
"950 1410 LINE",
"857 1408 LINE SMOOTH",
"812 1408 OFFCURVE",
"768 1407 QCURVE SMOOTH",
"637 1406 LINE SMOOTH",
"300 1406 OFFCURVE",
"300 1344 OFFCURVE",
"412 1281 OFFCURVE",
"412 1214 OFFCURVE",
"200 214 OFFCURVE",
"160 109 OFFCURVE",
"112 89 QCURVE SMOOTH",
"29 54 OFFCURVE",
"29 43 QCURVE SMOOTH",
"29 4 OFFCURVE",
"107 4 QCURVE SMOOTH",
"547 4 LINE",
"593 3 LINE",
"727 4 LINE",
"772 3 LINE",
"903 3 LINE SMOOTH",
"1003 3 OFFCURVE",
"1043 49 QCURVE SMOOTH",
"1126 144 OFFCURVE",
"1126 268 QCURVE SMOOTH",
"1126 292 OFFCURVE",
"1097 292 OFFCURVE",
"1027 224 OFFCURVE",
"928 145 OFFCURVE",
"767 92 OFFCURVE",
"445 92 OFFCURVE",
"411 127 QCURVE SMOOTH",
"389 150 OFFCURVE",
"389 287 OFFCURVE",
"452 576 OFFCURVE",
"466 600 QCURVE SMOOTH",
"511 679 OFFCURVE",
"670 679 QCURVE SMOOTH",
"735 679 OFFCURVE",
"806 634 OFFCURVE",
"858 553 OFFCURVE",
"866 553 QCURVE SMOOTH",
"916 553 OFFCURVE",
"973 657 OFFCURVE",
"973 818 OFFCURVE",
"947 870 OFFCURVE",
"898 870 QCURVE SMOOTH",
"888 870 OFFCURVE",
"796 809 OFFCURVE",
"732 784 OFFCURVE",
"593 784 OFFCURVE",
"527 865 OFFCURVE",
"527 956 OFFCURVE",
"598 1207 OFFCURVE",
"620 1241 QCURVE SMOOTH"
);
}
);
width = 1250;
}
);
unicode = 00C8;
},
{
glyphname = F;
layers = (
{
layerId = "92A672BF-229C-4BEC-8D25-4DDBB2A38145";
paths = (
{
closed = 1;
nodes = (
"414 -6 OFFCURVE",
"484 -2 OFFCURVE",
"490 32 CURVE SMOOTH",
"493 53 OFFCURVE",
"435 74 OFFCURVE",
"425 182 CURVE SMOOTH",
"419 235 OFFCURVE",
"423 349 OFFCURVE",
"441 449 CURVE SMOOTH",
"469 610 OFFCURVE",
"512 614 OFFCURVE",
"663 614 CURVE SMOOTH",
"712 614 OFFCURVE",
"814 553 OFFCURVE",
"833 553 CURVE SMOOTH",
"881 553 OFFCURVE",
"917 615 OFFCURVE",
"930 698 CURVE SMOOTH",
"947 801 OFFCURVE",
"936 853 OFFCURVE",
"899 853 CURVE SMOOTH",
"868 853 OFFCURVE",
"748 770 OFFCURVE",
"684 770 CURVE SMOOTH",
"524 770 OFFCURVE",
"498 807 OFFCURVE",
"528 999 CURVE SMOOTH",
"558 1190 OFFCURVE",
"602 1284 OFFCURVE",
"805 1284 CURVE SMOOTH",
"960 1284 OFFCURVE",
"1030 1269 OFFCURVE",
"1087 1203 CURVE SMOOTH",
"1109 1178 OFFCURVE",
"1130 1116 OFFCURVE",
"1154 1116 CURVE SMOOTH",
"1180 1116 OFFCURVE",
"1196 1138 OFFCURVE",
"1203 1182 CURVE SMOOTH",
"1231 1362 OFFCURVE",
"1161 1399 OFFCURVE",
"1050 1399 CURVE SMOOTH",
"318 1391 OFFCURVE",
"229 1391 OFFCURVE",
"224 1358 CURVE SMOOTH",
"218 1323 OFFCURVE",
"315 1283 OFFCURVE",
"325 1237 CURVE SMOOTH",
"333 1194 OFFCURVE",
"324 1090 OFFCURVE",
"298 925 CURVE SMOOTH",
"196 331 OFFCURVE",
"167 199 OFFCURVE",
"160 175 CURVE SMOOTH",
"149 140 OFFCURVE",
"33 94 OFFCURVE",
"30 63 CURVE SMOOTH",
"24 -2 OFFCURVE",
"143 -6 OFFCURVE",
"262 -6 CURVE SMOOTH"
);
}
);
width = 1194;
},
{
layerId = "5CBF0BAD-1756-4F16-9711-93DC239D102B";
paths = (
{
closed = 1;
nodes = (
"523 -11 OFFCURVE",
"570 -6 OFFCURVE",
"578 43 CURVE SMOOTH",
"583 73 OFFCURVE",
"551 133 OFFCURVE",
"541 204 CURVE SMOOTH",
"532 266 OFFCURVE",
"525 323 OFFCURVE",
"540 424 CURVE SMOOTH",
"557 541 OFFCURVE",
"607 581 OFFCURVE",
"735 581 CURVE SMOOTH",
"800 581 OFFCURVE",
"815 530 OFFCURVE",
"901 530 CURVE SMOOTH",
"947 530 OFFCURVE",
"975 623 OFFCURVE",
"985 686 CURVE SMOOTH",
"1003 801 OFFCURVE",
"987 859 OFFCURVE",
"936 859 CURVE SMOOTH",
"867 859 OFFCURVE",
"824 782 OFFCURVE",
"737 782 CURVE SMOOTH",
"641 782 OFFCURVE",
"604 853 OFFCURVE",
"626 994 CURVE SMOOTH",
"648 1137 OFFCURVE",
"715 1232 OFFCURVE",
"836 1232 CURVE SMOOTH",
"945 1232 OFFCURVE",
"981 1209 OFFCURVE",
"1064 1164 CURVE SMOOTH",
"1148 1119 OFFCURVE",
"1191 1096 OFFCURVE",
"1194 1096 CURVE SMOOTH",
"1232 1096 OFFCURVE",
"1258 1140 OFFCURVE",
"1274 1239 CURVE SMOOTH",
"1295 1371 OFFCURVE",
"1279 1390 OFFCURVE",
"756 1390 CURVE SMOOTH",
"275 1390 OFFCURVE",
"249 1365 OFFCURVE",
"242 1320 CURVE SMOOTH",
"236 1281 OFFCURVE",
"336 1194 OFFCURVE",
"338 1105 CURVE SMOOTH",
"339 1069 OFFCURVE",
"318 912 OFFCURVE",
"275 634 CURVE SMOOTH",
"257 517 OFFCURVE",
"234 378 OFFCURVE",
"208 218 CURVE SMOOTH",
"197 150 OFFCURVE",
"56 113 OFFCURVE",
"47 61 CURVE SMOOTH",
"36 0 OFFCURVE",
"81 -11 OFFCURVE",
"396 -11 CURVE SMOOTH"
);
}
);
width = 1194;
},
{
layerId = "7C3FA927-BF0B-46CA-AD8A-59E4DBC582B9";
paths = (
{
closed = 1;
nodes = (
"358 1047 OFFCURVE",
"224 290 OFFCURVE",
"219 271 QCURVE SMOOTH",
"192 175 OFFCURVE",
"149 140 QCURVE SMOOTH",
"66 72 OFFCURVE",
"66 68 QCURVE SMOOTH",
"66 48 LINE SMOOTH",
"66 39 OFFCURVE",
"134 0 OFFCURVE",
"297 0 QCURVE SMOOTH",
"329 0 LINE",
"363 -1 LINE",
"431 -1 LINE SMOOTH",
"559 -1 OFFCURVE",
"559 54 QCURVE SMOOTH",
"559 68 OFFCURVE",
"538 86 QCURVE SMOOTH",
"480 133 OFFCURVE",
"480 270 QCURVE SMOOTH",
"480 496 OFFCURVE",
"571 587 OFFCURVE",
"684 587 QCURVE SMOOTH",
"713 587 OFFCURVE",
"829 524 OFFCURVE",
"901 524 OFFCURVE",
"974 669 OFFCURVE",
"974 835 OFFCURVE",
"917 835 QCURVE SMOOTH",
"869 835 OFFCURVE",
"745 759 OFFCURVE",
"645 759 OFFCURVE",
"572 807 OFFCURVE",
"572 873 OFFCURVE",
"629 1114 OFFCURVE",
"648 1142 QCURVE SMOOTH",
"691 1207 OFFCURVE",
"953 1207 OFFCURVE",
"1067 1142 OFFCURVE",
"1134 1051 OFFCURVE",
"1194 1051 OFFCURVE",
"1243 1148 OFFCURVE",
"1243 1311 OFFCURVE",
"1202 1359 OFFCURVE",
"1157 1359 QCURVE SMOOTH",
"976 1359 LINE",
"495 1358 LINE",
"460 1359 LINE",
"322 1359 LINE SMOOTH",
"265 1359 OFFCURVE",
"265 1320 QCURVE SMOOTH",
"265 1270 OFFCURVE",
"358 1196 OFFCURVE",
"358 1142 QCURVE SMOOTH"
);
}
);
width = 1162;
},
{
layerId = "BCD21CE1-B1BC-4ACC-96CF-D8EB86DFE113";
paths = (
{
closed = 1;
nodes = (
"195 134 OFFCURVE",
"141 100 QCURVE SMOOTH",
"56 45 OFFCURVE",
"56 33 QCURVE SMOOTH",
"56 0 OFFCURVE",
"207 0 QCURVE SMOOTH",
"279 0 LINE SMOOTH",
"516 0 OFFCURVE",
"516 29 QCURVE SMOOTH",
"516 42 OFFCURVE",
"456 77 OFFCURVE",
"430 145 OFFCURVE",
"430 304 OFFCURVE",
"473 554 OFFCURVE",
"505 601 OFFCURVE",
"532 613 QCURVE SMOOTH",
"619 650 OFFCURVE",
"781 650 OFFCURVE",
"815 610 QCURVE SMOOTH",
"870 545 OFFCURVE",
"892 545 QCURVE SMOOTH",
"985 545 OFFCURVE",
"985 788 QCURVE SMOOTH",
"985 861 OFFCURVE",
"944 861 QCURVE SMOOTH",
"913 861 OFFCURVE",
"839 801 OFFCURVE",
"822 792 QCURVE SMOOTH",
"769 763 OFFCURVE",
"626 763 OFFCURVE",
"536 830 OFFCURVE",
"536 867 QCURVE SMOOTH",
"536 1021 OFFCURVE",
"604 1162 QCURVE SMOOTH",
"646 1249 OFFCURVE",
"736 1302 OFFCURVE",
"791 1302 QCURVE SMOOTH",
"991 1302 OFFCURVE",
"1139 1247 OFFCURVE",
"1199 1112 OFFCURVE",
"1208 1112 QCURVE SMOOTH",
"1259 1112 OFFCURVE",
"1259 1237 QCURVE SMOOTH",
"1259 1301 LINE SMOOTH",
"1259 1361 OFFCURVE",
"1220 1394 OFFCURVE",
"1186 1394 QCURVE SMOOTH",
"1042 1394 LINE",
"857 1393 LINE SMOOTH",
"301 1393 OFFCURVE",
"301 1353 QCURVE SMOOTH",
"301 1336 OFFCURVE",
"329 1321 QCURVE",
"356 1310 LINE",
"378 1297 LINE",
"403 1277 OFFCURVE",
"403 1146 OFFCURVE",
"226 235 OFFCURVE",
"215 200 QCURVE SMOOTH"
);
}
);
width = 1182;
}
);
note = uni0046;
unicode = 0046;
},
{
glyphname = G;
layers = (
{
layerId = "92A672BF-229C-4BEC-8D25-4DDBB2A38145";
paths = (
{
closed = 1;
nodes = (
"839 -23 OFFCURVE",
"1162 29 OFFCURVE",
"1188 190 CURVE SMOOTH",
"1202 277 OFFCURVE",
"1235 396 OFFCURVE",
"1254 455 CURVE SMOOTH",
"1261 477 OFFCURVE",
"1325 532 OFFCURVE",
"1332 576 CURVE SMOOTH",
"1337 608 OFFCURVE",
"1275 625 OFFCURVE",
"1145 625 CURVE SMOOTH",
"1015 625 OFFCURVE",
"948 612 OFFCURVE",
"944 585 CURVE SMOOTH",
"936 537 OFFCURVE",
"1057 517 OFFCURVE",
"1038 401 CURVE SMOOTH",
"1002 170 OFFCURVE",
"919 102 OFFCURVE",
"748 102 CURVE SMOOTH",
"410 102 OFFCURVE",
"275 340 OFFCURVE",
"329 683 CURVE SMOOTH",
"381 1008 OFFCURVE",
"578 1298 OFFCURVE",
"865 1298 CURVE SMOOTH",
"1042 1298 OFFCURVE",
"1135 1263 OFFCURVE",
"1206 1129 CURVE SMOOTH",
"1234 1076 OFFCURVE",
"1268 1049 OFFCURVE",
"1286 1049 CURVE SMOOTH",
"1330 1049 OFFCURVE",
"1339 1089 OFFCURVE",
"1352 1168 CURVE SMOOTH",
"1368 1271 OFFCURVE",
"1363 1347 OFFCURVE",
"1317 1349 CURVE SMOOTH",
"1213 1353 OFFCURVE",
"1009 1401 OFFCURVE",
"913 1401 CURVE SMOOTH",
"513 1401 OFFCURVE",
"177 1117 OFFCURVE",
"112 711 CURVE SMOOTH",
"44 279 OFFCURVE",
"239 -20 OFFCURVE",
"655 -23 CURVE SMOOTH"
);
}
);
width = 1471;
},
{
layerId = "5CBF0BAD-1756-4F16-9711-93DC239D102B";
paths = (
{
closed = 1;
nodes = (
"973 -17 OFFCURVE",
"1217 28 OFFCURVE",
"1273 222 CURVE SMOOTH",
"1290 281 OFFCURVE",
"1313 386 OFFCURVE",
"1337 459 CURVE SMOOTH",
"1351 501 OFFCURVE",
"1404 545 OFFCURVE",
"1410 586 CURVE SMOOTH",
"1421 658 OFFCURVE",
"1285 662 OFFCURVE",
"1148 662 CURVE SMOOTH",
"1024 662 OFFCURVE",
"958 642 OFFCURVE",
"952 603 CURVE SMOOTH",
"946 565 OFFCURVE",
"1026 490 OFFCURVE",
"1011 397 CURVE SMOOTH",
"983 222 OFFCURVE",
"903 150 OFFCURVE",
"765 149 CURVE SMOOTH",
"533 147 OFFCURVE",
"388 371 OFFCURVE",
"441 706 CURVE SMOOTH",
"486 992 OFFCURVE",
"656 1235 OFFCURVE",
"911 1237 CURVE SMOOTH",
"1034 1238 OFFCURVE",
"1077 1215 OFFCURVE",
"1199 1111 CURVE SMOOTH",
"1260 1059 OFFCURVE",
"1300 1033 OFFCURVE",
"1319 1033 CURVE SMOOTH",
"1359 1033 OFFCURVE",
"1387 1084 OFFCURVE",
"1403 1186 CURVE SMOOTH",
"1426 1334 OFFCURVE",
"1350 1384 OFFCURVE",
"1219 1384 CURVE SMOOTH",
"1134 1384 OFFCURVE",
"986 1402 OFFCURVE",
"947 1402 CURVE SMOOTH",
"543 1402 OFFCURVE",
"198 1107 OFFCURVE",
"134 708 CURVE SMOOTH",
"65 275 OFFCURVE",
"265 -17 OFFCURVE",
"682 -17 CURVE SMOOTH"
);
}
);
width = 1457;
},
{
layerId = "7C3FA927-BF0B-46CA-AD8A-59E4DBC582B9";
paths = (
{
closed = 1;
nodes = (
"978 637 OFFCURVE",
"904 606 QCURVE SMOOTH",
"875 594 OFFCURVE",
"875 575 QCURVE SMOOTH",
"875 562 OFFCURVE",
"932 515 QCURVE SMOOTH",
"960 492 OFFCURVE",
"960 290 OFFCURVE",
"857 135 OFFCURVE",
"547 135 OFFCURVE",
"357 369 OFFCURVE",
"357 568 QCURVE SMOOTH",
"357 706 OFFCURVE",
"445 954 OFFCURVE",
"512 1039 QCURVE SMOOTH",
"656 1222 OFFCURVE",
"863 1222 QCURVE SMOOTH",
"960 1222 OFFCURVE",
"1034 1176 QCURVE SMOOTH",
"1070 1154 OFFCURVE",
"1197 1012 OFFCURVE",
"1221 1012 QCURVE SMOOTH",
"1270 1012 OFFCURVE",
"1329 1137 OFFCURVE",
"1329 1212 QCURVE SMOOTH",
"1329 1349 OFFCURVE",
"1170 1349 QCURVE SMOOTH",
"1057 1349 OFFCURVE",
"895 1369 OFFCURVE",
"885 1369 QCURVE SMOOTH",
"847 1369 LINE SMOOTH",
"708 1369 OFFCURVE",
"433 1237 OFFCURVE",
"226 1027 OFFCURVE",
"98 720 OFFCURVE",
"98 578 QCURVE SMOOTH",
"98 538 LINE SMOOTH",
"98 302 OFFCURVE",
"247 141 QCURVE SMOOTH",
"395 -20 OFFCURVE",
"644 -20 QCURVE SMOOTH",
"762 -20 OFFCURVE",
"984 33 QCURVE SMOOTH",
"1088 58 OFFCURVE",
"1138 102 QCURVE SMOOTH",
"1170 130 OFFCURVE",
"1232 415 OFFCURVE",
"1268 492 OFFCURVE",
"1322 558 OFFCURVE",
"1322 571 QCURVE SMOOTH",
"1322 637 OFFCURVE",
"1104 637 QCURVE SMOOTH"
);
}
);
width = 1353;
},
{
layerId = "BCD21CE1-B1BC-4ACC-96CF-D8EB86DFE113";
paths = (
{
closed = 1;
nodes = (
"602 1404 OFFCURVE",
"366 1164 QCURVE SMOOTH",
"254 1050 OFFCURVE",
"124 735 OFFCURVE",
"124 572 QCURVE SMOOTH",
"124 531 LINE SMOOTH",
"124 411 OFFCURVE",
"214 200 OFFCURVE",
"284 132 QCURVE SMOOTH",
"439 -18 OFFCURVE",
"687 -18 QCURVE SMOOTH",
"729 -18 LINE SMOOTH",
"784 -18 OFFCURVE",
"1039 43 QCURVE SMOOTH",
"1137 67 OFFCURVE",
"1185 110 OFFCURVE",
"1247 420 OFFCURVE",
"1277 516 OFFCURVE",
"1349 580 OFFCURVE",
"1349 591 QCURVE SMOOTH",
"1349 632 OFFCURVE",
"956 632 OFFCURVE",
"956 596 QCURVE SMOOTH",
"956 585 OFFCURVE",
"981 559 QCURVE",
"1002 540 LINE",
"1020 519 LINE",
"1045 483 OFFCURVE",
"1045 337 OFFCURVE",
"993 203 OFFCURVE",
"962 169 QCURVE SMOOTH",
"885 84 OFFCURVE",
"760 84 QCURVE SMOOTH",
"556 84 OFFCURVE",
"332 350 OFFCURVE",
"332 597 QCURVE SMOOTH",
"332 721 OFFCURVE",
"379 860 QCURVE SMOOTH",
"467 1120 OFFCURVE",
"670 1236 QCURVE SMOOTH",
"778 1298 OFFCURVE",
"1017 1298 OFFCURVE",
"1106 1250 QCURVE SMOOTH",
"1170 1216 OFFCURVE",
"1216 1123 QCURVE SMOOTH",
"1249 1057 OFFCURVE",
"1293 1057 QCURVE SMOOTH",
"1317 1057 OFFCURVE",
"1375 1147 OFFCURVE",
"1375 1316 OFFCURVE",
"1342 1340 QCURVE SMOOTH",
"1327 1351 OFFCURVE",
"1212 1358 OFFCURVE",
"1003 1404 OFFCURVE",
"941 1404 QCURVE SMOOTH"
);
}
);
width = 1421;
}
);
note = uni0047;
unicode = 0047;
},
{
glyphname = H;
layers = (
{
layerId = "92A672BF-229C-4BEC-8D25-4DDBB2A38145";
paths = (
{
closed = 1;
nodes = (
"392 -6 OFFCURVE",
"468 0 OFFCURVE",
"472 25 CURVE SMOOTH",
"475 44 OFFCURVE",
"412 114 OFFCURVE",
"405 146 CURVE SMOOTH",
"398 170 OFFCURVE",
"419 312 OFFCURVE",
"444 437 CURVE SMOOTH",
"463 532 OFFCURVE",
"484 616 OFFCURVE",
"501 631 CURVE SMOOTH",
"523 651 OFFCURVE",
"640 667 OFFCURVE",
"804 667 CURVE SMOOTH",
"969 667 OFFCURVE",
"1065 658 OFFCURVE",
"1092 639 CURVE SMOOTH",
"1119 620 OFFCURVE",
"1121 541 OFFCURVE",
"1099 402 CURVE SMOOTH",
"1077 263 OFFCURVE",
"1041 156 OFFCURVE",
"1020 131 CURVE SMOOTH",
"1006 114 OFFCURVE",
"945 55 OFFCURVE",
"943 38 CURVE SMOOTH",
"938 11 OFFCURVE",
"1011 -3 OFFCURVE",
"1160 -3 CURVE SMOOTH",
"1309 -3 OFFCURVE",
"1386 11 OFFCURVE",
"1391 40 CURVE SMOOTH",
"1395 67 OFFCURVE",
"1314 97 OFFCURVE",
"1298 127 CURVE SMOOTH",
"1266 183 OFFCURVE",
"1287 253 OFFCURVE",
"1387 842 CURVE SMOOTH",
"1423 1073 OFFCURVE",
"1447 1198 OFFCURVE",
"1457 1219 CURVE SMOOTH",
"1481 1270 OFFCURVE",
"1596 1296 OFFCURVE",
"1604 1345 CURVE SMOOTH",
"1608 1372 OFFCURVE",
"1564 1385 OFFCURVE",
"1471 1385 CURVE SMOOTH",
"1251 1385 OFFCURVE",
"1139 1373 OFFCURVE",
"1135 1348 CURVE SMOOTH",
"1132 1329 OFFCURVE",
"1145 1316 OFFCURVE",
"1194 1258 CURVE SMOOTH",
"1223 1209 OFFCURVE",
"1210 1146 OFFCURVE",
"1193 1054 CURVE SMOOTH",
"1162 880 OFFCURVE",
"1147 823 OFFCURVE",
"1116 803 CURVE SMOOTH",
"1091 787 OFFCURVE",
"928 779 OFFCURVE",
"782 779 CURVE SMOOTH",
"675 779 OFFCURVE",
"560 793 OFFCURVE",
"538 806 CURVE SMOOTH",
"524 814 OFFCURVE",
"522 895 OFFCURVE",
"534 999 CURVE SMOOTH",
"543 1084 OFFCURVE",
"565 1192 OFFCURVE",
"571 1227 CURVE SMOOTH",
"579 1279 OFFCURVE",
"675 1303 OFFCURVE",
"683 1351 CURVE SMOOTH",
"686 1375 OFFCURVE",
"632 1387 OFFCURVE",
"518 1387 CURVE SMOOTH",
"323 1387 OFFCURVE",
"223 1372 OFFCURVE",
"219 1346 CURVE SMOOTH",
"214 1316 OFFCURVE",
"329 1257 OFFCURVE",
"329 1194 CURVE SMOOTH",
"329 1147 OFFCURVE",
"308 974 OFFCURVE",
"260 675 CURVE SMOOTH",
"213 376 OFFCURVE",
"179 211 OFFCURVE",
"167 179 CURVE SMOOTH",
"149 131 OFFCURVE",
"17 91 OFFCURVE",
"10 45 CURVE SMOOTH",
"4 7 OFFCURVE",
"69 -5 OFFCURVE",
"230 -5 CURVE SMOOTH"
);
}
);
width = 1608;
},
{
layerId = "5CBF0BAD-1756-4F16-9711-93DC239D102B";
paths = (
{
closed = 1;
nodes = (
"493 0 OFFCURVE",
"603 20 OFFCURVE",
"610 63 CURVE SMOOTH",
"615 93 OFFCURVE",
"593 124 OFFCURVE",
"566 161 CURVE SMOOTH",
"534 205 OFFCURVE",
"520 261 OFFCURVE",
"548 440 CURVE SMOOTH",
"562 529 OFFCURVE",
"577 583 OFFCURVE",
"591 602 CURVE SMOOTH",
"611 630 OFFCURVE",
"670 642 OFFCURVE",
"862 642 CURVE SMOOTH",
"1017 642 OFFCURVE",
"1097 632 OFFCURVE",
"1118 613 CURVE SMOOTH",
"1140 593 OFFCURVE",
"1143 542 OFFCURVE",
"1131 461 CURVE SMOOTH",
"1116 362 OFFCURVE",
"1086 255 OFFCURVE",
"1046 197 CURVE SMOOTH",
"1016 154 OFFCURVE",
"962 98 OFFCURVE",
"955 55 CURVE SMOOTH",
"946 -3 OFFCURVE",
"1015 -9 OFFCURVE",
"1248 -9 CURVE SMOOTH",
"1414 -9 OFFCURVE",
"1477 6 OFFCURVE",
"1481 35 CURVE SMOOTH",
"1488 89 OFFCURVE",
"1425 124 OFFCURVE",
"1396 153 CURVE SMOOTH",
"1372 177 OFFCURVE",
"1381 271 OFFCURVE",
"1465 776 CURVE SMOOTH",
"1502 999 OFFCURVE",
"1527 1126 OFFCURVE",
"1544 1157 CURVE SMOOTH",
"1563 1191 OFFCURVE",
"1673 1262 OFFCURVE",
"1679 1295 CURVE SMOOTH",
"1696 1389 OFFCURVE",
"1594 1380 OFFCURVE",
"1426 1380 CURVE SMOOTH",
"1201 1380 OFFCURVE",
"1148 1361 OFFCURVE",
"1141 1316 CURVE SMOOTH",
"1137 1291 OFFCURVE",
"1198 1182 OFFCURVE",
"1206 1132 CURVE SMOOTH",
"1212 1096 OFFCURVE",
"1207 1038 OFFCURVE",
"1193 959 CURVE SMOOTH",
"1181 889 OFFCURVE",
"1171 840 OFFCURVE",
"1152 827 CURVE SMOOTH",
"1117 803 OFFCURVE",
"1052 797 OFFCURVE",
"892 797 CURVE SMOOTH",
"751 797 OFFCURVE",
"674 803 OFFCURVE",
"661 814 CURVE SMOOTH",
"639 832 OFFCURVE",
"635 899 OFFCURVE",
"655 1031 CURVE SMOOTH",
"666 1102 OFFCURVE",
"686 1143 OFFCURVE",
"751 1242 CURVE SMOOTH",
"783 1291 OFFCURVE",
"800 1324 OFFCURVE",
"803 1340 CURVE SMOOTH",
"809 1374 OFFCURVE",
"768 1391 OFFCURVE",
"574 1391 CURVE SMOOTH",
"347 1391 OFFCURVE",
"265 1370 OFFCURVE",
"260 1341 CURVE SMOOTH",
"246 1262 OFFCURVE",
"357 1229 OFFCURVE",
"363 1173 CURVE SMOOTH",
"366 1143 OFFCURVE",
"347 986 OFFCURVE",
"301 699 CURVE SMOOTH",
"255 412 OFFCURVE",
"236 291 OFFCURVE",
"214 225 CURVE SMOOTH",
"195 167 OFFCURVE",
"84 119 OFFCURVE",
"78 81 CURVE SMOOTH",
"68 19 OFFCURVE",
"82 0 OFFCURVE",
"261 0 CURVE SMOOTH"
);
}
);
width = 1601;
},
{
layerId = "7C3FA927-BF0B-46CA-AD8A-59E4DBC582B9";
paths = (
{
closed = 1;
nodes = (
"563 794 OFFCURVE",
"563 864 QCURVE SMOOTH",
"563 994 OFFCURVE",
"622 1132 QCURVE SMOOTH",
"647 1190 OFFCURVE",
"760 1281 OFFCURVE",
"760 1311 QCURVE SMOOTH",
"760 1356 OFFCURVE",
"512 1356 QCURVE SMOOTH",
"371 1357 LINE",
"321 1358 LINE SMOOTH",
"250 1358 OFFCURVE",
"250 1290 QCURVE SMOOTH",
"250 1261 OFFCURVE",
"324 1213 QCURVE SMOOTH",
"362 1188 OFFCURVE",
"362 1159 QCURVE SMOOTH",
"362 1088 OFFCURVE",
"273 606 QCURVE SMOOTH",
"241 420 LINE SMOOTH",
"215 271 OFFCURVE",
"206 234 QCURVE",
"194 192 LINE",
"176 151 OFFCURVE",
"29 81 OFFCURVE",
"29 25 QCURVE SMOOTH",
"29 -1 OFFCURVE",
"440 -1 OFFCURVE",
"466 4 QCURVE SMOOTH",
"542 19 OFFCURVE",
"542 49 QCURVE SMOOTH",
"542 72 OFFCURVE",
"520 106 QCURVE",
"499 134 LINE",
"483 161 LINE",
"462 204 OFFCURVE",
"462 268 QCURVE SMOOTH",
"462 417 OFFCURVE",
"509 543 QCURVE SMOOTH",
"526 589 OFFCURVE",
"571 628 OFFCURVE",
"1017 628 OFFCURVE",
"1078 600 OFFCURVE",
"1078 530 QCURVE SMOOTH",
"1078 405 OFFCURVE",
"1025 260 QCURVE SMOOTH",
"998 187 OFFCURVE",
"879 76 OFFCURVE",
"879 42 QCURVE SMOOTH",
"879 -1 OFFCURVE",
"1040 -1 QCURVE SMOOTH",
"1178 0 LINE",
"1323 -3 LINE SMOOTH",
"1385 -3 OFFCURVE",
"1385 75 QCURVE SMOOTH",
"1385 90 OFFCURVE",
"1328 122 QCURVE",
"1294 138 LINE",
"1273 157 OFFCURVE",
"1273 260 OFFCURVE",
"1356 725 OFFCURVE",
"1362 759 QCURVE SMOOTH",
"1378 852 LINE SMOOTH",
"1394 937 OFFCURVE",
"1414 1056 OFFCURVE",
"1420 1086 QCURVE SMOOTH",
"1430 1133 LINE",
"1443 1175 OFFCURVE",
"1537 1242 QCURVE SMOOTH",
"1598 1285 OFFCURVE",
"1598 1334 QCURVE SMOOTH",
"1598 1358 OFFCURVE",
"1526 1358 QCURVE SMOOTH",
"1205 1357 LINE SMOOTH",
"1134 1357 OFFCURVE",
"1100 1323 QCURVE",
"1093 1305 LINE",
"1093 1292 OFFCURVE",
"1150 1201 OFFCURVE",
"1171 1150 OFFCURVE",
"1171 957 OFFCURVE",
"1114 805 OFFCURVE",
"1072 766 OFFCURVE",
"622 766 OFFCURVE",
"599 777 QCURVE SMOOTH"
);
}
);
width = 1515;
},
{
layerId = "BCD21CE1-B1BC-4ACC-96CF-D8EB86DFE113";
paths = (
{
closed = 1;
nodes = (
"628 763 LINE",
"582 766 LINE",
"525 777 OFFCURVE",
"525 842 QCURVE SMOOTH",
"525 869 OFFCURVE",
"587 1162 OFFCURVE",
"592 1182 QCURVE SMOOTH",
"604 1228 LINE",
"616 1257 OFFCURVE",
"743 1336 OFFCURVE",
"743 1354 QCURVE SMOOTH",
"743 1389 OFFCURVE",
"534 1389 QCURVE SMOOTH",
"434 1389 LINE",
"383 1391 LINE",
"335 1391 LINE SMOOTH",
"282 1391 OFFCURVE",
"282 1354 QCURVE SMOOTH",
"282 1335 OFFCURVE",
"343 1311 QCURVE SMOOTH",
"382 1295 LINE",
"415 1275 OFFCURVE",
"415 1233 QCURVE",
"409 1188 LINE SMOOTH",
"406 1169 OFFCURVE",
"363 956 OFFCURVE",
"226 241 OFFCURVE",
"181 106 OFFCURVE",
"36 51 OFFCURVE",
"36 9 QCURVE",
"72 -2 LINE",
"121 -2 LINE",
"171 -1 LINE",
"269 0 LINE SMOOTH",
"493 0 OFFCURVE",
"493 33 QCURVE SMOOTH",
"493 52 OFFCURVE",
"428 101 QCURVE SMOOTH",
"392 128 OFFCURVE",
"392 208 OFFCURVE",
"473 607 OFFCURVE",
"493 631 QCURVE SMOOTH",
"524 669 OFFCURVE",
"809 669 QCURVE SMOOTH",
"1059 670 LINE",
"1106 669 LINE",
"1168 659 OFFCURVE",
"1168 594 QCURVE SMOOTH",
"1168 570 OFFCURVE",
"1090 189 OFFCURVE",
"1063 135 OFFCURVE",
"942 50 OFFCURVE",
"942 34 QCURVE SMOOTH",
"942 2 OFFCURVE",
"1115 2 QCURVE SMOOTH",
"1212 3 LINE",
"1311 1 LINE SMOOTH",
"1403 1 OFFCURVE",
"1403 43 QCURVE SMOOTH",
"1403 51 OFFCURVE",
"1338 77 QCURVE",
"1301 95 LINE",
"1277 114 OFFCURVE",
"1277 193 OFFCURVE",
"1475 1202 OFFCURVE",
"1503 1274 OFFCURVE",
"1643 1335 OFFCURVE",
"1643 1352 QCURVE SMOOTH",
"1643 1391 OFFCURVE",
"1510 1391 QCURVE SMOOTH",
"1460 1390 LINE SMOOTH",
"1195 1390 OFFCURVE",
"1195 1351 QCURVE SMOOTH",
"1195 1338 OFFCURVE",
"1240 1306 QCURVE SMOOTH",
"1271 1285 LINE",
"1295 1261 OFFCURVE",
"1295 1204 OFFCURVE",
"1217 823 OFFCURVE",
"1171 764 OFFCURVE",
"877 764 QCURVE SMOOTH"
);
}
);
width = 1569;
}
);
note = uni0048;
unicode = 0048;
},
{
glyphname = I;
layers = (
{
anchors = (
{
name = top;
position = "{534, 1388}";
}
);
layerId = "92A672BF-229C-4BEC-8D25-4DDBB2A38145";
paths = (
{
closed = 1;
nodes = (
"388 1 OFFCURVE",
"533 -15 OFFCURVE",
"541 38 CURVE SMOOTH",
"548 78 OFFCURVE",
"462 104 OFFCURVE",
"439 142 CURVE SMOOTH",
"423 168 OFFCURVE",
"421 293 OFFCURVE",
"495 700 CURVE SMOOTH",
"560 1052 OFFCURVE",
"579 1202 OFFCURVE",
"596 1238 CURVE SMOOTH",
"620 1286 OFFCURVE",
"729 1301 OFFCURVE",
"735 1337 CURVE SMOOTH",
"742 1379 OFFCURVE",
"691 1388 OFFCURVE",
"489 1387 CURVE SMOOTH",
"386 1386 OFFCURVE",
"220 1374 OFFCURVE",
"216 1347 CURVE SMOOTH",
"213 1330 OFFCURVE",
"288 1297 OFFCURVE",
"319 1257 CURVE SMOOTH",
"364 1202 OFFCURVE",
"340 977 OFFCURVE",
"285 703 CURVE SMOOTH",
"230 357 OFFCURVE",
"190 204 OFFCURVE",
"162 151 CURVE SMOOTH",
"136 100 OFFCURVE",
"20 79 OFFCURVE",
"13 34 CURVE SMOOTH",
"8 4 OFFCURVE",
"79 -1 OFFCURVE",
"269 1 CURVE SMOOTH"
);
}
);
width = 756;
},
{
anchors = (
{
name = top;
position = "{537, 1416}";
}
);
layerId = "5CBF0BAD-1756-4F16-9711-93DC239D102B";
paths = (
{
closed = 1;
nodes = (
"605 0 OFFCURVE",
"636 11 OFFCURVE",
"644 58 CURVE SMOOTH",
"651 97 OFFCURVE",
"541 160 OFFCURVE",
"534 228 CURVE SMOOTH",
"531 258 OFFCURVE",
"554 427 OFFCURVE",
"597 700 CURVE SMOOTH",
"663 1121 OFFCURVE",
"683 1176 OFFCURVE",
"726 1224 CURVE SMOOTH",
"758 1259 OFFCURVE",
"836 1311 OFFCURVE",
"842 1345 CURVE SMOOTH",
"850 1388 OFFCURVE",
"828 1394 OFFCURVE",
"581 1394 CURVE SMOOTH",
"280 1394 OFFCURVE",
"251 1382 OFFCURVE",
"244 1342 CURVE SMOOTH",
"240 1318 OFFCURVE",
"274 1284 OFFCURVE",
"319 1242 CURVE SMOOTH",
"381 1185 OFFCURVE",
"379 1146 OFFCURVE",
"310 705 CURVE SMOOTH",
"268 438 OFFCURVE",
"242 284 OFFCURVE",
"223 246 CURVE SMOOTH",
"180 160 OFFCURVE",
"54 108 OFFCURVE",
"46 58 CURVE SMOOTH",
"38 11 OFFCURVE",
"125 0 OFFCURVE",
"345 0 CURVE SMOOTH"
);
}
);
width = 791;
},
{
layerId = "7C3FA927-BF0B-46CA-AD8A-59E4DBC582B9";
paths = (
{
closed = 1;
nodes = (
"54 77 OFFCURVE",
"54 -2 OFFCURVE",
"116 -2 QCURVE SMOOTH",
"186 -2 LINE",
"322 0 LINE",
"364 0 LINE",
"407 -1 LINE",
"475 -1 LINE",
"499 -2 LINE",
"545 -2 LINE SMOOTH",
"625 -2 OFFCURVE",
"625 49 QCURVE SMOOTH",
"625 82 OFFCURVE",
"538 145 OFFCURVE",
"530 157 QCURVE",
"505 198 OFFCURVE",
"505 306 OFFCURVE",
"637 1048 OFFCURVE",
"647 1082 QCURVE SMOOTH",
"677 1181 OFFCURVE",
"742 1220 QCURVE SMOOTH",
"847 1282 OFFCURVE",
"847 1358 OFFCURVE",
"777 1358 QCURVE SMOOTH",
"423 1357 LINE",
"400 1358 LINE",
"355 1358 LINE SMOOTH",
"272 1358 OFFCURVE",
"272 1307 QCURVE SMOOTH",
"272 1272 OFFCURVE",
"362 1210 OFFCURVE",
"369 1198 QCURVE SMOOTH",
"395 1156 OFFCURVE",
"395 1043 OFFCURVE",
"335 713 OFFCURVE",
"274 327 OFFCURVE",
"216 171 OFFCURVE",
"159 138 QCURVE SMOOTH"
);
}
);
width = 787;
},
{
layerId = "BCD21CE1-B1BC-4ACC-96CF-D8EB86DFE113";
paths = (
{
closed = 1;
nodes = (
"44 45 OFFCURVE",
"44 16 QCURVE SMOOTH",
"44 -4 OFFCURVE",
"87 -4 QCURVE SMOOTH",
"110 -4 LINE",
"265 -1 LINE SMOOTH",
"543 -1 OFFCURVE",
"543 22 QCURVE SMOOTH",
"543 54 OFFCURVE",
"413 103 OFFCURVE",
"413 206 OFFCURVE",
"612 1179 OFFCURVE",
"647 1281 OFFCURVE",
"701 1304 QCURVE SMOOTH",
"795 1343 OFFCURVE",
"795 1357 QCURVE SMOOTH",
"795 1391 OFFCURVE",
"733 1391 QCURVE SMOOTH",
"732 1391 OFFCURVE",
"687 1389 QCURVE SMOOTH",
"532 1387 LINE SMOOTH",
"292 1387 OFFCURVE",
"292 1352 QCURVE SMOOTH",
"292 1334 OFFCURVE",
"376 1300 QCURVE SMOOTH",
"426 1280 OFFCURVE",
"426 1179 OFFCURVE",
"234 241 OFFCURVE",
"195 104 OFFCURVE",
"141 83 QCURVE SMOOTH"
);
}
);
width = 726;
}
);
note = uni0049;
unicode = 0049;
},
{
glyphname = Iacute;
layers = (
{
components = (
{
name = I;
transform = "{1, 0, 0.15838, 1, -145, 0}";
},
{
name = acutecomb;
transform = "{1, 0, 0.15838, 1, 335, 341}";
}
);
layerId = "92A672BF-229C-4BEC-8D25-4DDBB2A38145";
width = 756;
},
{
components = (
{
name = I;
},
{
name = acutecomb;
transform = "{1, 0, 0, 1, 443, 382}";
}
);
layerId = "5CBF0BAD-1756-4F16-9711-93DC239D102B";
width = 791;
},
{
layerId = "7C3FA927-BF0B-46CA-AD8A-59E4DBC582B9";
paths = (
{
closed = 1;
nodes = (
"393 1503 OFFCURVE",
"428 1503 QCURVE SMOOTH",
"444 1503 LINE SMOOTH",
"517 1503 OFFCURVE",
"741 1660 QCURVE SMOOTH",
"849 1736 OFFCURVE",
"849 1772 QCURVE SMOOTH",
"849 1787 OFFCURVE",
"834 1796 QCURVE SMOOTH",
"784 1826 OFFCURVE",
"736 1826 OFFCURVE",
"726 1828 QCURVE",
"696 1828 LINE SMOOTH",
"655 1828 OFFCURVE",
"393 1566 OFFCURVE",
"393 1546 QCURVE SMOOTH",
"393 1537 LINE SMOOTH"
);
},
{
closed = 1;
nodes = (
"346 1139 OFFCURVE",
"212 315 OFFCURVE",
"174 170 OFFCURVE",
"120 137 QCURVE SMOOTH",
"21 76 OFFCURVE",
"21 33 QCURVE SMOOTH",
"21 4 OFFCURVE",
"71 4 QCURVE SMOOTH",
"116 4 LINE",
"271 6 LINE",
"375 6 LINE",
"443 5 LINE",
"465 4 LINE",
"488 4 LINE SMOOTH",
"561 4 OFFCURVE",
"561 58 QCURVE SMOOTH",
"561 88 OFFCURVE",
"456 162 OFFCURVE",
"456 198 QCURVE SMOOTH",
"456 292 OFFCURVE",
"523 652 OFFCURVE",
"596 1100 OFFCURVE",
"605 1137 QCURVE SMOOTH",
"628 1229 OFFCURVE",
"684 1264 QCURVE SMOOTH",
"782 1324 OFFCURVE",
"782 1365 QCURVE SMOOTH",
"782 1395 OFFCURVE",
"724 1395 QCURVE SMOOTH",
"359 1394 LINE",
"337 1395 LINE",
"239 1395 OFFCURVE",
"239 1341 QCURVE SMOOTH",
"239 1315 OFFCURVE",
"346 1233 OFFCURVE",
"346 1202 QCURVE SMOOTH"
);
}
);
width = 728;
},
{
layerId = "BCD21CE1-B1BC-4ACC-96CF-D8EB86DFE113";
paths = (
{
closed = 1;
nodes = (
"477 1519 OFFCURVE",
"500 1519 QCURVE SMOOTH",
"510 1519 LINE SMOOTH",
"561 1519 OFFCURVE",
"871 1760 OFFCURVE",
"871 1786 QCURVE",
"872 1791 LINE",
"872 1795 LINE SMOOTH",
"872 1843 OFFCURVE",
"795 1843 QCURVE SMOOTH",
"780 1843 LINE SMOOTH",
"733 1843 OFFCURVE",
"477 1550 OFFCURVE",
"477 1548 QCURVE SMOOTH",
"477 1539 LINE SMOOTH"
);
},
{
closed = 1;
nodes = (
"425 1243 OFFCURVE",
"207 201 OFFCURVE",
"195 162 QCURVE SMOOTH",
"175 97 OFFCURVE",
"16 59 OFFCURVE",
"16 16 QCURVE SMOOTH",
"16 -1 OFFCURVE",
"66 -1 QCURVE SMOOTH",
"111 -1 LINE",
"134 0 LINE",
"244 3 LINE",
"287 3 LINE SMOOTH",
"511 3 OFFCURVE",
"511 34 QCURVE SMOOTH",
"511 58 OFFCURVE",
"429 87 QCURVE SMOOTH",
"373 107 OFFCURVE",
"373 189 OFFCURVE",
"466 609 OFFCURVE",
"496 754 QCURVE SMOOTH",
"505 798 LINE",
"515 842 LINE",
"524 886 LINE",
"532 930 LINE SMOOTH",
"590 1208 OFFCURVE",
"626 1307 OFFCURVE",
"682 1325 QCURVE SMOOTH",
"779 1356 OFFCURVE",
"779 1378 QCURVE SMOOTH",
"779 1392 LINE SMOOTH",
"779 1409 OFFCURVE",
"736 1409 QCURVE SMOOTH",
"645 1407 LINE",
"623 1406 LINE",
"491 1404 LINE SMOOTH",
"283 1404 OFFCURVE",
"283 1345 OFFCURVE",
"364 1319 QCURVE SMOOTH",
"425 1299 OFFCURVE",
"425 1245 QCURVE SMOOTH"
);
}
);
width = 702;
}
);
unicode = 00CD;
},
{
glyphname = Icircumflex;
layers = (
{
components = (
{
name = I;
transform = "{1, 0, 0.15838, 1, -141, 0}";
},
{
name = circumflexcomb;
transform = "{1, 0, 0.15838, 1, 329, 285}";
}
);
layerId = "92A672BF-229C-4BEC-8D25-4DDBB2A38145";
width = 756;
},
{
components = (
{
name = I;
},
{
name = circumflexcomb;
transform = "{1, 0, 0, 1, 578, 351}";
}
);
layerId = "5CBF0BAD-1756-4F16-9711-93DC239D102B";
width = 791;
},
{
layerId = "7C3FA927-BF0B-46CA-AD8A-59E4DBC582B9";
paths = (
{
closed = 1;
nodes = (
"540 1850 OFFCURVE",
"496 1806 QCURVE SMOOTH",
"478 1788 LINE",
"465 1776 OFFCURVE",
"447 1758 QCURVE",
"340 1659 LINE",
"250 1576 LINE SMOOTH",
"228 1556 OFFCURVE",
"228 1548 QCURVE SMOOTH",
"228 1542 LINE SMOOTH",
"228 1513 OFFCURVE",
"327 1513 OFFCURVE",
"551 1662 OFFCURVE",
"581 1662 OFFCURVE",
"743 1513 OFFCURVE",
"851 1513 OFFCURVE",
"851 1554 QCURVE SMOOTH",
"851 1557 OFFCURVE",
"710 1775 OFFCURVE",
"642 1850 OFFCURVE",
"603 1850 QCURVE SMOOTH",
"596 1850 LINE SMOOTH"
);
},
{
closed = 1;
nodes = (
"350 1105 OFFCURVE",
"301 842 OFFCURVE",
"267 631 OFFCURVE",
"247 527 OFFCURVE",
"233 439 OFFCURVE",
"228 411 QCURVE SMOOTH",
"220 366 LINE",
"217 344 LINE",
"213 321 LINE SMOOTH",
"203 263 OFFCURVE",
"201 256 QCURVE",
"180 170 OFFCURVE",
"123 135 QCURVE SMOOTH",
"24 74 OFFCURVE",
"24 31 QCURVE SMOOTH",
"24 1 OFFCURVE",
"96 1 QCURVE SMOOTH",
"210 3 LINE",
"253 3 LINE",
"275 4 LINE",
"336 4 LINE",
"401 3 LINE",
"514 3 LINE",
"564 9 OFFCURVE",
"564 55 QCURVE SMOOTH",
"564 82 OFFCURVE",
"459 162 OFFCURVE",
"459 247 OFFCURVE",
"588 1055 OFFCURVE",
"635 1230 OFFCURVE",
"688 1262 QCURVE SMOOTH",
"785 1320 OFFCURVE",
"785 1363 QCURVE SMOOTH",
"785 1392 OFFCURVE",
"728 1392 QCURVE SMOOTH",
"705 1392 LINE",
"407 1391 LINE",
"385 1392 LINE",
"318 1392 LINE SMOOTH",
"243 1392 OFFCURVE",
"243 1339 QCURVE SMOOTH",
"243 1311 OFFCURVE",
"350 1229 OFFCURVE",
"350 1200 QCURVE SMOOTH"
);
}
);
width = 728;
},
{
layerId = "BCD21CE1-B1BC-4ACC-96CF-D8EB86DFE113";
paths = (
{
closed = 1;
nodes = (
"591 1841 OFFCURVE",
"301 1551 OFFCURVE",
"301 1547 QCURVE SMOOTH",
"301 1527 OFFCURVE",
"350 1527 OFFCURVE",
"591 1694 OFFCURVE",
"613 1694 OFFCURVE",
"782 1525 OFFCURVE",
"805 1525 QCURVE SMOOTH",
"837 1525 OFFCURVE",
"837 1557 QCURVE SMOOTH",
"837 1562 OFFCURVE",
"764 1681 OFFCURVE",
"672 1841 OFFCURVE",
"638 1841 QCURVE SMOOTH",
"624 1841 LINE SMOOTH"
);
},
{
closed = 1;
nodes = (
"116 -3 LINE",
"270 1 LINE",
"313 1 LINE SMOOTH",
"516 1 OFFCURVE",
"516 32 QCURVE SMOOTH",
"516 55 OFFCURVE",
"433 85 QCURVE SMOOTH",
"377 105 OFFCURVE",
"377 147 QCURVE SMOOTH",
"377 157 OFFCURVE",
"597 1207 OFFCURVE",
"629 1305 OFFCURVE",
"687 1323 QCURVE SMOOTH",
"784 1354 OFFCURVE",
"784 1376 QCURVE SMOOTH",
"784 1390 LINE SMOOTH",
"784 1407 OFFCURVE",
"740 1407 QCURVE",
"695 1405 LINE",
"584 1403 LINE",
"495 1402 LINE SMOOTH",
"288 1402 OFFCURVE",
"288 1343 OFFCURVE",
"369 1317 QCURVE SMOOTH",
"430 1297 OFFCURVE",
"430 1243 QCURVE SMOOTH",
"430 1213 OFFCURVE",
"358 902 OFFCURVE",
"218 203 OFFCURVE",
"193 141 QCURVE SMOOTH",
"174 94 OFFCURVE",
"21 57 OFFCURVE",
"21 30 QCURVE SMOOTH",
"21 13 LINE SMOOTH",
"21 -3 OFFCURVE",
"71 -3 QCURVE SMOOTH"
);
}
);
width = 702;
}
);
unicode = 00CE;
},
{
glyphname = Idieresis;
layers = (
{
components = (
{
name = I;
transform = "{1, 0, 0.15838, 1, -141, 0}";
},
{
name = dieresiscomb;
transform = "{1, 0, 0.15838, 1, 338, 405}";
}
);
layerId = "92A672BF-229C-4BEC-8D25-4DDBB2A38145";
width = 756;
},
{
components = (
{
name = I;
},
{
name = dieresiscomb;
transform = "{1, 0, 0, 1, 443, 400}";
}
);
layerId = "5CBF0BAD-1756-4F16-9711-93DC239D102B";
width = 791;
},
{
layerId = "7C3FA927-BF0B-46CA-AD8A-59E4DBC582B9";
paths = (
{
closed = 1;
nodes = (
"224 1595 OFFCURVE",
"290 1529 OFFCURVE",
"328 1529 QCURVE SMOOTH",
"353 1529 LINE SMOOTH",
"404 1529 OFFCURVE",
"483 1623 OFFCURVE",
"483 1669 QCURVE",
"484 1673 LINE",
"484 1677 LINE",
"481 1702 LINE",
"481 1730 OFFCURVE",
"417 1794 OFFCURVE",
"380 1794 QCURVE SMOOTH",
"359 1794 LINE SMOOTH",
"305 1794 OFFCURVE",
"224 1700 OFFCURVE",
"224 1654 QCURVE SMOOTH",
"224 1637 LINE SMOOTH"
);
},
{
closed = 1;
nodes = (
"688 1794 OFFCURVE",
"614 1691 OFFCURVE",
"614 1654 QCURVE",
"613 1650 LINE",
"613 1645 LINE",
"616 1621 LINE",
"616 1593 OFFCURVE",
"678 1531 OFFCURVE",
"705 1531 OFFCURVE",
"713 1529 QCURVE",
"722 1529 LINE",
"726 1528 LINE",
"730 1528 LINE",
"758 1532 LINE",
"789 1532 OFFCURVE",
"870 1613 OFFCURVE",
"870 1644 QCURVE SMOOTH",
"870 1652 OFFCURVE",
"873 1664 QCURVE",
"873 1690 LINE SMOOTH",
"873 1728 OFFCURVE",
"807 1794 OFFCURVE",
"770 1794 QCURVE SMOOTH",
"749 1794 LINE SMOOTH"
);
},
{
closed = 1;
nodes = (
"20 3 OFFCURVE",
"66 3 QCURVE SMOOTH",
"111 3 LINE",
"202 5 LINE",
"505 5 LINE",
"551 11 OFFCURVE",
"551 44 QCURVE SMOOTH",
"551 93 OFFCURVE",
"442 154 OFFCURVE",
"442 179 QCURVE SMOOTH",
"442 241 OFFCURVE",
"578 1078 OFFCURVE",
"622 1242 OFFCURVE",
"685 1273 QCURVE SMOOTH",
"774 1317 OFFCURVE",
"774 1362 QCURVE SMOOTH",
"774 1394 OFFCURVE",
"719 1394 QCURVE SMOOTH",
"697 1394 LINE",
"378 1393 LINE",
"356 1394 LINE",
"311 1394 LINE SMOOTH",
"240 1394 OFFCURVE",
"240 1354 QCURVE SMOOTH",
"240 1303 OFFCURVE",
"351 1242 OFFCURVE",
"351 1218 QCURVE SMOOTH",
"351 1154 OFFCURVE",
"206 284 OFFCURVE",
"193 238 QCURVE SMOOTH",
"171 159 OFFCURVE",
"109 127 QCURVE SMOOTH",
"20 81 OFFCURVE",
"20 35 QCURVE SMOOTH"
);
}
);
width = 719;
},
{
layerId = "BCD21CE1-B1BC-4ACC-96CF-D8EB86DFE113";
paths = (
{
closed = 1;
nodes = (
"372 1774 OFFCURVE",
"314 1716 OFFCURVE",
"314 1698 QCURVE",
"310 1680 LINE",
"310 1655 LINE",
"313 1640 LINE",
"313 1621 OFFCURVE",
"360 1574 OFFCURVE",
"390 1574 QCURVE SMOOTH",
"412 1574 LINE SMOOTH",
"448 1574 OFFCURVE",
"504 1643 OFFCURVE",
"504 1671 QCURVE SMOOTH",
"504 1693 LINE SMOOTH",
"504 1728 OFFCURVE",
"446 1774 OFFCURVE",
"424 1774 QCURVE SMOOTH",
"402 1774 LINE SMOOTH"
);
},
{
closed = 1;
nodes = (
"730 1775 OFFCURVE",
"673 1718 OFFCURVE",
"673 1697 QCURVE",
"669 1675 LINE",
"669 1659 LINE SMOOTH",
"669 1622 OFFCURVE",
"729 1574 OFFCURVE",
"753 1574 QCURVE SMOOTH",
"766 1574 LINE",
"784 1577 LINE",
"805 1577 OFFCURVE",
"862 1634 OFFCURVE",
"862 1660 OFFCURVE",
"865 1672 QCURVE",
"865 1694 LINE SMOOTH",
"865 1724 OFFCURVE",
"814 1775 OFFCURVE",
"784 1775 QCURVE SMOOTH",
"762 1775 LINE SMOOTH"
);
},
{
closed = 1;
nodes = (
"425 1232 OFFCURVE",
"397 1101 QCURVE SMOOTH",
"392 1080 LINE",
"388 1059 LINE SMOOTH",
"383 1035 OFFCURVE",
"362 942 OFFCURVE",
"360 929 QCURVE SMOOTH",
"250 338 OFFCURVE",
"195 159 QCURVE SMOOTH",
"176 96 OFFCURVE",
"16 54 OFFCURVE",
"16 13 QCURVE SMOOTH",
"16 -4 OFFCURVE",
"66 -4 QCURVE SMOOTH",
"156 -2 LINE",
"200 0 LINE",
"244 0 LINE",
"287 1 LINE SMOOTH",
"511 1 OFFCURVE",
"511 32 QCURVE SMOOTH",
"511 56 OFFCURVE",
"429 85 QCURVE SMOOTH",
"373 105 OFFCURVE",
"373 186 OFFCURVE",
"464 596 QCURVE SMOOTH",
"473 641 LINE",
"483 685 LINE SMOOTH",
"488 707 OFFCURVE",
"496 754 OFFCURVE",
"514 831 OFFCURVE",
"520 862 QCURVE SMOOTH",
"532 927 LINE SMOOTH",
"591 1210 OFFCURVE",
"626 1304 OFFCURVE",
"682 1323 QCURVE SMOOTH",
"779 1356 OFFCURVE",
"779 1376 QCURVE SMOOTH",
"779 1390 LINE SMOOTH",
"779 1406 OFFCURVE",
"736 1406 QCURVE SMOOTH",
"623 1404 LINE",
"601 1403 LINE",
"491 1402 LINE SMOOTH",
"284 1402 OFFCURVE",
"284 1342 OFFCURVE",
"425 1298 OFFCURVE",
"425 1262 QCURVE SMOOTH"
);
}
);
width = 701;
}
);
unicode = 00CF;
},
{
glyphname = Igrave;
layers = (
{
components = (
{
name = I;
transform = "{1, 0, 0.15838, 1, -147, 0}";
},
{
name = gravecomb;
transform = "{1, 0, 0.15838, 1, 337, 381}";
}
);
layerId = "92A672BF-229C-4BEC-8D25-4DDBB2A38145";
width = 756;
},
{
components = (
{
name = I;
},
{
name = gravecomb;
transform = "{1, 0, 0, 1, 537, 409}";
}
);
layerId = "5CBF0BAD-1756-4F16-9711-93DC239D102B";
width = 791;
},
{
layerId = "7C3FA927-BF0B-46CA-AD8A-59E4DBC582B9";
paths = (
{
closed = 1;
nodes = (
"264 1714 OFFCURVE",
"563 1505 OFFCURVE",
"612 1505 QCURVE SMOOTH",
"627 1505 LINE SMOOTH",
"664 1505 OFFCURVE",
"664 1541 QCURVE SMOOTH",
"664 1546 LINE",
"665 1550 LINE",
"665 1601 OFFCURVE",
"509 1777 QCURVE SMOOTH",
"463 1829 OFFCURVE",
"414 1829 QCURVE SMOOTH",
"398 1829 LINE SMOOTH",
"340 1829 OFFCURVE",
"284 1798 QCURVE SMOOTH",
"264 1787 OFFCURVE",
"264 1772 QCURVE SMOOTH",
"264 1757 LINE SMOOTH"
);
},
{
closed = 1;
nodes = (
"350 1133 OFFCURVE",
"221 339 OFFCURVE",
"180 171 OFFCURVE",
"124 137 QCURVE SMOOTH",
"25 76 OFFCURVE",
"25 33 QCURVE SMOOTH",
"25 3 OFFCURVE",
"97 3 QCURVE SMOOTH",
"187 5 LINE",
"232 5 LINE",
"275 6 LINE",
"337 6 LINE",
"401 5 LINE",
"514 5 LINE",
"565 11 OFFCURVE",
"565 57 QCURVE SMOOTH",
"565 84 OFFCURVE",
"460 164 OFFCURVE",
"460 198 QCURVE SMOOTH",
"460 259 OFFCURVE",
"591 1062 OFFCURVE",
"632 1231 OFFCURVE",
"688 1264 QCURVE SMOOTH",
"786 1322 OFFCURVE",
"786 1365 QCURVE SMOOTH",
"786 1394 OFFCURVE",
"728 1394 QCURVE SMOOTH",
"706 1394 LINE",
"408 1393 LINE",
"385 1394 LINE",
"319 1394 LINE SMOOTH",
"243 1394 OFFCURVE",
"243 1341 QCURVE SMOOTH",
"243 1310 OFFCURVE",
"350 1235 OFFCURVE",
"350 1202 QCURVE SMOOTH"
);
}
);
width = 728;
},
{
layerId = "BCD21CE1-B1BC-4ACC-96CF-D8EB86DFE113";
paths = (
{
closed = 1;
nodes = (
"278 1747 OFFCURVE",
"386 1663 QCURVE SMOOTH",
"570 1520 OFFCURVE",
"604 1520 QCURVE SMOOTH",
"609 1520 LINE SMOOTH",
"631 1520 OFFCURVE",
"631 1543 QCURVE SMOOTH",
"631 1557 LINE SMOOTH",
"631 1558 OFFCURVE",
"494 1741 QCURVE SMOOTH",
"416 1845 OFFCURVE",
"371 1845 QCURVE SMOOTH",
"362 1845 LINE SMOOTH",
"278 1845 OFFCURVE",
"278 1790 QCURVE SMOOTH",
"278 1781 LINE SMOOTH"
);
},
{
closed = 1;
nodes = (
"89 -1 LINE",
"200 2 LINE",
"265 3 LINE",
"308 3 LINE SMOOTH",
"511 3 OFFCURVE",
"511 34 QCURVE SMOOTH",
"511 59 OFFCURVE",
"428 87 QCURVE SMOOTH",
"373 105 OFFCURVE",
"373 149 QCURVE SMOOTH",
"373 157 OFFCURVE",
"583 1185 OFFCURVE",
"624 1308 OFFCURVE",
"682 1326 QCURVE SMOOTH",
"779 1357 OFFCURVE",
"779 1378 QCURVE SMOOTH",
"779 1392 LINE SMOOTH",
"779 1409 OFFCURVE",
"735 1409 QCURVE SMOOTH",
"623 1407 LINE",
"601 1406 LINE",
"490 1405 LINE SMOOTH",
"283 1405 OFFCURVE",
"283 1346 OFFCURVE",
"364 1320 QCURVE SMOOTH",
"425 1300 OFFCURVE",
"425 1245 QCURVE SMOOTH",
"425 1215 OFFCURVE",
"366 964 OFFCURVE",
"210 199 OFFCURVE",
"169 98 OFFCURVE",
"16 58 OFFCURVE",
"16 32 QCURVE SMOOTH",
"16 16 LINE SMOOTH",
"16 -1 OFFCURVE",
"66 -1 QCURVE SMOOTH"
);
}
);
width = 700;
}
);
unicode = 00CC;
},
{
glyphname = J;
layers = (
{
layerId = "92A672BF-229C-4BEC-8D25-4DDBB2A38145";
paths = (
{
closed = 1;
nodes = (
"356 -236 OFFCURVE",
"508 145 OFFCURVE",
"573 551 CURVE SMOOTH",
"664 1099 OFFCURVE",
"684 1211 OFFCURVE",
"695 1232 CURVE SMOOTH",
"710 1263 OFFCURVE",
"813 1300 OFFCURVE",
"819 1338 CURVE SMOOTH",
"826 1378 OFFCURVE",
"793 1393 OFFCURVE",
"730 1393 CURVE SMOOTH",
"473 1393 OFFCURVE",
"342 1378 OFFCURVE",
"337 1348 CURVE SMOOTH",
"331 1309 OFFCURVE",
"431 1273 OFFCURVE",
"444 1226 CURVE SMOOTH",
"458 1172 OFFCURVE",
"445 1062 OFFCURVE",
"386 654 CURVE SMOOTH",
"295 78 OFFCURVE",
"246 -76 OFFCURVE",
"18 -61 CURVE SMOOTH",
"-62 -61 OFFCURVE",
"-118 -103 OFFCURVE",
"-127 -158 CURVE SMOOTH",
"-135 -210 OFFCURVE",
"-84 -236 OFFCURVE",
"25 -236 CURVE SMOOTH"
);
}
);
width = 811;
},
{
layerId = "5CBF0BAD-1756-4F16-9711-93DC239D102B";
paths = (
{
closed = 1;
nodes = (
"515 -244 OFFCURVE",
"622 113 OFFCURVE",
"734 844 CURVE SMOOTH",
"753 968 OFFCURVE",
"770 1057 OFFCURVE",
"789 1111 CURVE SMOOTH",
"816 1187 OFFCURVE",
"912 1312 OFFCURVE",
"917 1347 CURVE SMOOTH",
"921 1377 OFFCURVE",
"875 1396 OFFCURVE",
"775 1394 CURVE SMOOTH",
"387 1386 OFFCURVE",
"362 1377 OFFCURVE",
"355 1333 CURVE SMOOTH",
"350 1302 OFFCURVE",
"393 1261 OFFCURVE",
"439 1194 CURVE SMOOTH",
"477 1139 OFFCURVE",
"478 1070 OFFCURVE",
"355 404 CURVE SMOOTH",
"312 171 OFFCURVE",
"254 25 OFFCURVE",
"101 1 CURVE SMOOTH",
"-1 -15 OFFCURVE",
"-59 -59 OFFCURVE",
"-71 -130 CURVE SMOOTH",
"-86 -217 OFFCURVE",
"-39 -244 OFFCURVE",
"92 -244 CURVE SMOOTH"
);
}
);
width = 859;
},
{
layerId = "7C3FA927-BF0B-46CA-AD8A-59E4DBC582B9";
paths = (
{
closed = 1;
nodes = (
"344 182 OFFCURVE",
"206 52 QCURVE SMOOTH",
"179 27 OFFCURVE",
"45 -12 OFFCURVE",
"-52 -95 OFFCURVE",
"-52 -150 QCURVE SMOOTH",
"-52 -177 OFFCURVE",
"-1 -222 OFFCURVE",
"55 -222 QCURVE SMOOTH",
"74 -222 LINE SMOOTH",
"197 -222 OFFCURVE",
"460 -38 OFFCURVE",
"578 194 OFFCURVE",
"727 1003 OFFCURVE",
"755 1088 OFFCURVE",
"833 1236 OFFCURVE",
"880 1304 OFFCURVE",
"880 1321 QCURVE SMOOTH",
"880 1358 OFFCURVE",
"787 1358 QCURVE SMOOTH",
"761 1358 LINE",
"636 1357 LINE SMOOTH",
"439 1357 OFFCURVE",
"425 1354 QCURVE SMOOTH",
"347 1337 OFFCURVE",
"347 1295 QCURVE SMOOTH",
"347 1286 OFFCURVE",
"449 1230 OFFCURVE",
"459 1219 QCURVE",
"492 1180 OFFCURVE",
"492 1088 OFFCURVE",
"436 744 QCURVE SMOOTH"
);
}
);
width = 824;
},
{
layerId = "BCD21CE1-B1BC-4ACC-96CF-D8EB86DFE113";
paths = (
{
closed = 1;
nodes = (
"408 1264 LINE",
"452 1264 OFFCURVE",
"474 1178 QCURVE SMOOTH",
"534 944 OFFCURVE",
"534 794 OFFCURVE",
"391 356 OFFCURVE",
"391 347 QCURVE SMOOTH",
"391 154 OFFCURVE",
"240 -61 QCURVE SMOOTH",
"212 -101 OFFCURVE",
"-25 -182 OFFCURVE",
"-25 -218 QCURVE SMOOTH",
"-25 -234 OFFCURVE",
"38 -273 OFFCURVE",
"73 -273 QCURVE SMOOTH",
"96 -273 LINE SMOOTH",
"97 -273 OFFCURVE",
"98 -273 QCURVE SMOOTH",
"295 -273 OFFCURVE",
"450 -44 QCURVE SMOOTH",
"526 68 OFFCURVE",
"582 290 QCURVE SMOOTH",
"610 400 OFFCURVE",
"670 499 OFFCURVE",
"670 543 QCURVE",
"662 633 LINE",
"662 688 OFFCURVE",
"726 943 OFFCURVE",
"775 1070 OFFCURVE",
"775 1110 QCURVE",
"767 1219 LINE",
"767 1236 OFFCURVE",
"803 1312 OFFCURVE",
"803 1321 QCURVE SMOOTH",
"803 1390 OFFCURVE",
"629 1390 QCURVE SMOOTH",
"513 1390 OFFCURVE",
"329 1321 OFFCURVE",
"329 1262 OFFCURVE",
"384 1262 QCURVE"
);
}
);
width = 845;
}
);
note = uni004A;
unicode = 004A;
},
{
glyphname = K;
layers = (
{
layerId = "92A672BF-229C-4BEC-8D25-4DDBB2A38145";
paths = (
{
closed = 1;
nodes = (
"1205 -1 OFFCURVE",
"1267 14 OFFCURVE",
"1271 43 CURVE SMOOTH",
"1275 69 OFFCURVE",
"1195 88 OFFCURVE",
"1074 278 CURVE SMOOTH",
"882 577 OFFCURVE",
"792 743 OFFCURVE",
"798 777 CURVE SMOOTH",
"804 819 OFFCURVE",
"887 900 OFFCURVE",
"987 1001 CURVE SMOOTH",
"1198 1214 OFFCURVE",
"1389 1299 OFFCURVE",
"1399 1358 CURVE SMOOTH",
"1403 1387 OFFCURVE",
"1350 1396 OFFCURVE",
"1236 1396 CURVE SMOOTH",
"1096 1396 OFFCURVE",
"1061 1361 OFFCURVE",
"1058 1341 CURVE SMOOTH",
"1054 1314 OFFCURVE",
"1049 1282 OFFCURVE",
"1034 1245 CURVE SMOOTH",
"1017 1203 OFFCURVE",
"989 1154 OFFCURVE",
"936 1098 CURVE SMOOTH",
"841 996 OFFCURVE",
"598 768 OFFCURVE",
"548 768 CURVE SMOOTH",
"517 768 OFFCURVE",
"506 798 OFFCURVE",
"515 858 CURVE SMOOTH",
"543 1032 OFFCURVE",
"559 1128 OFFCURVE",
"576 1175 CURVE SMOOTH",
"605 1262 OFFCURVE",
"672 1319 OFFCURVE",
"677 1349 CURVE SMOOTH",
"682 1380 OFFCURVE",
"643 1396 OFFCURVE",
"559 1396 CURVE SMOOTH",
"307 1396 OFFCURVE",
"231 1387 OFFCURVE",
"224 1344 CURVE SMOOTH",
"218 1304 OFFCURVE",
"328 1244 OFFCURVE",
"329 1212 CURVE SMOOTH",
"331 1165 OFFCURVE",
"305 972 OFFCURVE",
"261 695 CURVE SMOOTH",
"217 418 OFFCURVE",
"183 235 OFFCURVE",
"164 186 CURVE SMOOTH",
"145 137 OFFCURVE",
"25 88 OFFCURVE",
"17 37 CURVE SMOOTH",
"14 14 OFFCURVE",
"68 0 OFFCURVE",
"181 0 CURVE SMOOTH",
"373 0 OFFCURVE",
"471 17 OFFCURVE",
"475 43 CURVE SMOOTH",
"480 74 OFFCURVE",
"414 157 OFFCURVE",
"414 198 CURVE SMOOTH",
"414 234 OFFCURVE",
"420 304 OFFCURVE",
"436 409 CURVE SMOOTH",
"460 560 OFFCURVE",
"501 635 OFFCURVE",
"559 635 CURVE SMOOTH",
"617 635 OFFCURVE",
"704 516 OFFCURVE",
"821 279 CURVE SMOOTH",
"828 263 OFFCURVE",
"918 40 OFFCURVE",
"915 43 CURVE SMOOTH",
"946 6 OFFCURVE",
"985 -1 OFFCURVE",
"1085 -1 CURVE SMOOTH"
);
}
);
width = 1442;
},
{
layerId = "5CBF0BAD-1756-4F16-9711-93DC239D102B";
paths = (
{
closed = 1;
nodes = (
"1297 -2 OFFCURVE",
"1357 14 OFFCURVE",
"1365 60 CURVE SMOOTH",
"1369 84 OFFCURVE",
"1321 114 OFFCURVE",
"1232 215 CURVE SMOOTH",
"1179 275 OFFCURVE",
"863 715 OFFCURVE",
"868 744 CURVE SMOOTH",
"874 781 OFFCURVE",
"1034 927 OFFCURVE",
"1253 1093 CURVE SMOOTH",
"1402 1206 OFFCURVE",
"1517 1278 OFFCURVE",
"1522 1314 CURVE SMOOTH",
"1527 1347 OFFCURVE",
"1484 1371 OFFCURVE",
"1376 1371 CURVE SMOOTH",
"1265 1371 OFFCURVE",
"1083 1371 OFFCURVE",
"1072 1300 CURVE SMOOTH",
"1067 1268 OFFCURVE",
"1092 1216 OFFCURVE",
"1087 1185 CURVE SMOOTH",
"1082 1152 OFFCURVE",
"1064 1124 OFFCURVE",
"952 1023 CURVE SMOOTH",
"770 859 OFFCURVE",
"664 775 OFFCURVE",
"632 775 CURVE SMOOTH",
"613 775 OFFCURVE",
"626 871 OFFCURVE",
"645 967 CURVE SMOOTH",
"656 1023 OFFCURVE",
"682 1102 OFFCURVE",
"688 1132 CURVE SMOOTH",
"702 1204 OFFCURVE",
"813 1268 OFFCURVE",
"820 1310 CURVE SMOOTH",
"827 1350 OFFCURVE",
"740 1370 OFFCURVE",
"663 1372 CURVE SMOOTH",
"391 1379 OFFCURVE",
"300 1364 OFFCURVE",
"294 1322 CURVE SMOOTH",
"287 1272 OFFCURVE",
"370 1178 OFFCURVE",
"376 1109 CURVE SMOOTH",
"379 1074 OFFCURVE",
"360 956 OFFCURVE",
"319 697 CURVE SMOOTH",
"278 438 OFFCURVE",
"249 289 OFFCURVE",
"237 250 CURVE SMOOTH",
"217 185 OFFCURVE",
"100 102 OFFCURVE",
"93 61 CURVE SMOOTH",
"86 18 OFFCURVE",
"178 1 OFFCURVE",
"269 1 CURVE SMOOTH",
"526 1 OFFCURVE",
"588 17 OFFCURVE",
"596 74 CURVE SMOOTH",
"601 112 OFFCURVE",
"573 202 OFFCURVE",
"564 239 CURVE SMOOTH",
"554 282 OFFCURVE",
"546 344 OFFCURVE",
"555 400 CURVE SMOOTH",
"573 514 OFFCURVE",
"605 588 OFFCURVE",
"667 588 CURVE SMOOTH",
"760 588 OFFCURVE",
"861 395 OFFCURVE",
"915 222 CURVE SMOOTH",
"942 135 OFFCURVE",
"960 84 OFFCURVE",
"971 68 CURVE SMOOTH",
"1003 22 OFFCURVE",
"1042 -2 OFFCURVE",
"1092 -2 CURVE SMOOTH"
);
}
);
width = 1488;
},
{
layerId = "7C3FA927-BF0B-46CA-AD8A-59E4DBC582B9";
paths = (
{
closed = 1;
nodes = (
"1021 1279 OFFCURVE",
"1033 1240 QCURVE SMOOTH",
"1040 1217 LINE",
"1040 1177 OFFCURVE",
"1005 1141 QCURVE SMOOTH",
"641 771 OFFCURVE",
"566 771 QCURVE SMOOTH",
"551 771 OFFCURVE",
"551 808 QCURVE SMOOTH",
"551 989 OFFCURVE",
"637 1174 QCURVE SMOOTH",
"646 1193 OFFCURVE",
"738 1272 OFFCURVE",
"738 1291 QCURVE SMOOTH",
"738 1345 OFFCURVE",
"688 1345 QCURVE SMOOTH",
"644 1345 LINE",
"426 1344 LINE",
"382 1345 LINE",
"339 1345 LINE SMOOTH",
"308 1345 OFFCURVE",
"271 1321 QCURVE",
"249 1301 LINE",
"249 1265 OFFCURVE",
"332 1206 QCURVE SMOOTH",
"369 1180 OFFCURVE",
"369 1124 QCURVE",
"363 1083 LINE SMOOTH",
"359 1055 OFFCURVE",
"350 998 QCURVE SMOOTH",
"343 955 LINE SMOOTH",
"336 912 OFFCURVE",
"324 837 OFFCURVE",
"307 731 QCURVE SMOOTH",
"293 641 LINE SMOOTH",
"230 242 OFFCURVE",
"221 218 QCURVE SMOOTH",
"201 164 OFFCURVE",
"64 68 OFFCURVE",
"64 41 QCURVE SMOOTH",
"64 -1 OFFCURVE",
"411 -1 OFFCURVE",
"438 7 QCURVE SMOOTH",
"533 35 OFFCURVE",
"533 94 QCURVE SMOOTH",
"533 134 OFFCURVE",
"465 243 OFFCURVE",
"465 272 QCURVE SMOOTH",
"465 413 OFFCURVE",
"534 542 QCURVE SMOOTH",
"558 587 OFFCURVE",
"570 587 QCURVE SMOOTH",
"625 587 OFFCURVE",
"673 535 QCURVE",
"696 502 LINE SMOOTH",
"718 468 OFFCURVE",
"789 345 OFFCURVE",
"897 168 OFFCURVE",
"918 120 QCURVE SMOOTH",
"971 -2 OFFCURVE",
"1046 -3 QCURVE SMOOTH",
"1178 -3 OFFCURVE",
"1311 45 OFFCURVE",
"1311 72 QCURVE SMOOTH",
"1311 130 OFFCURVE",
"1149 197 OFFCURVE",
"1104 261 QCURVE SMOOTH",
"812 676 OFFCURVE",
"812 788 OFFCURVE",
"912 880 QCURVE SMOOTH",
"1088 1042 OFFCURVE",
"1210 1142 OFFCURVE",
"1414 1251 OFFCURVE",
"1414 1276 QCURVE SMOOTH",
"1414 1316 OFFCURVE",
"1284 1342 OFFCURVE",
"1021 1342 OFFCURVE",
"1021 1298 QCURVE SMOOTH"
);
}
);
width = 1384;
},
{
layerId = "BCD21CE1-B1BC-4ACC-96CF-D8EB86DFE113";
paths = (
{
closed = 1;
nodes = (
"1318 35 OFFCURVE",
"1206 110 QCURVE SMOOTH",
"1152 146 OFFCURVE",
"1094 227 QCURVE SMOOTH",
"797 639 OFFCURVE",
"797 752 QCURVE SMOOTH",
"797 789 OFFCURVE",
"865 866 OFFCURVE",
"1172 1145 QCURVE SMOOTH",
"1235 1203 OFFCURVE",
"1455 1341 OFFCURVE",
"1455 1343 QCURVE SMOOTH",
"1455 1384 OFFCURVE",
"1121 1384 OFFCURVE",
"1121 1344 QCURVE",
"1132 1317 LINE",
"1136 1299 LINE",
"1136 1249 OFFCURVE",
"641 785 OFFCURVE",
"557 785 QCURVE SMOOTH",
"534 785 OFFCURVE",
"534 817 QCURVE SMOOTH",
"534 981 OFFCURVE",
"598 1166 QCURVE SMOOTH",
"624 1240 OFFCURVE",
"735 1345 OFFCURVE",
"735 1364 QCURVE SMOOTH",
"735 1389 OFFCURVE",
"605 1389 OFFCURVE",
"575 1390 QCURVE SMOOTH",
"530 1392 LINE",
"483 1392 LINE SMOOTH",
"314 1392 OFFCURVE",
"314 1352 QCURVE SMOOTH",
"314 1341 OFFCURVE",
"347 1319 QCURVE SMOOTH",
"371 1302 LINE",
"403 1269 OFFCURVE",
"403 1149 OFFCURVE",
"222 233 OFFCURVE",
"190 107 OFFCURVE",
"139 84 QCURVE SMOOTH",
"54 46 OFFCURVE",
"54 34 QCURVE SMOOTH",
"54 0 OFFCURVE",
"143 0 QCURVE SMOOTH",
"324 0 OFFCURVE",
"475 28 OFFCURVE",
"475 59 QCURVE SMOOTH",
"475 72 OFFCURVE",
"454 101 QCURVE",
"434 125 LINE",
"414 158 OFFCURVE",
"414 188 QCURVE SMOOTH",
"414 369 OFFCURVE",
"489 552 QCURVE SMOOTH",
"524 636 OFFCURVE",
"632 636 OFFCURVE",
"718 499 QCURVE SMOOTH",
"896 217 OFFCURVE",
"946 85 QCURVE SMOOTH",
"970 23 OFFCURVE",
"977 12 QCURVE",
"1005 -23 OFFCURVE",
"1067 -23 QCURVE SMOOTH",
"1318 -23 OFFCURVE",
"1318 34 QCURVE SMOOTH"
);
}
);
width = 1423;
}
);
note = uni004B;
unicode = 004B;
},
{
glyphname = L;
layers = (
{
layerId = "92A672BF-229C-4BEC-8D25-4DDBB2A38145";
paths = (
{
closed = 1;
nodes = (
"836 -2 OFFCURVE",
"966 1 OFFCURVE",
"1000 27 CURVE SMOOTH",
"1043 59 OFFCURVE",
"1076 147 OFFCURVE",
"1099 291 CURVE SMOOTH",
"1105 332 OFFCURVE",
"1096 353 OFFCURVE",
"1072 353 CURVE SMOOTH",
"1052 353 OFFCURVE",
"879 165 OFFCURVE",
"845 148 CURVE SMOOTH",
"807 129 OFFCURVE",
"731 122 OFFCURVE",
"651 120 CURVE SMOOTH",
"541 117 OFFCURVE",
"426 130 OFFCURVE",
"412 165 CURVE SMOOTH",
"403 186 OFFCURVE",
"423 348 OFFCURVE",
"471 651 CURVE SMOOTH",
"519 954 OFFCURVE",
"549 1160 OFFCURVE",
"583 1214 CURVE SMOOTH",
"616 1268 OFFCURVE",
"729 1309 OFFCURVE",
"735 1346 CURVE SMOOTH",
"740 1378 OFFCURVE",
"702 1388 OFFCURVE",
"486 1393 CURVE SMOOTH",
"292 1397 OFFCURVE",
"223 1401 OFFCURVE",
"218 1354 CURVE SMOOTH",
"214 1308 OFFCURVE",
"318 1308 OFFCURVE",
"334 1256 CURVE SMOOTH",
"348 1205 OFFCURVE",
"326 1112 OFFCURVE",
"238 583 CURVE SMOOTH",
"203 362 OFFCURVE",
"175 230 OFFCURVE",
"158 189 CURVE SMOOTH",
"131 127 OFFCURVE",
"15 68 OFFCURVE",
"11 39 CURVE SMOOTH",
"7 14 OFFCURVE",
"164 -1 OFFCURVE",
"484 -1 CURVE SMOOTH"
);
}
);
width = 1213;
},
{
layerId = "5CBF0BAD-1756-4F16-9711-93DC239D102B";
paths = (
{
closed = 1;
nodes = (
"947 1 OFFCURVE",
"1044 0 OFFCURVE",
"1079 28 CURVE SMOOTH",
"1100 45 OFFCURVE",
"1169 199 OFFCURVE",
"1183 299 CURVE SMOOTH",
"1191 355 OFFCURVE",
"1191 379 OFFCURVE",
"1153 379 CURVE SMOOTH",
"1070 379 OFFCURVE",
"967 240 OFFCURVE",
"841 176 CURVE SMOOTH",
"792 151 OFFCURVE",
"727 142 OFFCURVE",
"629 142 CURVE SMOOTH",
"541 142 OFFCURVE",
"518 188 OFFCURVE",
"515 217 CURVE SMOOTH",
"512 246 OFFCURVE",
"532 397 OFFCURVE",
"575 671 CURVE SMOOTH",
"618 944 OFFCURVE",
"650 1097 OFFCURVE",
"659 1129 CURVE SMOOTH",
"685 1223 OFFCURVE",
"817 1277 OFFCURVE",
"827 1340 CURVE SMOOTH",
"833 1378 OFFCURVE",
"793 1389 OFFCURVE",
"708 1389 CURVE SMOOTH",
"299 1389 OFFCURVE",
"246 1374 OFFCURVE",
"239 1333 CURVE SMOOTH",
"229 1277 OFFCURVE",
"325 1239 OFFCURVE",
"344 1193 CURVE SMOOTH",
"365 1143 OFFCURVE",
"330 894 OFFCURVE",
"295 688 CURVE SMOOTH",
"264 505 OFFCURVE",
"219 276 OFFCURVE",
"198 219 CURVE SMOOTH",
"182 176 OFFCURVE",
"65 106 OFFCURVE",
"57 58 CURVE SMOOTH",
"49 7 OFFCURVE",
"69 -2 OFFCURVE",
"387 -1 CURVE SMOOTH"
);
}
);
width = 1230;
},
{
layerId = "7C3FA927-BF0B-46CA-AD8A-59E4DBC582B9";
paths = (
{
closed = 1;
nodes = (
"500 136 OFFCURVE",
"478 165 QCURVE SMOOTH",
"462 186 OFFCURVE",
"462 235 QCURVE SMOOTH",
"462 252 OFFCURVE",
"464 273 QCURVE SMOOTH",
"465 283 OFFCURVE",
"518 585 OFFCURVE",
"530 645 OFFCURVE",
"538 694 QCURVE SMOOTH",
"558 810 LINE SMOOTH",
"602 1065 OFFCURVE",
"615 1102 QCURVE SMOOTH",
"646 1190 OFFCURVE",
"701 1228 QCURVE SMOOTH",
"800 1297 OFFCURVE",
"800 1320 QCURVE SMOOTH",
"800 1358 OFFCURVE",
"558 1358 QCURVE SMOOTH",
"386 1359 LINE",
"357 1360 LINE SMOOTH",
"261 1360 OFFCURVE",
"261 1267 OFFCURVE",
"369 1187 OFFCURVE",
"369 1104 OFFCURVE",
"224 277 OFFCURVE",
"214 249 QCURVE SMOOTH",
"184 164 OFFCURVE",
"133 128 QCURVE SMOOTH",
"45 66 OFFCURVE",
"45 48 QCURVE SMOOTH",
"45 -3 OFFCURVE",
"98 -3 QCURVE SMOOTH",
"212 -1 LINE",
"274 -1 LINE",
"305 0 LINE",
"389 0 LINE",
"471 -1 LINE",
"561 -1 LINE",
"622 -2 LINE",
"743 -2 LINE",
"773 -3 LINE",
"889 -3 LINE SMOOTH",
"1020 -3 OFFCURVE",
"1052 44 QCURVE SMOOTH",
"1061 57 OFFCURVE",
"1132 311 OFFCURVE",
"1132 385 OFFCURVE",
"1107 385 QCURVE SMOOTH",
"1053 385 OFFCURVE",
"913 216 OFFCURVE",
"774 136 OFFCURVE",
"638 136 QCURVE SMOOTH"
);
}
);
width = 1172;
},
{
layerId = "BCD21CE1-B1BC-4ACC-96CF-D8EB86DFE113";
paths = (
{
closed = 1;
nodes = (
"404 127 OFFCURVE",
"404 183 QCURVE SMOOTH",
"404 209 OFFCURVE",
"590 1139 OFFCURVE",
"632 1274 OFFCURVE",
"786 1337 OFFCURVE",
"786 1369 QCURVE SMOOTH",
"786 1393 OFFCURVE",
"683 1393 QCURVE SMOOTH",
"653 1392 LINE",
"381 1392 LINE",
"351 1393 LINE SMOOTH",
"287 1393 OFFCURVE",
"287 1366 QCURVE SMOOTH",
"287 1349 OFFCURVE",
"370 1307 QCURVE SMOOTH",
"414 1285 OFFCURVE",
"414 1187 OFFCURVE",
"221 240 OFFCURVE",
"200 162 OFFCURVE",
"160 107 OFFCURVE",
"46 51 OFFCURVE",
"46 21 QCURVE SMOOTH",
"46 0 OFFCURVE",
"519 0 QCURVE SMOOTH",
"581 0 LINE",
"644 -1 LINE",
"736 -1 LINE",
"766 -2 LINE",
"946 -2 LINE SMOOTH",
"1045 -2 OFFCURVE",
"1080 57 QCURVE SMOOTH",
"1157 185 OFFCURVE",
"1157 302 QCURVE SMOOTH",
"1157 335 OFFCURVE",
"1147 335 QCURVE SMOOTH",
"1115 335 OFFCURVE",
"989 178 OFFCURVE",
"839 92 OFFCURVE",
"516 92 OFFCURVE",
"468 107 QCURVE SMOOTH"
);
}
);
width = 1213;
}
);
note = uni004C;
unicode = 004C;
},
{
glyphname = Lslash;
layers = (
{
layerId = "92A672BF-229C-4BEC-8D25-4DDBB2A38145";
paths = (
{
closed = 1;
nodes = (
"818 5 LINE SMOOTH",
"1033 5 OFFCURVE",
"1088 61 OFFCURVE",
"1121 269 CURVE SMOOTH",
"1130 322 OFFCURVE",
"1122 347 OFFCURVE",
"1101 345 CURVE SMOOTH",
"1081 343 OFFCURVE",
"1048 316 OFFCURVE",
"1005 267 CURVE SMOOTH",
"913 162 OFFCURVE",
"845 104 OFFCURVE",
"647 104 CURVE SMOOTH",
"449 104 OFFCURVE",
"407 147 OFFCURVE",
"441 364 CURVE SMOOTH",
"453 439 OFFCURVE",
"485 559 OFFCURVE",
"540 608 CURVE SMOOTH",
"642 700 OFFCURVE",
"826 808 OFFCURVE",
"836 867 CURVE SMOOTH",
"839 889 OFFCURVE",
"828 896 OFFCURVE",
"808 894 CURVE SMOOTH",
"752 889 OFFCURVE",
"627 814 OFFCURVE",
"572 814 CURVE SMOOTH",
"533 814 OFFCURVE",
"533 903 OFFCURVE",
"546 994 CURVE SMOOTH",
"555 1064 OFFCURVE",
"573 1135 OFFCURVE",
"588 1170 CURVE SMOOTH",
"600 1196 OFFCURVE",
"715 1295 OFFCURVE",
"720 1326 CURVE SMOOTH",
"726 1370 OFFCURVE",
"642 1372 OFFCURVE",
"366 1372 CURVE SMOOTH",
"287 1372 OFFCURVE",
"245 1356 OFFCURVE",
"240 1325 CURVE SMOOTH",
"236 1295 OFFCURVE",
"334 1212 OFFCURVE",
"337 1195 CURVE SMOOTH",
"343 1168 OFFCURVE",
"336 1094 OFFCURVE",
"317 975 CURVE SMOOTH",
"298 856 OFFCURVE",
"277 779 OFFCURVE",
"266 743 CURVE SMOOTH",
"249 685 OFFCURVE",
"121 595 OFFCURVE",
"113 546 CURVE SMOOTH",
"106 499 OFFCURVE",
"195 505 OFFCURVE",
"214 476 CURVE SMOOTH",
"226 454 OFFCURVE",
"224 396 OFFCURVE",
"215 335 CURVE SMOOTH",
"206 274 OFFCURVE",
"189 210 OFFCURVE",
"172 178 CURVE SMOOTH",
"156 147 OFFCURVE",
"35 55 OFFCURVE",
"31 31 CURVE SMOOTH",
"28 9 OFFCURVE",
"66 -2 OFFCURVE",
"146 -2 CURVE SMOOTH"
);
}
);
width = 1252;
},
{
layerId = "5CBF0BAD-1756-4F16-9711-93DC239D102B";
paths = (
{
closed = 1;
nodes = (
"912 0 LINE SMOOTH",
"1087 0 OFFCURVE",
"1133 32 OFFCURVE",
"1171 287 CURVE SMOOTH",
"1179 341 OFFCURVE",
"1180 364 OFFCURVE",
"1147 364 CURVE SMOOTH",
"1074 364 OFFCURVE",
"955 227 OFFCURVE",
"892 189 CURVE SMOOTH",
"829 151 OFFCURVE",
"771 132 OFFCURVE",
"718 132 CURVE SMOOTH",
"554 132 OFFCURVE",
"490 189 OFFCURVE",
"516 354 CURVE SMOOTH",
"556 607 OFFCURVE",
"610 658 OFFCURVE",
"766 762 CURVE SMOOTH",
"844 814 OFFCURVE",
"885 852 OFFCURVE",
"889 877 CURVE SMOOTH",
"897 927 OFFCURVE",
"884 948 OFFCURVE",
"854 947 CURVE SMOOTH",
"795 945 OFFCURVE",
"689 859 OFFCURVE",
"639 859 CURVE SMOOTH",
"612 859 OFFCURVE",
"604 890 OFFCURVE",
"614 953 CURVE SMOOTH",
"624 1015 OFFCURVE",
"641 1076 OFFCURVE",
"679 1125 CURVE SMOOTH",
"733 1195 OFFCURVE",
"791 1238 OFFCURVE",
"794 1259 CURVE SMOOTH",
"800 1298 OFFCURVE",
"750 1317 OFFCURVE",
"645 1317 CURVE SMOOTH",
"296 1317 OFFCURVE",
"268 1310 OFFCURVE",
"262 1273 CURVE SMOOTH",
"255 1230 OFFCURVE",
"359 1174 OFFCURVE",
"374 1121 CURVE SMOOTH",
"381 1096 OFFCURVE",
"371 1001 OFFCURVE",
"359 919 CURVE SMOOTH",
"340 790 OFFCURVE",
"318 710 OFFCURVE",
"301 692 CURVE SMOOTH",
"212 597 OFFCURVE",
"145 525 OFFCURVE",
"137 476 CURVE SMOOTH",
"132 444 OFFCURVE",
"156 429 OFFCURVE",
"221 429 CURVE SMOOTH",
"267 429 OFFCURVE",
"278 405 OFFCURVE",
"266 330 CURVE SMOOTH",
"258 279 OFFCURVE",
"242 221 OFFCURVE",
"217 190 CURVE SMOOTH",
"134 87 OFFCURVE",
"66 64 OFFCURVE",
"59 30 CURVE SMOOTH",
"55 10 OFFCURVE",
"87 0 OFFCURVE",
"153 0 CURVE SMOOTH"
);
}
);
width = 1253;
},
{
layerId = "7C3FA927-BF0B-46CA-AD8A-59E4DBC582B9";
paths = (
{
closed = 1;
nodes = (
"30 -5 OFFCURVE",
"73 -5 QCURVE SMOOTH",
"138 -4 LINE",
"172 -3 LINE",
"272 -1 LINE",
"332 -1 LINE",
"709 -5 LINE",
"775 -5 LINE",
"808 -6 LINE",
"873 -6 LINE SMOOTH",
"975 -6 OFFCURVE",
"1019 48 OFFCURVE",
"1082 247 OFFCURVE",
"1082 328 OFFCURVE",
"1045 328 QCURVE SMOOTH",
"1034 328 OFFCURVE",
"818 171 OFFCURVE",
"790 159 QCURVE SMOOTH",
"712 125 OFFCURVE",
"603 125 QCURVE SMOOTH",
"455 125 OFFCURVE",
"455 223 QCURVE SMOOTH",
"455 483 OFFCURVE",
"509 567 QCURVE SMOOTH",
"536 608 OFFCURVE",
"821 862 OFFCURVE",
"821 918 OFFCURVE",
"790 918 OFFCURVE",
"688 885 OFFCURVE",
"651 867 QCURVE",
"623 852 LINE",
"587 836 OFFCURVE",
"575 836 QCURVE SMOOTH",
"547 836 OFFCURVE",
"547 907 QCURVE SMOOTH",
"547 1084 OFFCURVE",
"651 1220 QCURVE SMOOTH",
"707 1294 OFFCURVE",
"707 1314 QCURVE SMOOTH",
"707 1363 OFFCURVE",
"574 1363 QCURVE SMOOTH",
"541 1363 LINE",
"477 1361 LINE SMOOTH",
"239 1361 OFFCURVE",
"239 1292 QCURVE SMOOTH",
"239 1269 OFFCURVE",
"338 1220 OFFCURVE",
"338 1180 QCURVE SMOOTH",
"338 1113 OFFCURVE",
"257 839 OFFCURVE",
"249 714 OFFCURVE",
"242 693 OFFCURVE",
"112 513 OFFCURVE",
"112 471 QCURVE SMOOTH",
"112 447 OFFCURVE",
"157 447 QCURVE",
"201 453 LINE",
"222 453 OFFCURVE",
"222 438 QCURVE SMOOTH",
"222 250 OFFCURVE",
"171 150 QCURVE SMOOTH",
"158 124 OFFCURVE",
"73 83 QCURVE SMOOTH",
"30 62 OFFCURVE",
"30 18 QCURVE SMOOTH"
);
}
);
width = 1126;
},
{
layerId = "BCD21CE1-B1BC-4ACC-96CF-D8EB86DFE113";
paths = (
{
closed = 1;
nodes = (
"42 -2 OFFCURVE",
"90 -2 QCURVE SMOOTH",
"234 1 LINE",
"341 2 LINE",
"742 -3 LINE",
"778 -4 LINE",
"957 -4 LINE SMOOTH",
"1036 -4 OFFCURVE",
"1071 39 QCURVE SMOOTH",
"1090 63 OFFCURVE",
"1152 259 OFFCURVE",
"1152 326 OFFCURVE",
"1133 326 QCURVE SMOOTH",
"1108 326 OFFCURVE",
"961 156 OFFCURVE",
"815 85 OFFCURVE",
"510 85 OFFCURVE",
"472 98 QCURVE SMOOTH",
"394 124 OFFCURVE",
"394 244 OFFCURVE",
"471 537 OFFCURVE",
"491 570 QCURVE SMOOTH",
"541 654 OFFCURVE",
"864 816 OFFCURVE",
"864 858 QCURVE SMOOTH",
"864 883 OFFCURVE",
"821 883 OFFCURVE",
"620 806 OFFCURVE",
"593 806 QCURVE SMOOTH",
"551 806 OFFCURVE",
"551 852 QCURVE SMOOTH",
"551 1024 OFFCURVE",
"620 1179 QCURVE SMOOTH",
"645 1235 OFFCURVE",
"756 1323 OFFCURVE",
"756 1355 QCURVE SMOOTH",
"756 1395 OFFCURVE",
"623 1395 QCURVE SMOOTH",
"588 1395 LINE",
"516 1394 LINE",
"480 1395 LINE SMOOTH",
"313 1395 OFFCURVE",
"313 1359 QCURVE SMOOTH",
"313 1336 OFFCURVE",
"418 1268 OFFCURVE",
"418 1213 QCURVE SMOOTH",
"418 1185 OFFCURVE",
"303 731 OFFCURVE",
"279 685 OFFCURVE",
"155 573 OFFCURVE",
"155 518 OFFCURVE",
"213 508 QCURVE SMOOTH",
"255 501 OFFCURVE",
"255 458 QCURVE SMOOTH",
"255 338 OFFCURVE",
"190 185 QCURVE SMOOTH",
"166 129 OFFCURVE",
"42 29 OFFCURVE",
"42 28 QCURVE SMOOTH"
);
}
);
width = 1210;
}
);
note = uni0141;
unicode = 0141;
},
{
glyphname = M;
layers = (
{
layerId = "92A672BF-229C-4BEC-8D25-4DDBB2A38145";
paths = (
{
closed = 1;
nodes = (
"259 6 OFFCURVE",
"349 34 OFFCURVE",
"353 58 CURVE SMOOTH",
"360 106 OFFCURVE",
"338 129 OFFCURVE",
"333 216 CURVE SMOOTH",
"326 303 OFFCURVE",
"325 354 OFFCURVE",
"335 417 CURVE SMOOTH",
"401 836 OFFCURVE",
"458 1065 OFFCURVE",
"481 1067 CURVE SMOOTH",
"502 1069 OFFCURVE",
"547 928 OFFCURVE",
"617 650 CURVE SMOOTH",
"704 301 OFFCURVE",
"745 81 OFFCURVE",
"806 81 CURVE SMOOTH",
"864 81 OFFCURVE",
"897 136 OFFCURVE",
"1222 693 CURVE SMOOTH",
"1375 948 OFFCURVE",
"1456 1075 OFFCURVE",
"1465 1075 CURVE SMOOTH",
"1485 1014 OFFCURVE",
"1477 899 OFFCURVE",
"1440 644 CURVE SMOOTH",
"1430 571 OFFCURVE",
"1417 487 OFFCURVE",
"1401 389 CURVE SMOOTH",
"1379 248 OFFCURVE",
"1316 158 OFFCURVE",
"1302 100 CURVE SMOOTH",
"1282 10 OFFCURVE",
"1349 16 OFFCURVE",
"1460 17 CURVE SMOOTH",
"1580 18 OFFCURVE",
"1674 0 OFFCURVE",
"1683 55 CURVE SMOOTH",
"1687 79 OFFCURVE",
"1589 180 OFFCURVE",
"1588 216 CURVE SMOOTH",
"1584 329 OFFCURVE",
"1585 408 OFFCURVE",
"1657 865 CURVE SMOOTH",
"1668 934 OFFCURVE",
"1718 1195 OFFCURVE",
"1744 1230 CURVE SMOOTH",
"1767 1260 OFFCURVE",
"1831 1289 OFFCURVE",
"1836 1326 CURVE SMOOTH",
"1842 1360 OFFCURVE",
"1804 1377 OFFCURVE",
"1724 1377 CURVE SMOOTH",
"1596 1377 OFFCURVE",
"1542 1365 OFFCURVE",
"1469 1270 CURVE SMOOTH",
"1440 1233 OFFCURVE",
"916 402 OFFCURVE",
"890 403 CURVE SMOOTH",
"846 405 OFFCURVE",
"648 1201 OFFCURVE",
"642 1218 CURVE SMOOTH",
"598 1335 OFFCURVE",
"553 1374 OFFCURVE",
"428 1374 CURVE SMOOTH",
"321 1374 OFFCURVE",
"266 1361 OFFCURVE",
"262 1335 CURVE SMOOTH",
"259 1319 OFFCURVE",
"334 1236 OFFCURVE",
"344 1207 CURVE SMOOTH",
"355 1170 OFFCURVE",
"334 979 OFFCURVE",
"318 879 CURVE SMOOTH",
"309 824 OFFCURVE",
"219 383 OFFCURVE",
"167 220 CURVE SMOOTH",
"151 170 OFFCURVE",
"25 106 OFFCURVE",
"19 69 CURVE SMOOTH",
"12 24 OFFCURVE",
"92 7 OFFCURVE",
"174 6 CURVE SMOOTH"
);
}
);
width = 1902;
},
{
layerId = "5CBF0BAD-1756-4F16-9711-93DC239D102B";
paths = (
{
closed = 1;
nodes = (
"363 21 OFFCURVE",
"440 42 OFFCURVE",
"445 74 CURVE SMOOTH",
"451 113 OFFCURVE",
"451 167 OFFCURVE",
"457 230 CURVE SMOOTH",
"469 358 OFFCURVE",
"482 523 OFFCURVE",
"506 674 CURVE SMOOTH",
"535 857 OFFCURVE",
"559 949 OFFCURVE",
"580 949 CURVE SMOOTH",
"600 949 OFFCURVE",
"658 741 OFFCURVE",
"716 500 CURVE SMOOTH",
"812 101 OFFCURVE",
"834 59 OFFCURVE",
"898 59 CURVE SMOOTH",
"959 59 OFFCURVE",
"1001 83 OFFCURVE",
"1298 625 CURVE SMOOTH",
"1420 848 OFFCURVE",
"1485 959 OFFCURVE",
"1502 959 CURVE SMOOTH",
"1524 959 OFFCURVE",
"1472 716 OFFCURVE",
"1468 607 CURVE SMOOTH",
"1464 499 OFFCURVE",
"1446 375 OFFCURVE",
"1437 319 CURVE SMOOTH",
"1423 230 OFFCURVE",
"1282 123 OFFCURVE",
"1273 64 CURVE SMOOTH",
"1261 -13 OFFCURVE",
"1484 30 OFFCURVE",
"1641 30 CURVE SMOOTH",
"1721 30 OFFCURVE",
"1763 49 OFFCURVE",
"1770 87 CURVE SMOOTH",
"1775 116 OFFCURVE",
"1703 143 OFFCURVE",
"1679 208 CURVE SMOOTH",
"1658 264 OFFCURVE",
"1715 512 OFFCURVE",
"1733 660 CURVE SMOOTH",
"1776 1015 OFFCURVE",
"1782 1097 OFFCURVE",
"1824 1174 CURVE SMOOTH",
"1850 1222 OFFCURVE",
"1924 1262 OFFCURVE",
"1933 1321 CURVE SMOOTH",
"1937 1347 OFFCURVE",
"1867 1368 OFFCURVE",
"1722 1368 CURVE SMOOTH",
"1492 1368 OFFCURVE",
"1450 1222 OFFCURVE",
"1260 890 CURVE SMOOTH",
"1122 649 OFFCURVE",
"1053 537 OFFCURVE",
"1012 537 CURVE SMOOTH",
"981 537 OFFCURVE",
"894 841 OFFCURVE",
"857 1008 CURVE SMOOTH",
"790 1312 OFFCURVE",
"695 1381 OFFCURVE",
"439 1381 CURVE SMOOTH",
"369 1381 OFFCURVE",
"327 1363 OFFCURVE",
"321 1326 CURVE SMOOTH",
"315 1289 OFFCURVE",
"381 1150 OFFCURVE",
"385 1092 CURVE SMOOTH",
"392 995 OFFCURVE",
"350 800 OFFCURVE",
"301 569 CURVE SMOOTH",
"255 353 OFFCURVE",
"237 271 OFFCURVE",
"228 242 CURVE SMOOTH",
"213 195 OFFCURVE",
"117 115 OFFCURVE",
"109 68 CURVE SMOOTH",
"104 37 OFFCURVE",
"164 21 OFFCURVE",
"288 21 CURVE SMOOTH"
);
}
);
width = 1928;
},
{
layerId = "7C3FA927-BF0B-46CA-AD8A-59E4DBC582B9";
paths = (
{
closed = 1;
nodes = (
"1675 -1 OFFCURVE",
"1675 71 QCURVE",
"1656 93 LINE",
"1636 121 LINE",
"1621 161 LINE",
"1601 225 OFFCURVE",
"1601 297 OFFCURVE",
"1705 1070 OFFCURVE",
"1735 1163 QCURVE SMOOTH",
"1752 1214 OFFCURVE",
"1853 1281 OFFCURVE",
"1853 1297 QCURVE",
"1843 1321 LINE",
"1811 1354 OFFCURVE",
"1542 1354 OFFCURVE",
"1440 1246 QCURVE SMOOTH",
"1397 1200 OFFCURVE",
"964 469 OFFCURVE",
"929 469 QCURVE",
"910 510 LINE",
"819 855 LINE SMOOTH",
"721 1211 OFFCURVE",
"709 1229 QCURVE SMOOTH",
"670 1287 OFFCURVE",
"534 1356 OFFCURVE",
"449 1356 QCURVE SMOOTH",
"392 1356 LINE SMOOTH",
"360 1356 OFFCURVE",
"314 1329 QCURVE SMOOTH",
"294 1317 OFFCURVE",
"294 1285 QCURVE",
"326 1209 LINE",
"340 1168 LINE SMOOTH",
"356 1118 OFFCURVE",
"356 1041 OFFCURVE",
"222 344 OFFCURVE",
"184 219 OFFCURVE",
"50 81 OFFCURVE",
"50 60 QCURVE SMOOTH",
"50 20 OFFCURVE",
"154 -1 OFFCURVE",
"390 -1 OFFCURVE",
"417 33 QCURVE",
"423 60 LINE",
"423 76 OFFCURVE",
"393 164 QCURVE SMOOTH",
"381 199 OFFCURVE",
"381 398 OFFCURVE",
"479 877 OFFCURVE",
"486 903 QCURVE",
"499 940 LINE",
"543 940 OFFCURVE",
"665 483 QCURVE SMOOTH",
"695 371 LINE SMOOTH",
"713 307 OFFCURVE",
"725 261 QCURVE SMOOTH",
"740 206 LINE",
"757 154 LINE",
"788 90 OFFCURVE",
"817 90 QCURVE SMOOTH",
"884 90 OFFCURVE",
"936 159 QCURVE SMOOTH",
"956 186 OFFCURVE",
"1210 609 QCURVE SMOOTH",
"1300 760 LINE SMOOTH",
"1349 843 OFFCURVE",
"1389 905 QCURVE SMOOTH",
"1417 948 LINE",
"1451 979 LINE",
"1454 953 LINE",
"1454 927 OFFCURVE",
"1389 436 OFFCURVE",
"1351 249 OFFCURVE",
"1309 182 QCURVE",
"1247 106 LINE SMOOTH",
"1211 63 OFFCURVE",
"1211 36 QCURVE SMOOTH",
"1211 -1 OFFCURVE",
"1414 -1 QCURVE SMOOTH",
"1529 -1 LINE SMOOTH"
);
}
);
width = 1805;
},
{
layerId = "BCD21CE1-B1BC-4ACC-96CF-D8EB86DFE113";
paths = (
{
closed = 1;
nodes = (
"1667 0 OFFCURVE",
"1667 47 QCURVE",
"1604 105 LINE SMOOTH",
"1561 144 OFFCURVE",
"1561 186 QCURVE",
"1566 241 LINE",
"1618 541 LINE SMOOTH",
"1714 1109 OFFCURVE",
"1758 1261 OFFCURVE",
"1814 1306 QCURVE",
"1853 1332 LINE",
"1876 1354 LINE",
"1876 1388 OFFCURVE",
"1625 1388 OFFCURVE",
"1490 1261 OFFCURVE",
"942 382 OFFCURVE",
"920 382 QCURVE",
"901 413 LINE",
"886 469 LINE SMOOTH",
"876 510 OFFCURVE",
"838 678 OFFCURVE",
"727 1147 OFFCURVE",
"647 1338 OFFCURVE",
"556 1385 OFFCURVE",
"492 1385 QCURVE SMOOTH",
"352 1385 OFFCURVE",
"352 1352 QCURVE SMOOTH",
"352 1327 OFFCURVE",
"391 1246 OFFCURVE",
"391 1215 QCURVE SMOOTH",
"391 932 OFFCURVE",
"228 329 QCURVE SMOOTH",
"188 181 OFFCURVE",
"67 77 OFFCURVE",
"67 42 QCURVE",
"95 23 LINE",
"145 4 OFFCURVE",
"277 4 QCURVE SMOOTH",
"361 4 OFFCURVE",
"361 45 QCURVE",
"343 99 LINE",
"336 132 LINE",
"336 288 OFFCURVE",
"414 598 OFFCURVE",
"498 1065 OFFCURVE",
"530 1065 QCURVE SMOOTH",
"552 1065 OFFCURVE",
"776 109 OFFCURVE",
"809 109 QCURVE SMOOTH",
"868 109 OFFCURVE",
"924 181 QCURVE SMOOTH",
"954 219 OFFCURVE",
"1494 1087 OFFCURVE",
"1529 1087 OFFCURVE",
"1529 1061 QCURVE SMOOTH",
"1529 901 OFFCURVE",
"1391 288 QCURVE SMOOTH",
"1370 194 OFFCURVE",
"1336 137 QCURVE",
"1270 46 LINE",
"1270 0 OFFCURVE",
"1392 0 QCURVE SMOOTH"
);
}
);
width = 1839;
}
);
note = uni004D;
unicode = 004D;
},
{
glyphname = N;
layers = (
{
anchors = (
{
name = top;
position = "{881, 1385}";
}
);
layerId = "92A672BF-229C-4BEC-8D25-4DDBB2A38145";
paths = (
{
closed = 1;
nodes = (
"337 0 OFFCURVE",
"385 19 OFFCURVE",
"391 56 CURVE SMOOTH",
"399 109 OFFCURVE",
"339 134 OFFCURVE",
"333 190 CURVE SMOOTH",
"324 271 OFFCURVE",
"352 500 OFFCURVE",
"384 700 CURVE SMOOTH",
"415 894 OFFCURVE",
"454 1101 OFFCURVE",
"467 1101 CURVE SMOOTH",
"492 1101 OFFCURVE",
"585 953 OFFCURVE",
"747 657 CURVE SMOOTH",
"908 360 OFFCURVE",
"1001 193 OFFCURVE",
"1026 154 CURVE SMOOTH",
"1084 65 OFFCURVE",
"1132 6 OFFCURVE",
"1174 6 CURVE SMOOTH",
"1228 6 OFFCURVE",
"1248 74 OFFCURVE",
"1297 367 CURVE SMOOTH",
"1353 700 LINE SMOOTH",
"1385 892 OFFCURVE",
"1427 1106 OFFCURVE",
"1454 1192 CURVE SMOOTH",
"1468 1239 OFFCURVE",
"1590 1287 OFFCURVE",
"1599 1342 CURVE SMOOTH",
"1602 1364 OFFCURVE",
"1542 1386 OFFCURVE",
"1413 1386 CURVE SMOOTH",
"1278 1386 OFFCURVE",
"1214 1369 OFFCURVE",
"1211 1346 CURVE SMOOTH",
"1207 1309 OFFCURVE",
"1271 1313 OFFCURVE",
"1300 1207 CURVE SMOOTH",
"1309 1174 OFFCURVE",
"1294 1078 OFFCURVE",
"1233 700 CURVE SMOOTH",
"1193 449 OFFCURVE",
"1169 366 OFFCURVE",
"1148 366 CURVE SMOOTH",
"1104 366 OFFCURVE",
"711 1139 OFFCURVE",
"581 1291 CURVE SMOOTH",
"525 1355 OFFCURVE",
"467 1382 OFFCURVE",
"310 1382 CURVE SMOOTH",
"261 1382 OFFCURVE",
"235 1372 OFFCURVE",
"230 1338 CURVE SMOOTH",
"225 1304 OFFCURVE",
"330 1257 OFFCURVE",
"335 1157 CURVE SMOOTH",
"338 1108 OFFCURVE",
"317 960 OFFCURVE",
"273 700 CURVE SMOOTH",
"239 501 OFFCURVE",
"209 295 OFFCURVE",
"172 195 CURVE SMOOTH",
"147 127 OFFCURVE",
"22 105 OFFCURVE",
"11 40 CURVE SMOOTH",
"7 12 OFFCURVE",
"80 5 OFFCURVE",
"175 3 CURVE SMOOTH"
);
}
);
width = 1592;
},
{
anchors = (
{
name = top;
position = "{912, 1374}";
}
);
layerId = "5CBF0BAD-1756-4F16-9711-93DC239D102B";
paths = (
{
closed = 1;
nodes = (
"411 7 OFFCURVE",
"475 25 OFFCURVE",
"482 64 CURVE SMOOTH",
"490 106 OFFCURVE",
"438 148 OFFCURVE",
"441 226 CURVE SMOOTH",
"447 371 OFFCURVE",
"451 534 OFFCURVE",
"480 715 CURVE SMOOTH",
"509 896 OFFCURVE",
"529 986 OFFCURVE",
"543 986 CURVE SMOOTH",
"575 986 OFFCURVE",
"662 853 OFFCURVE",
"801 587 CURVE SMOOTH",
"940 321 OFFCURVE",
"1018 179 OFFCURVE",
"1030 160 CURVE SMOOTH",
"1087 69 OFFCURVE",
"1141 17 OFFCURVE",
"1215 17 CURVE SMOOTH",
"1268 17 OFFCURVE",
"1294 37 OFFCURVE",
"1317 163 CURVE SMOOTH",
"1445 872 LINE SMOOTH",
"1470 1011 OFFCURVE",
"1478 1071 OFFCURVE",
"1487 1105 CURVE SMOOTH",
"1507 1180 OFFCURVE",
"1628 1206 OFFCURVE",
"1640 1279 CURVE SMOOTH",
"1649 1335 OFFCURVE",
"1575 1359 OFFCURVE",
"1334 1359 CURVE SMOOTH",
"1273 1359 OFFCURVE",
"1239 1344 OFFCURVE",
"1236 1314 CURVE SMOOTH",
"1235 1303 OFFCURVE",
"1243 1282 OFFCURVE",
"1263 1253 CURVE SMOOTH",
"1298 1202 OFFCURVE",
"1301 1079 OFFCURVE",
"1269 884 CURVE SMOOTH",
"1212 534 OFFCURVE",
"1177 498 OFFCURVE",
"1153 498 CURVE SMOOTH",
"1123 498 OFFCURVE",
"749 1189 OFFCURVE",
"709 1239 CURVE SMOOTH",
"636 1331 OFFCURVE",
"550 1376 OFFCURVE",
"442 1376 CURVE SMOOTH",
"304 1376 OFFCURVE",
"257 1364 OFFCURVE",
"246 1301 CURVE SMOOTH",
"235 1240 OFFCURVE",
"343 1200 OFFCURVE",
"353 1129 CURVE SMOOTH",
"370 1010 OFFCURVE",
"315 794 OFFCURVE",
"275 574 CURVE SMOOTH",
"222 282 OFFCURVE",
"211 239 OFFCURVE",
"198 204 CURVE SMOOTH",
"180 157 OFFCURVE",
"71 121 OFFCURVE",
"65 83 CURVE SMOOTH",
"53 7 OFFCURVE",
"117 7 OFFCURVE",
"230 7 CURVE SMOOTH"
);
}
);
width = 1562;
},
{
layerId = "7C3FA927-BF0B-46CA-AD8A-59E4DBC582B9";
paths = (
{
closed = 1;
nodes = (
"49 92 OFFCURVE",
"49 36 QCURVE SMOOTH",
"49 -1 OFFCURVE",
"389 -1 OFFCURVE",
"405 2 QCURVE SMOOTH",
"469 14 OFFCURVE",
"469 48 QCURVE SMOOTH",
"469 72 OFFCURVE",
"385 175 OFFCURVE",
"385 217 QCURVE SMOOTH",
"385 318 OFFCURVE",
"498 959 OFFCURVE",
"510 996 OFFCURVE",
"531 996 QCURVE SMOOTH",
"542 996 OFFCURVE",
"1004 136 OFFCURVE",
"1034 94 QCURVE SMOOTH",
"1112 -16 OFFCURVE",
"1202 -16 QCURVE SMOOTH",
"1234 -16 OFFCURVE",
"1429 1103 OFFCURVE",
"1450 1156 OFFCURVE",
"1543 1238 QCURVE SMOOTH",
"1594 1283 OFFCURVE",
"1594 1359 OFFCURVE",
"1512 1359 QCURVE SMOOTH",
"1418 1359 LINE SMOOTH",
"1270 1359 OFFCURVE",
"1190 1318 OFFCURVE",
"1190 1277 QCURVE SMOOTH",
"1190 1265 OFFCURVE",
"1218 1232 QCURVE",
"1241 1207 LINE",
"1262 1172 OFFCURVE",
"1262 1138 QCURVE SMOOTH",
"1262 997 OFFCURVE",
"1166 450 OFFCURVE",
"1157 428 QCURVE",
"1145 410 LINE",
"1134 410 OFFCURVE",
"711 1186 OFFCURVE",
"697 1204 QCURVE SMOOTH",
"640 1274 OFFCURVE",
"489 1359 OFFCURVE",
"326 1359 OFFCURVE",
"288 1339 QCURVE SMOOTH",
"268 1328 OFFCURVE",
"268 1249 OFFCURVE",
"364 1177 OFFCURVE",
"364 1070 OFFCURVE",
"221 256 OFFCURVE",
"198 196 OFFCURVE",
"95 124 QCURVE SMOOTH"
);
}
);
width = 1495;
},
{
layerId = "BCD21CE1-B1BC-4ACC-96CF-D8EB86DFE113";
paths = (
{
closed = 1;
nodes = (
"296 1332 OFFCURVE",
"408 1249 OFFCURVE",
"408 1217 QCURVE SMOOTH",
"408 1107 OFFCURVE",
"361 892 QCURVE SMOOTH",
"321 696 LINE SMOOTH",
"238 303 OFFCURVE",
"202 175 OFFCURVE",
"174 140 QCURVE SMOOTH",
"165 129 OFFCURVE",
"79 70 QCURVE SMOOTH",
"53 52 OFFCURVE",
"53 -4 OFFCURVE",
"296 -4 QCURVE SMOOTH",
"387 -4 LINE SMOOTH",
"447 -4 OFFCURVE",
"447 43 QCURVE SMOOTH",
"447 57 OFFCURVE",
"408 89 QCURVE",
"380 109 LINE",
"348 143 OFFCURVE",
"348 300 OFFCURVE",
"440 746 OFFCURVE",
"496 1054 OFFCURVE",
"506 1081 QCURVE",
"521 1109 LINE",
"549 1109 OFFCURVE",
"1011 235 OFFCURVE",
"1024 216 QCURVE SMOOTH",
"1114 83 OFFCURVE",
"1201 8 OFFCURVE",
"1231 8 QCURVE SMOOTH",
"1272 8 OFFCURVE",
"1280 65 QCURVE SMOOTH",
"1412 952 OFFCURVE",
"1485 1169 QCURVE SMOOTH",
"1519 1270 OFFCURVE",
"1654 1342 OFFCURVE",
"1654 1361 QCURVE SMOOTH",
"1654 1389 OFFCURVE",
"1428 1389 QCURVE SMOOTH",
"1383 1389 LINE SMOOTH",
"1299 1389 OFFCURVE",
"1299 1345 QCURVE SMOOTH",
"1299 1335 OFFCURVE",
"1335 1261 OFFCURVE",
"1355 1191 OFFCURVE",
"1355 1015 OFFCURVE",
"1285 695 OFFCURVE",
"1275 639 QCURVE SMOOTH",
"1255 541 LINE SMOOTH",
"1222 383 OFFCURVE",
"1214 362 QCURVE",
"1199 335 LINE",
"1161 335 OFFCURVE",
"689 1248 OFFCURVE",
"607 1333 OFFCURVE",
"441 1387 OFFCURVE",
"296 1387 OFFCURVE",
"296 1364 QCURVE SMOOTH"
);
}
);
width = 1576;
}
);
note = uni004E;
unicode = 004E;
},
{
glyphname = Nacute;
layers = (
{
components = (
{
name = N;
transform = "{1, 0, 0.15838, 1, -145, 0}";
},
{
name = acutecomb;
transform = "{1, 0, 0.15838, 1, 683, 338}";
}
);
layerId = "92A672BF-229C-4BEC-8D25-4DDBB2A38145";
width = 1592;
},
{
components = (
{
name = N;
},
{
name = acutecomb;
transform = "{1, 0, 0, 1, 818, 340}";
}
);
layerId = "5CBF0BAD-1756-4F16-9711-93DC239D102B";
width = 1562;
},
{
layerId = "7C3FA927-BF0B-46CA-AD8A-59E4DBC582B9";
paths = (
{
closed = 1;
nodes = (
"820 1453 OFFCURVE",
"1119 1616 QCURVE SMOOTH",
"1208 1665 OFFCURVE",
"1208 1677 QCURVE SMOOTH",
"1208 1681 OFFCURVE",
"1210 1691 QCURVE",
"1210 1707 LINE SMOOTH",
"1210 1722 OFFCURVE",
"1132 1777 OFFCURVE",
"1077 1777 QCURVE SMOOTH",
"1071 1777 LINE SMOOTH",
"1037 1777 OFFCURVE",
"740 1513 OFFCURVE",
"740 1499 QCURVE SMOOTH",
"740 1453 OFFCURVE",
"774 1453 QCURVE SMOOTH",
"782 1453 LINE SMOOTH"
);
},
{
closed = 1;
nodes = (
"1316 1362 OFFCURVE",
"1255 1346 QCURVE SMOOTH",
"1166 1323 OFFCURVE",
"1166 1274 QCURVE SMOOTH",
"1166 1271 OFFCURVE",
"1217 1196 QCURVE SMOOTH",
"1239 1164 OFFCURVE",
"1239 1060 OFFCURVE",
"1121 405 OFFCURVE",
"1100 405 QCURVE",
"873 811 LINE SMOOTH",
"824 899 OFFCURVE",
"766 1008 QCURVE SMOOTH",
"659 1209 LINE",
"604 1281 OFFCURVE",
"506 1335 QCURVE SMOOTH",
"457 1362 OFFCURVE",
"239 1362 OFFCURVE",
"239 1316 QCURVE SMOOTH",
"239 1309 OFFCURVE",
"328 1201 OFFCURVE",
"328 1165 QCURVE SMOOTH",
"328 1075 OFFCURVE",
"179 266 OFFCURVE",
"171 240 QCURVE SMOOTH",
"149 171 OFFCURVE",
"16 55 OFFCURVE",
"16 37 QCURVE SMOOTH",
"16 6 OFFCURVE",
"146 6 QCURVE SMOOTH",
"404 6 OFFCURVE",
"404 42 QCURVE SMOOTH",
"404 71 OFFCURVE",
"308 163 OFFCURVE",
"308 219 QCURVE SMOOTH",
"308 241 OFFCURVE",
"386 670 QCURVE SMOOTH",
"442 979 LINE",
"454 1019 OFFCURVE",
"481 1019 OFFCURVE",
"708 608 QCURVE SMOOTH",
"838 369 LINE SMOOTH",
"957 153 OFFCURVE",
"974 125 QCURVE SMOOTH",
"1054 -3 OFFCURVE",
"1131 -3 QCURVE SMOOTH",
"1167 -3 OFFCURVE",
"1179 35 QCURVE SMOOTH",
"1184 51 OFFCURVE",
"1369 1099 OFFCURVE",
"1409 1231 OFFCURVE",
"1533 1312 OFFCURVE",
"1533 1331 QCURVE SMOOTH",
"1533 1362 OFFCURVE",
"1469 1362 QCURVE SMOOTH"
);
}
);
width = 1464;
},
{
layerId = "BCD21CE1-B1BC-4ACC-96CF-D8EB86DFE113";
paths = (
{
closed = 1;
nodes = (
"918 1504 OFFCURVE",
"947 1504 QCURVE SMOOTH",
"998 1504 OFFCURVE",
"1227 1664 QCURVE SMOOTH",
"1335 1740 OFFCURVE",
"1335 1771 QCURVE SMOOTH",
"1335 1776 LINE SMOOTH",
"1335 1834 OFFCURVE",
"1253 1834 QCURVE SMOOTH",
"1237 1834 LINE SMOOTH",
"1221 1834 OFFCURVE",
"918 1569 OFFCURVE",
"918 1541 QCURVE SMOOTH",
"918 1531 LINE SMOOTH"
);
},
{
closed = 1;
nodes = (
"379 -3 LINE SMOOTH",
"441 -3 OFFCURVE",
"441 28 QCURVE",
"436 50 LINE",
"429 62 OFFCURVE",
"384 90 QCURVE SMOOTH",
"350 111 LINE",
"321 140 OFFCURVE",
"321 225 QCURVE SMOOTH",
"321 253 OFFCURVE",
"474 958 OFFCURVE",
"513 1100 OFFCURVE",
"547 1100 OFFCURVE",
"748 703 QCURVE SMOOTH",
"763 674 OFFCURVE",
"814 569 QCURVE SMOOTH",
"858 479 LINE SMOOTH",
"902 391 OFFCURVE",
"946 304 QCURVE SMOOTH",
"968 261 LINE",
"1020 170 OFFCURVE",
"1141 57 QCURVE SMOOTH",
"1189 12 OFFCURVE",
"1205 12 QCURVE SMOOTH",
"1247 12 OFFCURVE",
"1247 92 QCURVE",
"1246 131 LINE",
"1245 175 LINE",
"1245 239 OFFCURVE",
"1341 630 OFFCURVE",
"1358 704 QCURVE SMOOTH",
"1392 853 LINE SMOOTH",
"1466 1163 OFFCURVE",
"1476 1190 QCURVE SMOOTH",
"1507 1278 OFFCURVE",
"1651 1347 OFFCURVE",
"1651 1396 OFFCURVE",
"1378 1396 QCURVE SMOOTH",
"1292 1396 OFFCURVE",
"1292 1371 QCURVE SMOOTH",
"1292 1340 OFFCURVE",
"1358 1208 OFFCURVE",
"1358 1149 QCURVE SMOOTH",
"1358 1014 OFFCURVE",
"1202 411 QCURVE SMOOTH",
"1187 354 OFFCURVE",
"1171 354 QCURVE SMOOTH",
"1136 354 OFFCURVE",
"694 1258 OFFCURVE",
"636 1329 OFFCURVE",
"493 1391 OFFCURVE",
"299 1391 OFFCURVE",
"299 1355 QCURVE SMOOTH",
"299 1349 OFFCURVE",
"407 1250 OFFCURVE",
"407 1195 QCURVE SMOOTH",
"407 1088 OFFCURVE",
"367 923 QCURVE SMOOTH",
"225 335 OFFCURVE",
"214 300 QCURVE SMOOTH",
"181 191 OFFCURVE",
"132 145 QCURVE SMOOTH",
"51 68 OFFCURVE",
"51 49 QCURVE",
"61 32 LINE",
"101 -3 OFFCURVE",
"331 -3 QCURVE SMOOTH"
);
}
);
width = 1566;
}
);
unicode = 0143;
},
{
glyphname = Ntilde;
layers = (
{
components = (
{
name = N;
transform = "{1, 0, 0.15838, 1, -137, 0}";
},
{
name = tildecomb;
transform = "{1, 0, 0.15838, 1, 686, 318}";
}
);
layerId = "92A672BF-229C-4BEC-8D25-4DDBB2A38145";
width = 1592;
},
{
components = (
{
name = N;
},
{
name = tildecomb;
transform = "{1, 0, 0, 1, 821, 306}";
}
);
layerId = "5CBF0BAD-1756-4F16-9711-93DC239D102B";
width = 1562;
},
{
layerId = "7C3FA927-BF0B-46CA-AD8A-59E4DBC582B9";
paths = (
{
closed = 1;
nodes = (
"744 1789 OFFCURVE",
"571 1628 OFFCURVE",
"571 1576 QCURVE SMOOTH",
"571 1567 LINE SMOOTH",
"571 1533 OFFCURVE",
"616 1533 QCURVE SMOOTH",
"625 1533 OFFCURVE",
"740 1623 OFFCURVE",
"835 1623 OFFCURVE",
"998 1517 OFFCURVE",
"1049 1517 QCURVE SMOOTH",
"1076 1517 LINE SMOOTH",
"1147 1517 OFFCURVE",
"1216 1581 QCURVE SMOOTH",
"1317 1675 OFFCURVE",
"1317 1730 QCURVE SMOOTH",
"1317 1739 LINE SMOOTH",
"1317 1771 OFFCURVE",
"1250 1771 OFFCURVE",
"1156 1684 OFFCURVE",
"1050 1684 OFFCURVE",
"901 1789 OFFCURVE",
"841 1789 QCURVE SMOOTH",
"814 1789 LINE SMOOTH"
);
},
{
closed = 1;
nodes = (
"176 180 OFFCURVE",
"20 104 OFFCURVE",
"20 50 QCURVE SMOOTH",
"20 3 OFFCURVE",
"351 3 OFFCURVE",
"368 5 QCURVE SMOOTH",
"442 14 OFFCURVE",
"442 54 QCURVE SMOOTH",
"442 76 OFFCURVE",
"366 155 OFFCURVE",
"366 181 QCURVE SMOOTH",
"366 314 OFFCURVE",
"471 959 OFFCURVE",
"488 1005 OFFCURVE",
"510 1005 QCURVE SMOOTH",
"524 1005 OFFCURVE",
"869 398 QCURVE SMOOTH",
"985 193 LINE",
"1061 70 OFFCURVE",
"1129 22 QCURVE SMOOTH",
"1171 -8 OFFCURVE",
"1197 -8 QCURVE SMOOTH",
"1232 -8 OFFCURVE",
"1254 83 QCURVE",
"1262 130 LINE SMOOTH",
"1293 307 OFFCURVE",
"1352 644 OFFCURVE",
"1364 721 QCURVE SMOOTH",
"1437 1141 LINE",
"1449 1186 OFFCURVE",
"1607 1322 OFFCURVE",
"1607 1340 QCURVE SMOOTH",
"1607 1394 OFFCURVE",
"1497 1394 QCURVE SMOOTH",
"1450 1394 LINE SMOOTH",
"1300 1394 OFFCURVE",
"1199 1353 OFFCURVE",
"1199 1317 QCURVE SMOOTH",
"1199 1316 OFFCURVE",
"1261 1222 OFFCURVE",
"1261 1179 QCURVE",
"1257 1092 LINE",
"1257 995 OFFCURVE",
"1179 507 OFFCURVE",
"1165 460 QCURVE",
"1154 435 LINE",
"1146 435 OFFCURVE",
"922 828 QCURVE SMOOTH",
"760 1113 LINE SMOOTH",
"726 1174 OFFCURVE",
"713 1196 QCURVE SMOOTH",
"689 1237 LINE",
"652 1289 OFFCURVE",
"468 1393 OFFCURVE",
"392 1393 QCURVE SMOOTH",
"245 1393 OFFCURVE",
"245 1338 QCURVE SMOOTH",
"245 1291 OFFCURVE",
"341 1208 OFFCURVE",
"341 1097 OFFCURVE",
"220 354 OFFCURVE",
"194 251 QCURVE SMOOTH"
);
}
);
width = 1526;
},
{
layerId = "BCD21CE1-B1BC-4ACC-96CF-D8EB86DFE113";
paths = (
{
closed = 1;
nodes = (
"823 1771 OFFCURVE",
"691 1639 OFFCURVE",
"691 1572 OFFCURVE",
"715 1572 QCURVE SMOOTH",
"716 1572 OFFCURVE",
"814 1654 OFFCURVE",
"911 1654 OFFCURVE",
"1057 1566 OFFCURVE",
"1106 1566 QCURVE SMOOTH",
"1135 1566 LINE SMOOTH",
"1197 1566 OFFCURVE",
"1332 1690 OFFCURVE",
"1332 1735 QCURVE SMOOTH",
"1332 1743 LINE SMOOTH",
"1332 1768 OFFCURVE",
"1309 1768 QCURVE SMOOTH",
"1306 1768 OFFCURVE",
"1205 1684 OFFCURVE",
"1117 1684 OFFCURVE",
"962 1771 OFFCURVE",
"921 1771 QCURVE SMOOTH",
"899 1771 LINE SMOOTH"
);
},
{
closed = 1;
nodes = (
"290 1345 OFFCURVE",
"334 1309 QCURVE",
"366 1287 LINE",
"401 1255 OFFCURVE",
"401 1225 QCURVE SMOOTH",
"401 1148 OFFCURVE",
"222 302 OFFCURVE",
"166 138 OFFCURVE",
"125 108 QCURVE",
"57 69 LINE",
"34 51 LINE",
"34 17 OFFCURVE",
"63 9 QCURVE SMOOTH",
"116 -6 OFFCURVE",
"327 -6 QCURVE SMOOTH",
"422 -6 OFFCURVE",
"422 26 QCURVE SMOOTH",
"422 45 OFFCURVE",
"403 67 QCURVE",
"376 92 LINE",
"351 119 LINE",
"320 162 OFFCURVE",
"320 230 QCURVE SMOOTH",
"320 369 OFFCURVE",
"480 1060 QCURVE SMOOTH",
"495 1124 OFFCURVE",
"510 1124 QCURVE SMOOTH",
"535 1124 OFFCURVE",
"996 232 OFFCURVE",
"1011 210 QCURVE SMOOTH",
"1148 4 OFFCURVE",
"1219 4 QCURVE SMOOTH",
"1235 4 OFFCURVE",
"1280 315 OFFCURVE",
"1354 641 OFFCURVE",
"1459 1140 OFFCURVE",
"1490 1249 OFFCURVE",
"1516 1285 OFFCURVE",
"1615 1336 QCURVE SMOOTH",
"1647 1352 OFFCURVE",
"1647 1403 OFFCURVE",
"1412 1403 QCURVE SMOOTH",
"1296 1403 OFFCURVE",
"1296 1373 QCURVE SMOOTH",
"1296 1353 OFFCURVE",
"1351 1198 OFFCURVE",
"1351 1173 QCURVE SMOOTH",
"1351 1057 OFFCURVE",
"1206 372 OFFCURVE",
"1198 351 QCURVE",
"1184 322 LINE",
"1152 322 OFFCURVE",
"680 1245 OFFCURVE",
"664 1267 QCURVE SMOOTH",
"621 1327 OFFCURVE",
"476 1398 OFFCURVE",
"290 1398 OFFCURVE",
"290 1353 QCURVE SMOOTH"
);
}
);
width = 1571;
}
);
unicode = 00D1;
},
{
glyphname = O;
layers = (
{
anchors = (
{
name = bottom;
position = "{625, -29}";
},
{
name = top;
position = "{853, 1416}";
}
);
layerId = "92A672BF-229C-4BEC-8D25-4DDBB2A38145";
paths = (
{
closed = 1;
nodes = (
"1033 -28 OFFCURVE",
"1349 299 OFFCURVE",
"1411 690 CURVE SMOOTH",
"1479 1124 OFFCURVE",
"1273 1412 OFFCURVE",
"902 1412 CURVE SMOOTH",
"479 1412 OFFCURVE",
"168 1126 OFFCURVE",
"100 699 CURVE SMOOTH",
"28 245 OFFCURVE",
"225 -28 OFFCURVE",
"650 -28 CURVE SMOOTH"
);
},
{
closed = 1;
nodes = (
"390 66 OFFCURVE",
"263 317 OFFCURVE",
"324 702 CURVE SMOOTH",
"385 1087 OFFCURVE",
"579 1320 OFFCURVE",
"841 1320 CURVE SMOOTH",
"1101 1320 OFFCURVE",
"1229 1070 OFFCURVE",
"1168 685 CURVE SMOOTH",
"1116 356 OFFCURVE",
"947 66 OFFCURVE",
"664 66 CURVE SMOOTH"
);
}
);
width = 1533;
},
{
anchors = (
{
name = bottom;
position = "{595, -33}";
},
{
name = top;
position = "{933, 1405}";
}
);
layerId = "5CBF0BAD-1756-4F16-9711-93DC239D102B";
paths = (
{
closed = 1;
nodes = (
"1119 -34 OFFCURVE",
"1437 263 OFFCURVE",
"1508 713 CURVE SMOOTH",
"1567 1089 OFFCURVE",
"1348 1406 OFFCURVE",
"983 1406 CURVE SMOOTH",
"539 1406 OFFCURVE",
"227 1123 OFFCURVE",
"157 682 CURVE SMOOTH",
"92 275 OFFCURVE",
"294 -34 OFFCURVE",
"685 -34 CURVE SMOOTH"
);
},
{
closed = 1;
nodes = (
"490 108 OFFCURVE",
"402 409 OFFCURVE",
"446 687 CURVE SMOOTH",
"504 1056 OFFCURVE",
"670 1267 OFFCURVE",
"898 1267 CURVE SMOOTH",
"1131 1267 OFFCURVE",
"1210 982 OFFCURVE",
"1166 706 CURVE SMOOTH",
"1103 308 OFFCURVE",
"954 108 OFFCURVE",
"714 108 CURVE SMOOTH"
);
}
);
width = 1533;
},
{
layerId = "7C3FA927-BF0B-46CA-AD8A-59E4DBC582B9";
paths = (
{
closed = 1;
nodes = (
"1186 659 OFFCURVE",
"1141 528 QCURVE SMOOTH",
"1048 261 OFFCURVE",
"874 158 QCURVE SMOOTH",
"788 107 OFFCURVE",
"699 107 QCURVE SMOOTH",
"698 107 OFFCURVE",
"696 107 QCURVE SMOOTH",
"544 107 OFFCURVE",
"362 341 OFFCURVE",
"362 526 QCURVE SMOOTH",
"362 574 LINE SMOOTH",
"362 690 OFFCURVE",
"406 822 QCURVE SMOOTH",
"490 1073 OFFCURVE",
"666 1184 QCURVE SMOOTH",
"752 1238 OFFCURVE",
"852 1238 QCURVE SMOOTH",
"868 1238 LINE SMOOTH",
"1003 1238 OFFCURVE",
"1085 1139 QCURVE SMOOTH",
"1186 1017 OFFCURVE",
"1186 837 QCURVE SMOOTH",
"1186 776 LINE SMOOTH"
);
},
{
closed = 1;
nodes = (
"722 1376 OFFCURVE",
"580 1307 QCURVE SMOOTH",
"300 1172 OFFCURVE",
"170 867 QCURVE SMOOTH",
"105 716 OFFCURVE",
"105 562 QCURVE SMOOTH",
"105 559 OFFCURVE",
"105 557 QCURVE SMOOTH",
"105 513 LINE SMOOTH",
"105 396 OFFCURVE",
"191 189 OFFCURVE",
"259 121 QCURVE SMOOTH",
"412 -32 OFFCURVE",
"629 -32 QCURVE SMOOTH",
"674 -32 LINE SMOOTH",
"810 -32 OFFCURVE",
"1088 89 OFFCURVE",
"1308 317 OFFCURVE",
"1443 634 OFFCURVE",
"1443 787 QCURVE SMOOTH",
"1443 831 LINE SMOOTH",
"1443 948 OFFCURVE",
"1358 1152 OFFCURVE",
"1217 1299 OFFCURVE",
"1016 1376 OFFCURVE",
"919 1376 QCURVE SMOOTH",
"874 1376 LINE SMOOTH"
);
}
);
width = 1439;
},
{
layerId = "BCD21CE1-B1BC-4ACC-96CF-D8EB86DFE113";
paths = (
{
closed = 1;
nodes = (
"1260 686 OFFCURVE",
"1166 402 OFFCURVE",
"1086 296 QCURVE SMOOTH",
"917 72 OFFCURVE",
"701 72 QCURVE SMOOTH",
"666 72 LINE SMOOTH",
"598 72 OFFCURVE",
"466 138 OFFCURVE",
"418 203 QCURVE SMOOTH",
"321 334 OFFCURVE",
"321 528 QCURVE SMOOTH",
"321 580 LINE SMOOTH",
"321 705 OFFCURVE",
"422 1000 OFFCURVE",
"503 1099 QCURVE SMOOTH",
"676 1312 OFFCURVE",
"899 1312 QCURVE SMOOTH",
"1150 1311 OFFCURVE",
"1232 1042 QCURVE SMOOTH",
"1260 952 OFFCURVE",
"1260 857 QCURVE SMOOTH",
"1260 822 LINE SMOOTH"
);
},
{
closed = 1;
nodes = (
"746 1406 OFFCURVE",
"457 1265 OFFCURVE",
"248 1034 OFFCURVE",
"127 724 OFFCURVE",
"127 569 QCURVE SMOOTH",
"127 547 LINE SMOOTH",
"127 434 OFFCURVE",
"201 216 OFFCURVE",
"267 146 QCURVE SMOOTH",
"425 -24 OFFCURVE",
"652 -24 QCURVE SMOOTH",
"697 -24 LINE SMOOTH",
"837 -24 OFFCURVE",
"991 51 QCURVE SMOOTH",
"1259 182 OFFCURVE",
"1390 491 QCURVE SMOOTH",
"1455 644 OFFCURVE",
"1455 791 QCURVE SMOOTH",
"1455 835 LINE SMOOTH",
"1455 943 OFFCURVE",
"1427 1031 QCURVE SMOOTH",
"1351 1270 OFFCURVE",
"1143 1361 QCURVE SMOOTH",
"1040 1406 OFFCURVE",
"930 1406 QCURVE SMOOTH",
"908 1406 LINE SMOOTH"
);
}
);
width = 1480;
}
);
note = uni004F;
unicode = 004F;
},
{
glyphname = Oacute;
layers = (
{
components = (
{
name = O;
transform = "{1, 0, 0.15838, 1, -145, 0}";
},
{
name = acutecomb;
transform = "{1, 0, 0.15838, 1, 653, 369}";
}
);
layerId = "92A672BF-229C-4BEC-8D25-4DDBB2A38145";
width = 1533;
},
{
components = (
{
name = O;
},
{
name = acutecomb;
transform = "{1, 0, 0, 1, 839, 371}";
}
);
layerId = "5CBF0BAD-1756-4F16-9711-93DC239D102B";
width = 1533;
},
{
layerId = "7C3FA927-BF0B-46CA-AD8A-59E4DBC582B9";
paths = (
{
closed = 1;
nodes = (
"380 727 OFFCURVE",
"467 998 OFFCURVE",
"543 1101 QCURVE SMOOTH",
"679 1287 OFFCURVE",
"873 1287 QCURVE SMOOTH",
"889 1287 LINE SMOOTH",
"1036 1287 OFFCURVE",
"1210 1041 OFFCURVE",
"1210 845 QCURVE SMOOTH",
"1210 829 LINE SMOOTH",
"1210 708 OFFCURVE",
"1128 436 OFFCURVE",
"1053 332 QCURVE SMOOTH",
"908 130 OFFCURVE",
"718 130 QCURVE SMOOTH",
"570 130 OFFCURVE",
"484 238 QCURVE SMOOTH",
"381 368 OFFCURVE",
"381 560 QCURVE",
"380 576 LINE",
"380 609 LINE SMOOTH"
);
},
{
closed = 1;
nodes = (
"916 1512 OFFCURVE",
"1140 1669 QCURVE SMOOTH",
"1248 1745 OFFCURVE",
"1248 1776 QCURVE SMOOTH",
"1248 1781 LINE SMOOTH",
"1248 1796 OFFCURVE",
"1233 1805 QCURVE SMOOTH",
"1183 1835 OFFCURVE",
"1135 1835 OFFCURVE",
"1125 1837 QCURVE",
"1095 1837 LINE SMOOTH",
"1040 1837 OFFCURVE",
"792 1558 OFFCURVE",
"792 1555 QCURVE SMOOTH",
"792 1550 LINE SMOOTH",
"792 1512 OFFCURVE",
"827 1512 QCURVE SMOOTH",
"843 1512 LINE SMOOTH"
);
},
{
closed = 1;
nodes = (
"739 1426 OFFCURVE",
"592 1356 QCURVE SMOOTH",
"294 1215 OFFCURVE",
"166 890 QCURVE SMOOTH",
"107 741 OFFCURVE",
"107 572 QCURVE SMOOTH",
"107 569 OFFCURVE",
"107 566 QCURVE SMOOTH",
"107 308 OFFCURVE",
"426 -11 OFFCURVE",
"696 -11 QCURVE SMOOTH",
"828 -11 OFFCURVE",
"957 43 QCURVE SMOOTH",
"1278 176 OFFCURVE",
"1414 504 QCURVE SMOOTH",
"1482 669 OFFCURVE",
"1482 829 QCURVE SMOOTH",
"1482 873 LINE SMOOTH",
"1482 978 OFFCURVE",
"1438 1091 QCURVE SMOOTH",
"1360 1295 OFFCURVE",
"1156 1382 QCURVE SMOOTH",
"1052 1426 OFFCURVE",
"939 1426 QCURVE SMOOTH",
"892 1426 LINE SMOOTH"
);
}
);
width = 1473;
},
{
layerId = "BCD21CE1-B1BC-4ACC-96CF-D8EB86DFE113";
paths = (
{
closed = 1;
nodes = (
"1266 703 OFFCURVE",
"1173 423 OFFCURVE",
"1020 212 OFFCURVE",
"814 77 OFFCURVE",
"697 77 QCURVE SMOOTH",
"662 77 LINE SMOOTH",
"661 77 OFFCURVE",
"660 77 QCURVE SMOOTH",
"506 77 OFFCURVE",
"408 208 QCURVE SMOOTH",
"309 340 OFFCURVE",
"309 537 QCURVE SMOOTH",
"309 591 LINE SMOOTH",
"309 739 OFFCURVE",
"428 1040 OFFCURVE",
"603 1246 OFFCURVE",
"806 1335 OFFCURVE",
"897 1335 QCURVE SMOOTH",
"915 1335 LINE SMOOTH",
"1068 1335 OFFCURVE",
"1266 1081 OFFCURVE",
"1266 894 QCURVE SMOOTH",
"1266 840 LINE SMOOTH"
);
},
{
closed = 1;
nodes = (
"866 1518 OFFCURVE",
"894 1518 QCURVE SMOOTH",
"899 1518 LINE SMOOTH",
"917 1518 OFFCURVE",
"1154 1676 QCURVE SMOOTH",
"1260 1747 OFFCURVE",
"1260 1785 QCURVE",
"1261 1790 LINE",
"1261 1794 LINE SMOOTH",
"1261 1840 OFFCURVE",
"1200 1840 QCURVE SMOOTH",
"1194 1840 OFFCURVE",
"1184 1842 QCURVE",
"1169 1842 LINE SMOOTH",
"1123 1842 OFFCURVE",
"866 1549 OFFCURVE",
"866 1547 QCURVE SMOOTH",
"866 1538 LINE SMOOTH"
);
},
{
closed = 1;
nodes = (
"126 551 LINE SMOOTH",
"126 439 OFFCURVE",
"162 334 QCURVE SMOOTH",
"234 123 OFFCURVE",
"436 30 QCURVE SMOOTH",
"536 -16 OFFCURVE",
"635 -16 QCURVE SMOOTH",
"703 -16 LINE SMOOTH",
"830 -16 OFFCURVE",
"1112 121 OFFCURVE",
"1333 365 OFFCURVE",
"1451 687 OFFCURVE",
"1451 838 QCURVE SMOOTH",
"1451 1115 OFFCURVE",
"1300 1271 QCURVE SMOOTH",
"1148 1427 OFFCURVE",
"895 1427 QCURVE SMOOTH",
"755 1427 OFFCURVE",
"469 1295 OFFCURVE",
"244 1046 OFFCURVE",
"126 725 OFFCURVE",
"126 573 QCURVE SMOOTH"
);
}
);
width = 1475;
}
);
unicode = 00D3;
},
{
glyphname = Ocircumflex;
layers = (
{
components = (
{
name = O;
transform = "{1, 0, 0.15838, 1, -141, 0}";
},
{
name = circumflexcomb;
transform = "{1, 0, 0.15838, 1, 647, 313}";
}
);
layerId = "92A672BF-229C-4BEC-8D25-4DDBB2A38145";
width = 1533;
},
{
components = (
{
name = O;
},
{
name = circumflexcomb;
transform = "{1, 0, 0, 1, 974, 340}";
}
);
layerId = "5CBF0BAD-1756-4F16-9711-93DC239D102B";
width = 1533;
},
{
layerId = "7C3FA927-BF0B-46CA-AD8A-59E4DBC582B9";
paths = (
{
closed = 1;
nodes = (
"630 126 OFFCURVE",
"507 197 OFFCURVE",
"466 257 QCURVE SMOOTH",
"381 382 OFFCURVE",
"381 556 QCURVE",
"380 572 LINE",
"380 604 LINE SMOOTH",
"380 714 OFFCURVE",
"414 827 QCURVE SMOOTH",
"498 1110 OFFCURVE",
"682 1226 QCURVE SMOOTH",
"770 1282 OFFCURVE",
"857 1282 QCURVE SMOOTH",
"889 1282 LINE SMOOTH",
"1036 1282 OFFCURVE",
"1210 1036 OFFCURVE",
"1210 840 QCURVE SMOOTH",
"1210 825 LINE SMOOTH",
"1210 708 OFFCURVE",
"1135 449 OFFCURVE",
"1001 248 OFFCURVE",
"825 126 OFFCURVE",
"734 126 QCURVE SMOOTH",
"702 126 LINE SMOOTH"
);
},
{
closed = 1;
nodes = (
"941 1857 OFFCURVE",
"622 1562 OFFCURVE",
"622 1555 QCURVE SMOOTH",
"622 1548 LINE SMOOTH",
"622 1520 OFFCURVE",
"674 1520 QCURVE SMOOTH",
"681 1520 LINE SMOOTH",
"711 1520 OFFCURVE",
"828 1590 QCURVE SMOOTH",
"850 1604 LINE SMOOTH",
"946 1668 OFFCURVE",
"968 1668 OFFCURVE",
"1141 1521 OFFCURVE",
"1182 1521 QCURVE SMOOTH",
"1189 1521 LINE",
"1197 1520 LINE",
"1246 1520 OFFCURVE",
"1246 1553 QCURVE SMOOTH",
"1246 1560 LINE SMOOTH",
"1246 1572 OFFCURVE",
"1194 1640 OFFCURVE",
"1169 1678 OFFCURVE",
"1124 1741 OFFCURVE",
"1080 1809 OFFCURVE",
"1072 1818 QCURVE SMOOTH",
"1036 1857 OFFCURVE",
"998 1857 QCURVE SMOOTH",
"990 1857 LINE SMOOTH"
);
},
{
closed = 1;
nodes = (
"108 583 LINE",
"107 561 LINE",
"107 445 OFFCURVE",
"184 230 OFFCURVE",
"256 155 QCURVE SMOOTH",
"420 -15 OFFCURVE",
"651 -15 QCURVE SMOOTH",
"697 -15 LINE SMOOTH",
"862 -15 OFFCURVE",
"1018 65 QCURVE SMOOTH",
"1291 205 OFFCURVE",
"1419 512 QCURVE SMOOTH",
"1482 664 OFFCURVE",
"1482 824 QCURVE SMOOTH",
"1482 868 LINE SMOOTH",
"1482 989 OFFCURVE",
"1389 1200 OFFCURVE",
"1320 1267 QCURVE SMOOTH",
"1159 1422 OFFCURVE",
"896 1422 QCURVE SMOOTH",
"760 1422 OFFCURVE",
"477 1305 OFFCURVE",
"253 1081 OFFCURVE",
"108 759 OFFCURVE",
"108 606 QCURVE SMOOTH"
);
}
);
width = 1473;
},
{
layerId = "BCD21CE1-B1BC-4ACC-96CF-D8EB86DFE113";
paths = (
{
closed = 1;
nodes = (
"1077 1330 OFFCURVE",
"1275 1076 OFFCURVE",
"1275 871 QCURVE SMOOTH",
"1275 835 LINE SMOOTH",
"1275 700 OFFCURVE",
"1181 418 OFFCURVE",
"1099 305 QCURVE SMOOTH",
"931 72 OFFCURVE",
"688 72 QCURVE SMOOTH",
"670 72 LINE SMOOTH",
"599 72 OFFCURVE",
"535 103 QCURVE SMOOTH",
"408 165 OFFCURVE",
"349 335 QCURVE SMOOTH",
"318 425 OFFCURVE",
"318 533 QCURVE",
"317 550 LINE",
"317 568 LINE SMOOTH",
"317 855 OFFCURVE",
"503 1113 QCURVE SMOOTH",
"564 1197 OFFCURVE",
"778 1330 OFFCURVE",
"887 1330 QCURVE SMOOTH",
"924 1330 LINE SMOOTH"
);
},
{
closed = 1;
nodes = (
"969 1838 OFFCURVE",
"679 1548 OFFCURVE",
"679 1544 QCURVE SMOOTH",
"679 1524 OFFCURVE",
"728 1524 OFFCURVE",
"969 1691 OFFCURVE",
"974 1691 QCURVE SMOOTH",
"992 1691 OFFCURVE",
"1161 1522 OFFCURVE",
"1184 1522 QCURVE SMOOTH",
"1217 1522 OFFCURVE",
"1217 1554 QCURVE SMOOTH",
"1217 1557 OFFCURVE",
"1143 1677 OFFCURVE",
"1051 1838 OFFCURVE",
"1024 1838 QCURVE SMOOTH",
"1003 1838 LINE SMOOTH"
);
},
{
closed = 1;
nodes = (
"759 1422 OFFCURVE",
"475 1287 OFFCURVE",
"264 1054 OFFCURVE",
"135 743 OFFCURVE",
"135 591 QCURVE SMOOTH",
"135 524 LINE SMOOTH",
"135 427 OFFCURVE",
"178 309 QCURVE SMOOTH",
"252 109 OFFCURVE",
"452 22 QCURVE SMOOTH",
"550 -20 OFFCURVE",
"644 -21 QCURVE SMOOTH",
"689 -21 LINE SMOOTH",
"829 -21 OFFCURVE",
"1117 112 OFFCURVE",
"1333 350 OFFCURVE",
"1459 665 OFFCURVE",
"1459 811 QCURVE SMOOTH",
"1459 855 LINE SMOOTH",
"1459 975 OFFCURVE",
"1415 1092 QCURVE SMOOTH",
"1339 1295 OFFCURVE",
"1148 1378 QCURVE SMOOTH",
"1047 1422 OFFCURVE",
"928 1422 QCURVE SMOOTH",
"905 1422 LINE SMOOTH"
);
}
);
width = 1475;
}
);
unicode = 00D4;
},
{
glyphname = Odieresis;
layers = (
{
components = (
{
name = O;
transform = "{1, 0, 0.15838, 1, -141, 0}";
},
{
name = dieresiscomb;
transform = "{1, 0, 0.15838, 1, 657, 433}";
}
);
layerId = "92A672BF-229C-4BEC-8D25-4DDBB2A38145";
width = 1533;
},
{
components = (
{
name = O;
},
{
name = dieresiscomb;
transform = "{1, 0, 0, 1, 839, 389}";
}
);
layerId = "5CBF0BAD-1756-4F16-9711-93DC239D102B";
width = 1533;
},
{
layerId = "7C3FA927-BF0B-46CA-AD8A-59E4DBC582B9";
paths = (
{
closed = 1;
nodes = (
"1211 708 OFFCURVE",
"1129 426 OFFCURVE",
"1047 318 QCURVE SMOOTH",
"902 128 OFFCURVE",
"719 128 QCURVE SMOOTH",
"572 128 OFFCURVE",
"486 236 QCURVE SMOOTH",
"382 368 OFFCURVE",
"382 558 QCURVE SMOOTH",
"382 606 LINE SMOOTH",
"382 741 OFFCURVE",
"430 876 QCURVE SMOOTH",
"523 1142 OFFCURVE",
"697 1238 QCURVE SMOOTH",
"781 1285 OFFCURVE",
"870 1285 QCURVE SMOOTH",
"872 1285 OFFCURVE",
"874 1285 QCURVE",
"890 1284 LINE",
"1029 1284 OFFCURVE",
"1211 1051 OFFCURVE",
"1211 874 QCURVE SMOOTH",
"1211 811 LINE SMOOTH"
);
},
{
closed = 1;
nodes = (
"617 1636 LINE",
"620 1624 LINE",
"620 1597 OFFCURVE",
"685 1532 OFFCURVE",
"731 1532 QCURVE SMOOTH",
"735 1532 LINE",
"761 1535 LINE",
"804 1535 OFFCURVE",
"882 1628 OFFCURVE",
"882 1676 QCURVE",
"883 1680 LINE",
"883 1685 LINE",
"880 1710 LINE",
"880 1740 OFFCURVE",
"815 1805 OFFCURVE",
"777 1805 QCURVE SMOOTH",
"751 1805 LINE SMOOTH",
"698 1805 OFFCURVE",
"617 1711 OFFCURVE",
"617 1666 QCURVE SMOOTH"
);
},
{
closed = 1;
nodes = (
"1279 1737 OFFCURVE",
"1211 1805 OFFCURVE",
"1173 1805 QCURVE SMOOTH",
"1151 1805 LINE SMOOTH",
"1095 1805 OFFCURVE",
"1012 1708 OFFCURVE",
"1012 1666 QCURVE SMOOTH",
"1012 1640 LINE SMOOTH",
"1012 1600 OFFCURVE",
"1080 1532 OFFCURVE",
"1118 1532 QCURVE SMOOTH",
"1144 1532 LINE SMOOTH",
"1197 1532 OFFCURVE",
"1279 1628 OFFCURVE",
"1279 1676 QCURVE SMOOTH",
"1279 1693 LINE SMOOTH"
);
},
{
closed = 1;
nodes = (
"740 1424 OFFCURVE",
"593 1354 QCURVE SMOOTH",
"305 1218 OFFCURVE",
"173 900 QCURVE SMOOTH",
"109 746 OFFCURVE",
"109 586 QCURVE SMOOTH",
"109 541 LINE SMOOTH",
"109 429 OFFCURVE",
"202 205 OFFCURVE",
"288 127 QCURVE SMOOTH",
"444 -13 OFFCURVE",
"690 -13 QCURVE SMOOTH",
"830 -13 OFFCURVE",
"959 41 QCURVE SMOOTH",
"1277 172 OFFCURVE",
"1416 506 QCURVE SMOOTH",
"1484 668 OFFCURVE",
"1484 826 QCURVE SMOOTH",
"1484 849 LINE SMOOTH",
"1484 976 OFFCURVE",
"1440 1089 QCURVE SMOOTH",
"1359 1293 OFFCURVE",
"1156 1380 QCURVE SMOOTH",
"1052 1424 OFFCURVE",
"940 1424 QCURVE SMOOTH",
"894 1424 LINE SMOOTH"
);
}
);
width = 1473;
},
{
layerId = "BCD21CE1-B1BC-4ACC-96CF-D8EB86DFE113";
paths = (
{
closed = 1;
nodes = (
"315 737 OFFCURVE",
"434 1038 OFFCURVE",
"512 1130 QCURVE SMOOTH",
"685 1334 OFFCURVE",
"903 1334 QCURVE SMOOTH",
"1154 1333 OFFCURVE",
"1242 1072 QCURVE SMOOTH",
"1272 982 OFFCURVE",
"1272 893 QCURVE SMOOTH",
"1272 875 LINE",
"1273 857 LINE",
"1273 709 OFFCURVE",
"1178 415 OFFCURVE",
"1012 196 OFFCURVE",
"810 75 OFFCURVE",
"599 75 OFFCURVE",
"533 107 QCURVE SMOOTH",
"398 174 OFFCURVE",
"343 354 QCURVE SMOOTH",
"315 446 OFFCURVE",
"315 536 QCURVE SMOOTH",
"315 589 LINE SMOOTH"
);
},
{
closed = 1;
nodes = (
"739 1770 OFFCURVE",
"686 1704 OFFCURVE",
"686 1694 QCURVE",
"681 1663 LINE",
"681 1659 LINE SMOOTH",
"681 1627 OFFCURVE",
"724 1573 OFFCURVE",
"744 1573 QCURVE",
"768 1569 LINE",
"771 1569 LINE",
"790 1571 LINE",
"816 1571 OFFCURVE",
"873 1628 OFFCURVE",
"873 1648 QCURVE",
"877 1673 LINE",
"877 1679 LINE SMOOTH",
"877 1712 OFFCURVE",
"833 1767 OFFCURVE",
"802 1767 OFFCURVE",
"793 1770 QCURVE",
"780 1770 LINE SMOOTH"
);
},
{
closed = 1;
nodes = (
"1179 1570 OFFCURVE",
"1238 1629 OFFCURVE",
"1238 1649 QCURVE",
"1241 1668 LINE",
"1241 1671 LINE",
"1242 1674 LINE",
"1242 1684 LINE SMOOTH",
"1242 1712 OFFCURVE",
"1195 1771 OFFCURVE",
"1157 1771 QCURVE SMOOTH",
"1144 1771 LINE",
"1132 1769 LINE",
"1129 1769 OFFCURVE",
"1104 1767 OFFCURVE",
"1049 1712 OFFCURVE",
"1049 1692 QCURVE",
"1045 1667 LINE",
"1045 1661 LINE",
"1047 1645 LINE",
"1047 1642 OFFCURVE",
"1049 1636 QCURVE",
"1049 1614 OFFCURVE",
"1104 1570 OFFCURVE",
"1127 1570 QCURVE SMOOTH",
"1149 1570 LINE SMOOTH"
);
},
{
closed = 1;
nodes = (
"753 1425 OFFCURVE",
"470 1287 OFFCURVE",
"249 1044 OFFCURVE",
"132 724 OFFCURVE",
"132 572 QCURVE SMOOTH",
"132 549 LINE SMOOTH",
"132 436 OFFCURVE",
"207 220 OFFCURVE",
"275 148 QCURVE SMOOTH",
"431 -18 OFFCURVE",
"664 -18 QCURVE SMOOTH",
"686 -18 LINE SMOOTH",
"834 -18 OFFCURVE",
"982 54 QCURVE SMOOTH",
"1278 198 OFFCURVE",
"1400 530 QCURVE SMOOTH",
"1457 686 OFFCURVE",
"1457 960 OFFCURVE",
"1427 1055 QCURVE SMOOTH",
"1353 1284 OFFCURVE",
"1150 1378 QCURVE SMOOTH",
"1050 1424 OFFCURVE",
"948 1425 QCURVE SMOOTH",
"903 1425 LINE SMOOTH"
);
}
);
width = 1475;
}
);
unicode = 00D6;
},
{
glyphname = Ograve;
layers = (
{
components = (
{
name = O;
transform = "{1, 0, 0.15838, 1, -147, 0}";
},
{
name = gravecomb;
transform = "{1, 0, 0.15838, 1, 655, 409}";
}
);
layerId = "92A672BF-229C-4BEC-8D25-4DDBB2A38145";
width = 1533;
},
{
components = (
{
name = O;
},
{
name = gravecomb;
transform = "{1, 0, 0, 1, 933, 398}";
}
);
layerId = "5CBF0BAD-1756-4F16-9711-93DC239D102B";
width = 1533;
},
{
layerId = "7C3FA927-BF0B-46CA-AD8A-59E4DBC582B9";
paths = (
{
closed = 1;
nodes = (
"630 130 OFFCURVE",
"507 201 OFFCURVE",
"466 261 QCURVE SMOOTH",
"381 386 OFFCURVE",
"381 560 QCURVE",
"380 576 LINE",
"380 608 LINE SMOOTH",
"380 726 OFFCURVE",
"419 847 QCURVE SMOOTH",
"512 1137 OFFCURVE",
"694 1238 QCURVE SMOOTH",
"780 1286 OFFCURVE",
"857 1286 QCURVE SMOOTH",
"889 1286 LINE SMOOTH",
"957 1286 OFFCURVE",
"1013 1257 QCURVE SMOOTH",
"1210 1154 OFFCURVE",
"1210 844 QCURVE SMOOTH",
"1210 829 LINE SMOOTH",
"1210 708 OFFCURVE",
"1175 591 QCURVE SMOOTH",
"1095 324 OFFCURVE",
"922 197 QCURVE SMOOTH",
"830 130 OFFCURVE",
"734 130 QCURVE SMOOTH",
"702 130 LINE SMOOTH"
);
},
{
closed = 1;
nodes = (
"651 1723 OFFCURVE",
"951 1513 OFFCURVE",
"1004 1513 QCURVE SMOOTH",
"1009 1513 LINE SMOOTH",
"1052 1513 OFFCURVE",
"1052 1555 QCURVE SMOOTH",
"1052 1559 LINE SMOOTH",
"1052 1611 OFFCURVE",
"893 1790 QCURVE SMOOTH",
"850 1838 OFFCURVE",
"796 1838 QCURVE SMOOTH",
"791 1838 LINE SMOOTH",
"715 1838 OFFCURVE",
"651 1790 OFFCURVE",
"651 1775 QCURVE SMOOTH",
"651 1766 LINE SMOOTH"
);
},
{
closed = 1;
nodes = (
"892 1426 LINE SMOOTH",
"732 1426 OFFCURVE",
"439 1279 OFFCURVE",
"226 1045 OFFCURVE",
"107 734 OFFCURVE",
"107 590 QCURVE SMOOTH",
"107 312 OFFCURVE",
"256 159 QCURVE SMOOTH",
"420 -11 OFFCURVE",
"651 -11 QCURVE SMOOTH",
"697 -11 LINE SMOOTH",
"849 -11 OFFCURVE",
"998 60 QCURVE SMOOTH",
"1291 199 OFFCURVE",
"1420 518 QCURVE SMOOTH",
"1482 672 OFFCURVE",
"1482 828 QCURVE SMOOTH",
"1482 873 LINE SMOOTH",
"1482 993 OFFCURVE",
"1388 1206 OFFCURVE",
"1320 1272 QCURVE SMOOTH",
"1162 1426 OFFCURVE",
"915 1426 QCURVE SMOOTH"
);
}
);
width = 1473;
},
{
layerId = "BCD21CE1-B1BC-4ACC-96CF-D8EB86DFE113";
paths = (
{
closed = 1;
nodes = (
"1275 704 OFFCURVE",
"1179 417 OFFCURVE",
"1008 189 OFFCURVE",
"804 77 OFFCURVE",
"706 77 QCURVE SMOOTH",
"670 77 LINE SMOOTH",
"514 77 OFFCURVE",
"318 341 OFFCURVE",
"318 537 QCURVE",
"317 555 LINE",
"317 573 LINE SMOOTH",
"317 706 OFFCURVE",
"359 836 QCURVE SMOOTH",
"463 1153 OFFCURVE",
"686 1276 QCURVE SMOOTH",
"794 1335 OFFCURVE",
"906 1335 QCURVE SMOOTH",
"924 1335 LINE SMOOTH",
"1079 1335 OFFCURVE",
"1275 1081 OFFCURVE",
"1275 876 QCURVE SMOOTH",
"1275 840 LINE SMOOTH"
);
},
{
closed = 1;
nodes = (
"1032 1520 OFFCURVE",
"1032 1547 QCURVE SMOOTH",
"1032 1557 OFFCURVE",
"894 1741 QCURVE SMOOTH",
"817 1844 OFFCURVE",
"777 1844 QCURVE SMOOTH",
"757 1844 LINE SMOOTH",
"679 1844 OFFCURVE",
"679 1789 QCURVE",
"678 1785 LINE",
"678 1744 OFFCURVE",
"786 1663 QCURVE SMOOTH",
"977 1520 OFFCURVE",
"1000 1520 QCURVE SMOOTH",
"1009 1520 LINE SMOOTH"
);
},
{
closed = 1;
nodes = (
"135 528 LINE SMOOTH",
"135 429 OFFCURVE",
"178 314 QCURVE SMOOTH",
"254 108 OFFCURVE",
"458 24 QCURVE SMOOTH",
"558 -17 OFFCURVE",
"666 -17 QCURVE SMOOTH",
"689 -17 LINE SMOOTH",
"837 -17 OFFCURVE",
"1123 122 OFFCURVE",
"1335 357 OFFCURVE",
"1459 673 OFFCURVE",
"1459 816 QCURVE SMOOTH",
"1459 860 LINE SMOOTH",
"1459 980 OFFCURVE",
"1415 1097 QCURVE SMOOTH",
"1341 1292 OFFCURVE",
"1152 1380 QCURVE SMOOTH",
"1052 1426 OFFCURVE",
"918 1427 QCURVE SMOOTH",
"784 1427 OFFCURVE",
"497 1312 OFFCURVE",
"270 1070 OFFCURVE",
"135 751 OFFCURVE",
"135 595 QCURVE SMOOTH"
);
}
);
width = 1475;
}
);
unicode = 00D2;
},
